<?xml version="1.0" standalone="no"?>
<!DOCTYPE svg PUBLIC "-//W3C//DTD SVG 1.1//EN" "http://www.w3.org/Graphics/SVG/1.1/DTD/svg11.dtd" >
<svg>
<metadata>
Created by FontForge 20120731 at Fri Aug 16 08:23:21 2019
 By www-data
Copyright 2015 Google LLC. All Rights Reserved. mod by nongthaihoang
</metadata>
<defs>
<font id="GoogleSans-Medium" horiz-adv-x="0" >
  <font-face 
    font-family="Google Sans Medium"
    font-weight="500"
    font-stretch="normal"
    units-per-em="1000"
    panose-1="2 11 6 3 3 5 2 4 2 3"
    ascent="800"
    descent="-200"
    x-height="510"
    cap-height="716"
    bbox="-907 -271 3284 1056"
    underline-thickness="84"
    underline-position="-76"
    unicode-range="U+0002-1F16B"
  />
<missing-glyph horiz-adv-x="233" 
 />
    <glyph glyph-name="G_l_o_g_o_l_i_g_a_t_u_r_e.liga" unicode="Glogoligature" horiz-adv-x="861" 
d="M460 -16q-111 0 -207 55.5t-152.5 149.5t-56.5 205t56.5 205t152.5 149.5t207 55.5q163 0 281 -113l-79 -79q-85 80 -202 80q-81 0 -148.5 -40t-106.5 -108.5t-39 -149.5t39 -149.5t106.5 -108.5t148.5 -40q72 0 121.5 23t85.5 59q49 49 61 141h-268v112h377q6 -30 6 -70
q0 -71 -23 -141t-74 -121q-110 -115 -286 -115z" />
    <glyph glyph-name="e_l_o_g_o_l_i_g_a_t_u_r_e.liga" unicode="elogoligature" horiz-adv-x="514" 
d="M289 -16q-74 0 -134 35t-94 95.5t-34 133.5q0 77 33.5 137t90.5 93.5t125 33.5q91 0 147 -53t79 -115l12 -30l-353 -146q41 -80 128 -80q80 0 130 73l90 -60q-30 -45 -85 -81t-135 -36zM378 354q-10 25 -37 40.5t-61 15.5q-31 0 -64 -18t-54 -53t-20 -83z" />
    <glyph glyph-name="g_l_o_g_o_l_i_g_a_t_u_r_e.liga" unicode="glogoligature" horiz-adv-x="566" 
d="M277 -253q-88 0 -148 47t-86 109l101 42q16 -38 50 -66t83 -28q66 0 103.5 40t37.5 115v38h-4q-21 -26 -57.5 -43t-81.5 -17q-66 0 -124 35t-93.5 95.5t-35.5 132.5q0 73 35.5 133.5t94 96t123.5 35.5q45 0 81.5 -17t57.5 -42h4v43h110v-474q0 -138 -70.5 -206.5
t-180.5 -68.5zM285 88q39 0 71.5 20.5t51 57t18.5 81.5q0 46 -18.5 82.5t-51 57.5t-71.5 21q-40 0 -73.5 -21t-53.5 -58t-20 -82t20 -81.5t53.5 -57t73.5 -20.5z" />
    <glyph glyph-name="l_l_o_g_o_l_i_g_a_t_u_r_e.liga" unicode="llogoligature" horiz-adv-x="187" 
d="M42 776h116v-776h-116v776z" />
    <glyph glyph-name="o_l_o_g_o_l_i_g_a_t_u_r_e.liga" unicode="ologoligature" horiz-adv-x="578" 
d="M287 -16q-72 0 -133 34.5t-96.5 95t-35.5 134.5q0 75 35.5 135.5t96.5 94.5t133 34t133 -34t96.5 -94.5t35.5 -135.5q0 -74 -35.5 -134.5t-96.5 -95t-133 -34.5zM287 88q40 0 74 20.5t54.5 57t20.5 82.5t-20.5 82.5t-54.5 57t-74 20.5t-74 -20.5t-54.5 -57t-20.5 -82.5
t20.5 -82.5t54.5 -57t74 -20.5z" />
    <glyph glyph-name="f_b.liga" unicode="fb" horiz-adv-x="998" 
d="M717 -16q-55 0 -98.5 24.5t-65.5 59.5h-6v-68h-102v622h-140q-35 0 -56 -21.5t-21 -60.5v-30h124v-94h-124v-416h-107v416h-93v94h93v30q0 85 49 132.5t135 47.5h248v-211l-6 -68h6q22 36 65.5 60.5t98.5 24.5q69 0 125 -35t88 -96.5t32 -139.5t-32 -140t-88 -96.5
t-125 -34.5zM701 83q40 0 75.5 21.5t57 60.5t21.5 90t-21.5 90t-57 60.5t-75.5 21.5t-75.5 -21.5t-57 -60.5t-21.5 -90t21.5 -90t57 -60.5t75.5 -21.5z" />
    <glyph glyph-name="f_f.liga" unicode="ff" horiz-adv-x="721" 
d="M121 416h-93v94h93v42q0 80 49.5 126t125.5 46q36 0 65 -9v-104l-19.5 6.5t-40.5 5.5q-31 0 -52 -21.5t-21 -58.5v-33h217v42q0 80 49.5 126t126.5 46q43 0 79 -12v-105q-21 8 -35.5 12t-34.5 4q-33 0 -55 -21t-22 -59v-33h128v-94h-128v-416h-108v416h-217v-416h-107
v416z" />
    <glyph glyph-name="f_f_b.liga" unicode="ffb" horiz-adv-x="1323" 
d="M1041 -16q-55 0 -98 24.5t-65 59.5h-6v-68h-102v622h-140q-35 0 -56 -21.5t-21 -60.5v-30h124v-94h-124v-416h-108v416h-217v-416h-107v416h-93v94h93v42q0 80 49.5 126t125.5 46q36 0 65 -9v-104l-19.5 6.5t-40.5 5.5q-31 0 -52 -21.5t-21 -58.5v-33h217v30
q0 85 49.5 132.5t134.5 47.5h249v-211l-6 -68h6q22 36 65 60.5t98 24.5q69 0 125.5 -35t88.5 -96.5t32 -139.5t-32 -140t-88.5 -96.5t-125.5 -34.5zM1026 83q40 0 75.5 21.5t56.5 60.5t21 90t-21 90t-56.5 60.5t-75.5 21.5t-75.5 -21.5t-57 -60.5t-21.5 -90t21.5 -90
t57 -60.5t75.5 -21.5z" />
    <glyph glyph-name="f_f_h.liga" unicode="ffh" horiz-adv-x="1289" 
d="M121 416h-93v94h93v42q0 80 49.5 126t125.5 46q36 0 65 -9v-104l-19.5 6.5t-40.5 5.5q-31 0 -52 -21.5t-21 -58.5v-33h217v30q0 85 49.5 132.5t134.5 47.5h248v-218l-6 -69h6q20 41 64.5 67t97.5 26q93 0 141.5 -55.5t48.5 -148.5v-322h-108v308q0 59 -31 89t-80 30
q-37 0 -67.5 -21.5t-48 -57.5t-17.5 -76v-272h-107v622h-140q-35 0 -56 -21.5t-21 -60.5v-30h124v-94h-124v-416h-108v416h-217v-416h-107v416z" />
    <glyph glyph-name="f_f_i.liga" unicode="ffi" horiz-adv-x="948" 
d="M121 416h-93v94h93v42q0 80 49.5 126t125.5 46q36 0 65 -9v-104l-19.5 6.5t-40.5 5.5q-31 0 -52 -21.5t-21 -58.5v-33h217v42q0 80 49.5 126t126.5 46q34 0 65 -9v-104l-19.5 6.5t-40.5 5.5q-31 0 -52 -21t-21 -59v-33h324v-510h-107v416h-217v-416h-108v416h-217v-416
h-107v416zM823 580q-30 0 -51 21t-21 51q0 31 21 51.5t51 20.5q31 0 52 -20.5t21 -51.5q0 -30 -21 -51t-52 -21z" />
    <glyph glyph-name="f_f_j.liga" unicode="ffj" horiz-adv-x="948" 
d="M726 -226q-31 0 -56 7v104q24 -13 48 -13q27 0 39.5 17t12.5 51v476h-217v-416h-108v416h-217v-416h-107v416h-93v94h93v42q0 80 49.5 126t125.5 46q36 0 65 -9v-104l-19.5 6.5t-40.5 5.5q-31 0 -52 -21.5t-21 -58.5v-33h217v42q0 80 49.5 126t126.5 46q34 0 65 -9v-104
l-19.5 6.5t-40.5 5.5q-31 0 -52 -21t-21 -59v-33h324v-571q0 -84 -41 -124.5t-110 -40.5zM823 580q-30 0 -51 21t-21 51q0 31 21 51.5t51 20.5q31 0 52 -20.5t21 -51.5q0 -30 -21 -51t-52 -21z" />
    <glyph glyph-name="f_f_k.liga" unicode="ffk" horiz-adv-x="1238" 
d="M121 416h-93v94h93v42q0 80 49.5 126t125.5 46q36 0 65 -9v-104l-19.5 6.5t-40.5 5.5q-31 0 -52 -21.5t-21 -58.5v-33h217v30q0 85 49.5 132.5t134.5 47.5h248v-424h4l211 214h135v-6l-197 -196l204 -302v-6h-128l-152 234l-77 -77v-157h-107v622h-140q-35 0 -56 -21.5
t-21 -60.5v-30h124v-94h-124v-416h-108v416h-217v-416h-107v416z" />
    <glyph glyph-name="f_f_l.liga" unicode="ffl" horiz-adv-x="941" 
d="M121 416h-93v94h93v42q0 80 49.5 126t125.5 46q36 0 65 -9v-104l-19.5 6.5t-40.5 5.5q-31 0 -52 -21.5t-21 -58.5v-33h217v30q0 85 49.5 132.5t134.5 47.5h248v-720h-107v622h-140q-35 0 -56 -21.5t-21 -60.5v-30h124v-94h-124v-416h-108v416h-217v-416h-107v416z" />
    <glyph glyph-name="f_f_t.liga" unicode="fft" horiz-adv-x="1044" 
d="M925 -8q-35 0 -64 10.5t-48 29.5q-43 40 -43 116v268h-217v-416h-108v416h-217v-416h-107v416h-93v94h93v42q0 80 49.5 126t125.5 46q36 0 65 -9v-104l-19.5 6.5t-40.5 5.5q-31 0 -52 -21.5t-21 -58.5v-33h217v42q0 80 49.5 126t126.5 46q34 0 65 -9v-104l-19.5 6.5
t-40.5 5.5q-31 0 -52 -21t-21 -59v-33h217v144h107v-144h125v-94h-125v-245q0 -41 17 -59q17 -19 52 -19q18 0 30.5 4.5t28.5 14.5v-105q-34 -15 -80 -15z" />
    <glyph glyph-name="f_h.liga" unicode="fh" horiz-adv-x="964" 
d="M121 416h-93v94h93v30q0 85 49 132.5t135 47.5h248v-218l-6 -69h6q20 41 64.5 67t97.5 26q93 0 141.5 -55.5t48.5 -148.5v-322h-108v308q0 59 -31 89t-80 30q-38 0 -68.5 -21.5t-47.5 -57t-17 -76.5v-272h-108v622h-140q-35 0 -56 -21.5t-21 -60.5v-30h124v-94h-124v-416
h-107v416z" />
    <glyph glyph-name="f_i.liga" unicode="fi" horiz-adv-x="624" 
d="M499 585q-30 0 -51.5 21.5t-21.5 51.5t21.5 51t51.5 21t51.5 -21t21.5 -51t-21.5 -51.5t-51.5 -21.5zM121 416h-93v94h93v42q0 80 49.5 126t125.5 46q36 0 65 -9v-104l-19.5 6.5t-40.5 5.5q-31 0 -52 -21.5t-21 -58.5v-33h325v-510h-108v416h-217v-416h-107v416z" />
    <glyph glyph-name="f_j.liga" unicode="fj" horiz-adv-x="624" 
d="M499 585q-30 0 -51.5 21.5t-21.5 51.5t21.5 51t51.5 21t51.5 -21t21.5 -51t-21.5 -51.5t-51.5 -21.5zM402 -226q-31 0 -56 7v104q24 -13 47 -13q28 0 40 17t12 51v476h-217v-416h-107v416h-93v94h93v42q0 80 49.5 126t125.5 46q36 0 65 -9v-104l-19.5 6.5t-40.5 5.5
q-31 0 -52 -21.5t-21 -58.5v-33h325v-571q0 -84 -41 -124.5t-110 -40.5z" />
    <glyph glyph-name="f_k.liga" unicode="fk" horiz-adv-x="913" 
d="M121 416h-93v94h93v30q0 85 49 132.5t135 47.5h248v-424h3l212 214h135v-6l-196 -196l203 -302v-6h-128l-152 234l-77 -77v-157h-108v622h-140q-35 0 -56 -21.5t-21 -60.5v-30h124v-94h-124v-416h-107v416z" />
    <glyph glyph-name="f_l.liga" unicode="fl" horiz-adv-x="617" 
d="M121 416h-93v94h93v30q0 85 49 132.5t135 47.5h248v-720h-108v622h-140q-35 0 -56 -21.5t-21 -60.5v-30h124v-94h-124v-416h-107v416z" />
    <glyph glyph-name="f_t.liga" unicode="ft" horiz-adv-x="720" 
d="M601 -8q-35 0 -64 10.5t-49 29.5q-43 41 -43 116v268h-217v-416h-107v416h-93v94h93v42q0 80 49.5 126t125.5 46q36 0 65 -9v-104l-19.5 6.5t-40.5 5.5q-31 0 -52 -21.5t-21 -58.5v-33h217v144h108v-144h125v-94h-125v-245q0 -39 17 -59q16 -19 51 -19q18 0 31 4.5
t29 14.5v-105q-34 -15 -80 -15z" />
    <glyph glyph-name="r_f.liga" unicode="rf" horiz-adv-x="795" 
d="M519 416h-93v94h93v42q0 80 49.5 126t126.5 46q43 0 79 -12v-105q-18 7 -33.5 11.5t-35.5 4.5q-34 0 -56 -21t-22 -59v-33h128v-94h-128v-416h-108v416zM63 510h102v-75h6q19 41 61.5 65t91.5 24q27 0 42 -4v-108q-20 7 -54 7q-64 0 -102.5 -41t-38.5 -111v-267h-108v510
z" />
    <glyph glyph-name="r_f_f.liga" unicode="rff" horiz-adv-x="1116" 
d="M63 510h102v-75h6q19 41 61.5 65t91.5 24q27 0 42 -4v-108q-20 7 -54 7q-64 0 -102.5 -41t-38.5 -111v-267h-108v510zM516 416h-93v94h93v42q0 80 49.5 126t125.5 46q36 0 65 -9v-104l-19.5 6.5t-40.5 5.5q-31 0 -52 -21.5t-21 -58.5v-33h217v42q0 80 49.5 126t126.5 46
q43 0 79 -12v-105q-21 8 -35.5 12t-34.5 4q-33 0 -55 -21t-22 -59v-33h128v-94h-128v-416h-108v416h-217v-416h-107v416z" />
    <glyph glyph-name="r_t.liga" unicode="rt" horiz-adv-x="797" 
d="M678 -8q-35 0 -64 10.5t-48 29.5q-44 41 -44 116v268h-89v94h89v144h108v-144h125v-94h-125v-245q0 -42 16 -59q17 -19 52 -19q18 0 31 4.5t29 14.5v-105q-34 -15 -80 -15zM63 510h102v-75h6q19 41 61.5 65t91.5 24q27 0 42 -4v-108q-20 7 -54 7q-64 0 -102.5 -41
t-38.5 -111v-267h-108v510z" />
    <glyph glyph-name="t_f.liga" unicode="tf" horiz-adv-x="724" 
d="M272 -8q-34 0 -63.5 10.5t-48.5 29.5q-43 41 -43 116v268h-89v94h89v144h108v-144h217v42q0 80 49.5 126t125.5 46q46 0 86 -14l-15 -101q-35 14 -66 14t-52 -21.5t-21 -58.5v-33h128v-94h-128v-416h-107v416h-217v-245q0 -42 16 -59q17 -19 51 -19q15 0 27 4t26 12v-104
q-32 -13 -73 -13z" />
    <glyph glyph-name="t_t.liga" unicode="tt" horiz-adv-x="711" 
d="M272 -8q-34 0 -63.5 10.5t-48.5 29.5q-43 41 -43 116v268h-89v94h89v144h108v-144h211v144h108v-144h125v-94h-125v-245q0 -41 17 -59q17 -19 52 -19q17 0 30 4.5t29 14.5v-105q-34 -15 -80 -15q-35 0 -64 10.5t-49 29.5q-43 41 -43 116v268h-211v-245q0 -42 16 -59
q17 -19 51 -19q15 0 27 4t26 12v-104q-32 -13 -73 -13z" />
    <glyph glyph-name="G_o_o_g_l_e_l_o_g_o_l_i_g_a_t_u" unicode="Googlelogoligature" horiz-adv-x="3284" 
d="M460 -16q-111 0 -207 55.5t-152.5 149.5t-56.5 205t56.5 205t152.5 149.5t207 55.5q163 0 281 -113l-79 -79q-85 80 -202 80q-81 0 -148.5 -40t-106.5 -108.5t-39 -149.5t39 -149.5t106.5 -108.5t148.5 -40q72 0 121.5 23t85.5 59q49 49 61 141h-268v112h377q6 -30 6 -70
q0 -71 -23 -141t-74 -121q-110 -115 -286 -115zM2625 776h116v-776h-116v776zM1148 -16q-72 0 -133 34.5t-96.5 95t-35.5 134.5q0 75 35.5 135.5t96.5 94.5t133 34t133 -34t96.5 -94.5t35.5 -135.5q0 -74 -35.5 -134.5t-96.5 -95t-133 -34.5zM1726 -16q-72 0 -133 34.5
t-96.5 95t-35.5 134.5q0 75 35.5 135.5t96.5 94.5t133 34t133 -34t96.5 -94.5t35.5 -135.5q0 -74 -35.5 -134.5t-96.5 -95t-133 -34.5zM2294 -253q-88 0 -148 47t-86 109l101 42q16 -38 50 -66t83 -28q66 0 103.5 40t37.5 115v38h-4q-21 -26 -57.5 -43t-81.5 -17
q-66 0 -124 35t-93.5 95.5t-35.5 132.5q0 73 35.5 133.5t94 96t123.5 35.5q45 0 81.5 -17t57.5 -42h4v43h110v-474q0 -138 -70.5 -206.5t-180.5 -68.5zM3059 -16q-74 0 -134 35t-94 95.5t-34 133.5q0 77 33.5 137t90.5 93.5t125 33.5q91 0 147 -53t79 -115l12 -30l-353 -146
q41 -80 128 -80q80 0 130 73l90 -60q-30 -45 -85 -81t-135 -36zM3148 354q-10 25 -37 40.5t-61 15.5q-31 0 -64 -18t-54 -53t-20 -83zM1148 88q40 0 74 20.5t54.5 57t20.5 82.5t-20.5 82.5t-54.5 57t-74 20.5t-74 -20.5t-54.5 -57t-20.5 -82.5t20.5 -82.5t54.5 -57t74 -20.5
zM1726 88q40 0 74 20.5t54.5 57t20.5 82.5t-20.5 82.5t-54.5 57t-74 20.5t-74 -20.5t-54.5 -57t-20.5 -82.5t20.5 -82.5t54.5 -57t74 -20.5zM2302 88q39 0 71.5 20.5t51 57t18.5 81.5q0 46 -18.5 82.5t-51 57.5t-71.5 21q-40 0 -73.5 -21t-53.5 -58t-20 -82t20 -81.5
t53.5 -57t73.5 -20.5z" />
    <glyph glyph-name=".notdef" horiz-adv-x="233" 
 />
    <glyph glyph-name=".null" 
 />
    <glyph glyph-name="nonmarkingreturn" horiz-adv-x="250" 
 />
    <glyph glyph-name="space" unicode=" " horiz-adv-x="233" 
 />
    <glyph glyph-name="uni0000.1" 
 />
    <glyph glyph-name="uni000D.1" 
 />
    <glyph glyph-name="uni0002" 
 />
    <glyph glyph-name="nonmarkingreturn.1" 
 />
    <glyph glyph-name="exclam" unicode="!" horiz-adv-x="262" 
d="M77 491v225h108v-225l-11 -263h-87zM131 -6q-32 0 -54 22t-22 53t22 53t54 22t53.5 -21.5t21.5 -53.5q0 -31 -21.5 -53t-53.5 -22z" />
    <glyph glyph-name="quotedbl" unicode="&#x22;" horiz-adv-x="359" 
d="M51 716h98v-223h-98v223zM209 716h98v-223h-98v223z" />
    <glyph glyph-name="numbersign" unicode="#" horiz-adv-x="657" 
d="M150 199h-120l15 86h119l18 123h-121l13 86h120l29 190h92l-29 -190h127l28 190h93l-29 -190h120l-13 -86h-119l-18 -123h121l-14 -86h-120l-30 -199h-93l31 199h-128l-29 -199h-92zM383 284l19 125h-129l-19 -125h129z" />
    <glyph glyph-name="dollar" unicode="$" horiz-adv-x="557" 
d="M511 184q0 -84 -53.5 -134.5t-133.5 -62.5v-87h-80v86q-74 10 -133 58.5t-81 129.5l96 38q12 -46 43.5 -79.5t74.5 -43.5v222q-2 0 -6 2q-86 33 -133.5 82t-47.5 120q0 46 22.5 85.5t65 65.5t99.5 32v86h80v-88q71 -11 114 -50.5t58 -86.5l-93 -41q-7 25 -27 46t-52 30
v-208q92 -38 139.5 -83t47.5 -119zM161 515q0 -31 20 -52.5t63 -42.5v178q-38 -7 -60.5 -29.5t-22.5 -53.5zM324 90q37 9 59 33t22 60q0 32 -19 53t-62 42v-188z" />
    <glyph glyph-name="percent" unicode="%" horiz-adv-x="842" 
d="M213 358q-48 0 -87.5 23t-62.5 62.5t-23 85.5t23 85.5t62.5 62.5t87.5 23t87.5 -23t62.5 -62.5t23 -85.5t-23 -85.5t-62.5 -62.5t-87.5 -23zM165 32l445 663l66 -44l-444 -662zM213 438q37 0 61.5 25.5t24.5 65.5t-24.5 65.5t-61.5 25.5q-36 0 -60.5 -25.5t-24.5 -65.5
q0 -39 24.5 -65t60.5 -26zM629 -16q-48 0 -87.5 23t-62.5 62.5t-23 85.5t23 85.5t62.5 62.5t87.5 23t87.5 -23t62.5 -62.5t23 -85.5t-23 -85.5t-62.5 -62.5t-87.5 -23zM629 64q36 0 61 26t25 65q0 40 -24.5 65.5t-61.5 25.5q-36 0 -60.5 -25.5t-24.5 -65.5q0 -39 24.5 -65
t60.5 -26z" />
    <glyph glyph-name="ampersand" unicode="&#x26;" horiz-adv-x="645" 
d="M535 134l71 -90l-79 -60l-52 65q-70 -65 -169 -65q-73 0 -133 32.5t-94.5 90t-34.5 128.5q0 61 31.5 116.5t87.5 92.5q-23 31 -35.5 59.5t-12.5 58.5q0 47 23.5 86t64 61.5t89.5 22.5q65 0 107.5 -33.5t61.5 -86.5l-89 -47q-24 69 -79 69q-32 0 -52.5 -19.5t-20.5 -51.5
q0 -33 25 -63l228 -288l62 103l81 -50zM309 81q64 0 107 43l-195 246q-35 -23 -55.5 -58t-20.5 -74q0 -45 22 -81t60 -56t82 -20z" />
    <glyph glyph-name="quotesingle" unicode="'" horiz-adv-x="202" 
d="M51 716h98v-223h-98v223z" />
    <glyph glyph-name="parenleft" unicode="(" horiz-adv-x="341" 
d="M241 -136q-72 82 -125 202t-53 256t53 256t125 202l80 -56q-68 -82 -109 -186t-41 -216t41 -216t109 -186z" />
    <glyph glyph-name="parenright" unicode=")" horiz-adv-x="341" 
d="M20 -80q68 82 109 186t41 216t-41 216t-109 186l80 56q72 -82 124.5 -202t52.5 -256t-52.5 -256t-124.5 -202z" />
    <glyph glyph-name="asterisk" unicode="*" horiz-adv-x="445" 
d="M77 410l75 101l-3 8l-110 38l27 78l108 -38l7 2v117h83v-117l6 -2l109 38l27 -78l-110 -38l-3 -8l75 -101l-67 -48l-75 101h-7l-75 -101z" />
    <glyph glyph-name="plus" unicode="+" horiz-adv-x="570" 
d="M508 225h-177v-176h-92v176h-177v92h177v176h92v-176h177v-92z" />
    <glyph glyph-name="comma" unicode="," horiz-adv-x="264" 
d="M51 -86l57 87q-20 6 -35 24.5t-15 43.5q0 32 22 53.5t53 21.5q32 0 54 -22t22 -53q0 -17 -6.5 -32t-20.5 -35l-81 -121z" />
    <glyph glyph-name="hyphen" unicode="-" horiz-adv-x="453" 
d="M62 356h328v-92h-328v92z" />
    <glyph glyph-name="period" unicode="." horiz-adv-x="262" 
d="M131 -6q-32 0 -54 22t-22 53t22 53t54 22t53.5 -21.5t21.5 -53.5q0 -31 -21.5 -53t-53.5 -22z" />
    <glyph glyph-name="slash" unicode="/" horiz-adv-x="323" 
d="M219 716h103l-218 -716h-103z" />
    <glyph glyph-name="zero" unicode="0" horiz-adv-x="660" 
d="M329 -16q-84 0 -147.5 47t-98 128.5t-34.5 182.5t34.5 182.5t98 128.5t147.5 47t148 -47t98.5 -128.5t34.5 -182.5t-34.5 -182.5t-98.5 -128.5t-148 -47zM329 86q53 0 92 33.5t59.5 91.5t20.5 131t-20.5 131.5t-59.5 91.5t-92 33q-52 0 -90.5 -33t-59 -91.5t-20.5 -131.5
t20.5 -131t59 -91.5t90.5 -33.5z" />
    <glyph glyph-name="one" unicode="1" horiz-adv-x="407" 
d="M212 539l-112 -80l-55 83l198 142h77v-684h-108v539z" />
    <glyph glyph-name="two" unicode="2" horiz-adv-x="541" 
d="M48 102q203 202 250 254q44 46 60 75t16 68q0 40 -30.5 69.5t-82.5 29.5q-48 0 -77.5 -27.5t-40.5 -64.5l-97 40q10 36 37.5 71t73.5 59t106 24q65 0 115 -27t77.5 -72t27.5 -99q0 -108 -109 -217q-44 -44 -99.5 -99t-84.5 -85l1 -3h300v-98h-443v102z" />
    <glyph glyph-name="three" unicode="3" horiz-adv-x="552" 
d="M273 -16q-78 0 -143.5 44.5t-90.5 130.5l101 41q14 -54 48.5 -83t84.5 -29q51 0 88 31t37 79t-38.5 79t-97.5 31h-59v99h54q50 0 83.5 26.5t33.5 74.5q0 41 -30.5 66.5t-76.5 25.5t-73.5 -24.5t-39.5 -60.5l-98 41q20 57 73.5 100.5t137.5 43.5q62 0 111.5 -24t77 -66.5
t27.5 -94.5q0 -54 -26 -92t-64 -58v-5q50 -21 82 -64t32 -103t-30.5 -107.5t-83.5 -74.5t-120 -27z" />
    <glyph glyph-name="four" unicode="4" horiz-adv-x="609" 
d="M367 137h-322v84l313 463h116v-447h87v-100h-87v-137h-107v137zM367 237v288h-6l-195 -288h201z" />
    <glyph glyph-name="five" unicode="5" horiz-adv-x="574" 
d="M281 -16q-51 0 -99.5 20.5t-85 62t-51.5 102.5l97 38q14 -56 49.5 -89t88.5 -33q57 0 94.5 36.5t37.5 93.5t-36.5 94.5t-94.5 37.5q-33 0 -61.5 -14.5t-46.5 -39.5l-106 47l41 344h370v-98h-281l-26 -184l6 -1q54 43 125 43q58 0 108 -29t80 -81t30 -118t-31 -119
t-85.5 -83t-122.5 -30z" />
    <glyph glyph-name="six" unicode="6" horiz-adv-x="568" 
d="M285 -16q-70 0 -125 32.5t-85 86.5t-30 115q0 59 23.5 112.5t68.5 118.5l173 253l84 -58l-156 -220l4 -4q31 17 70 17q52 0 101 -29t79 -79.5t30 -113.5t-32.5 -116t-87 -84t-117.5 -31zM284 84q35 0 65.5 17t48.5 46.5t18 66.5t-18 67t-48.5 47t-65.5 17t-65.5 -17
t-48.5 -47t-18 -67t18 -66.5t48.5 -46.5t65.5 -17z" />
    <glyph glyph-name="seven" unicode="7" horiz-adv-x="543" 
d="M78 34l302 545l-2 3h-333v102h453v-108l-327 -592z" />
    <glyph glyph-name="eight" unicode="8" horiz-adv-x="569" 
d="M285 -16q-69 0 -123.5 27t-85.5 74t-31 104t30.5 100.5t79.5 68.5v5q-38 24 -62.5 62.5t-24.5 82.5q0 54 28 98t77.5 69t111.5 25q61 0 110.5 -25t77.5 -69t28 -98q0 -44 -24 -82.5t-62 -62.5v-5q48 -25 78.5 -68.5t30.5 -100.5t-31 -104t-85.5 -74t-122.5 -27zM285 406
q47 0 78.5 27.5t31.5 71.5t-31.5 70t-78.5 26q-48 0 -79.5 -26t-31.5 -70t31.5 -71.5t79.5 -27.5zM285 85q56 0 93 31.5t37 81.5q0 49 -37 80t-93 31t-93.5 -31t-37.5 -80q0 -50 37.5 -81.5t93.5 -31.5z" />
    <glyph glyph-name="nine" unicode="9" horiz-adv-x="568" 
d="M174 40l156 220l-4 4q-31 -17 -70 -17q-52 0 -101 29t-79.5 79.5t-30.5 113.5t32.5 116t87 84t117.5 31q71 0 125.5 -32.5t84.5 -86.5t30 -115q0 -59 -23.5 -112.5t-68.5 -118.5l-172 -253zM284 339q35 0 65.5 17t48.5 47t18 67t-18 66.5t-48.5 46.5t-65.5 17t-65.5 -17
t-48.5 -46.5t-18 -66.5t18 -67t48.5 -47t65.5 -17z" />
    <glyph glyph-name="colon" unicode=":" horiz-adv-x="262" 
d="M131 369q-32 0 -54 22t-22 53t22 53t54 22t53.5 -21.5t21.5 -53.5q0 -31 -21.5 -53t-53.5 -22zM131 -6q-32 0 -54 22t-22 53t22 53t54 22t53.5 -21.5t21.5 -53.5q0 -31 -21.5 -53t-53.5 -22z" />
    <glyph glyph-name="semicolon" unicode=";" horiz-adv-x="267" 
d="M135 369q-31 0 -53 22t-22 53q0 32 22 53.5t53 21.5q32 0 53.5 -21.5t21.5 -53.5q0 -31 -21.5 -53t-53.5 -22zM54 -75l57 87q-21 6 -35.5 24.5t-14.5 43.5q0 32 22 53.5t53 21.5q32 0 53.5 -21.5t21.5 -53.5q0 -17 -6.5 -32t-20.5 -35l-80 -121z" />
    <glyph glyph-name="less" unicode="&#x3c;" horiz-adv-x="514" 
d="M55 230v82l399 188v-103l-276 -123v-6l276 -123v-103z" />
    <glyph glyph-name="equal" unicode="=" horiz-adv-x="581" 
d="M62 463h457v-93h-457v93zM62 268h457v-93h-457v93z" />
    <glyph glyph-name="greater" unicode="&#x3e;" horiz-adv-x="514" 
d="M59 145l276 123v6l-276 123v103l399 -188v-82l-399 -188v103z" />
    <glyph glyph-name="question" unicode="?" horiz-adv-x="517" 
d="M199 269q0 49 19.5 83t69.5 79q35 31 50.5 54t15.5 55q0 39 -27 64.5t-74 25.5q-45 0 -72.5 -25.5t-40.5 -64.5l-96 40q20 60 73 106t135 46q61 0 108.5 -25t74 -68t26.5 -96t-25 -91.5t-67 -77.5q-34 -31 -47.5 -56t-13.5 -61v-29h-109v41zM253 -6q-31 0 -53 22t-22 53
q0 32 22 53.5t53 21.5t52.5 -22t21.5 -53t-21.5 -53t-52.5 -22z" />
    <glyph glyph-name="at" unicode="@" horiz-adv-x="890" 
d="M447 -82q-111 0 -201 51.5t-141.5 140t-51.5 194.5q0 105 51.5 193.5t141.5 140.5t201 52t200 -51.5t139.5 -139.5t50.5 -193q0 -92 -41 -151t-113 -59q-38 0 -68.5 20t-46.5 54q-23 -36 -58.5 -55t-81.5 -19q-54 0 -98 26t-70 72.5t-26 105.5q0 58 26 105t69.5 73
t94.5 26q37 0 68 -15.5t52 -41.5h6v43h82v-254q0 -28 14.5 -47.5t41.5 -19.5q36 0 52 40t16 97q0 82 -40.5 152t-111.5 111.5t-157 41.5t-156.5 -39.5t-111.5 -110t-41 -157.5t42 -157t113 -110t154 -40q73 0 130 30l30 -75q-73 -34 -160 -34zM435 179q47 0 80 33t33 88
t-33 88t-80 33t-80.5 -33t-33.5 -88q0 -54 33.5 -87.5t80.5 -33.5z" />
    <glyph glyph-name="A" unicode="A" horiz-adv-x="696" 
d="M285 716h125l271 -716h-121l-66 184h-292l-66 -184h-121zM458 286l-80 219l-27 82h-6l-27 -82l-80 -219h220z" />
    <glyph glyph-name="B" unicode="B" horiz-adv-x="626" 
d="M81 716h268q57 0 106 -25t77.5 -68.5t28.5 -96.5t-26.5 -92.5t-70.5 -60.5v-5q56 -19 89 -63t33 -104q0 -59 -30.5 -104.5t-82 -71t-112.5 -25.5h-280v716zM344 415q50 0 80 30.5t30 70.5t-29.5 69.5t-76.5 29.5h-157v-200h153zM361 102q52 0 83.5 31.5t31.5 75.5
t-32.5 76t-86.5 32h-166v-215h170z" />
    <glyph glyph-name="C" unicode="C" horiz-adv-x="745" 
d="M418 -16q-104 0 -189.5 49t-134.5 135t-49 190t49 190t134.5 135t189.5 49q161 0 265 -117l-77 -75q-37 44 -82.5 66t-104.5 22q-73 0 -133 -33.5t-95 -95t-35 -141.5t35 -141.5t95 -95t133 -33.5q122 0 205 101l79 -76q-52 -61 -125 -95t-160 -34z" />
    <glyph glyph-name="D" unicode="D" horiz-adv-x="720" 
d="M81 716h229q111 0 193.5 -45t127 -126.5t44.5 -186.5t-44.5 -186.5t-127 -126.5t-193.5 -45h-229v716zM307 104q122 0 189.5 67.5t67.5 186.5t-67.5 186.5t-189.5 67.5h-116v-508h116z" />
    <glyph glyph-name="E" unicode="E" horiz-adv-x="572" 
d="M81 716h434v-104h-324v-202h292v-104h-292v-202h324v-104h-434v716z" />
    <glyph glyph-name="F" unicode="F" horiz-adv-x="552" 
d="M81 716h434v-104h-324v-210h292v-104h-292v-298h-110v716z" />
    <glyph glyph-name="G" unicode="G" horiz-adv-x="819" 
d="M420 -16q-102 0 -188 49t-136.5 134.5t-50.5 190.5t50.5 190.5t136.5 134.5t188 49q82 0 151 -29t117 -81l-76 -76q-73 82 -192 82q-70 0 -131 -33.5t-97 -95.5t-36 -141q0 -80 36.5 -141.5t97 -95t131.5 -33.5q113 0 184 71q23 22 38.5 56t21.5 75h-246v97h348
q6 -34 6 -58q0 -68 -21.5 -129.5t-66.5 -108.5q-48 -52 -115 -79.5t-150 -27.5z" />
    <glyph glyph-name="H" unicode="H" horiz-adv-x="716" 
d="M81 716h110v-298h335v298h109v-716h-109v314h-335v-314h-110v716z" />
    <glyph glyph-name="I" unicode="I" horiz-adv-x="271" 
d="M81 716h110v-716h-110v716z" />
    <glyph glyph-name="J" unicode="J" horiz-adv-x="549" 
d="M255 -16q-82 0 -143 44.5t-86 124.5l102 42q16 -55 49 -81t78 -26q53 0 84 36t31 96v496h110v-492q0 -76 -29 -130t-80 -82t-116 -28z" />
    <glyph glyph-name="K" unicode="K" horiz-adv-x="654" 
d="M81 716h110v-342h6l292 342h136v-6l-262 -301l285 -403v-6h-134l-226 323l-97 -113v-210h-110v716z" />
    <glyph glyph-name="L" unicode="L" horiz-adv-x="530" 
d="M81 716h110v-612h308v-104h-418v716z" />
    <glyph glyph-name="M" unicode="M" horiz-adv-x="883" 
d="M81 716h148l209 -545h6l210 545h148v-716h-108v405l6 127h-6l-209 -532h-87l-209 532h-6l6 -127v-405h-108v716z" />
    <glyph glyph-name="N" unicode="N" horiz-adv-x="725" 
d="M81 716h130l324 -526h6l-6 138v388h109v-716h-114l-340 553h-6l6 -138v-415h-109v716z" />
    <glyph glyph-name="O" unicode="O" horiz-adv-x="832" 
d="M416 -16q-104 0 -189 50t-133.5 135.5t-48.5 188.5t48.5 188.5t133.5 135.5t189 50t188.5 -50t133 -135.5t48.5 -188.5t-48.5 -188.5t-133 -135.5t-188.5 -50zM416 88q72 0 131.5 34.5t94 96t34.5 139.5t-34.5 139.5t-94 96t-131.5 34.5t-131.5 -34.5t-94 -96
t-34.5 -139.5t34.5 -139.5t94 -96t131.5 -34.5z" />
    <glyph glyph-name="P" unicode="P" horiz-adv-x="593" 
d="M81 716h246q64 0 117.5 -28t85 -78t31.5 -113t-31.5 -113t-85 -78t-117.5 -28h-136v-278h-110v716zM330 382q55 0 88.5 34.5t33.5 80.5t-33.5 80.5t-88.5 34.5h-139v-230h139z" />
    <glyph glyph-name="Q" unicode="Q" horiz-adv-x="832" 
d="M581 22q-78 -38 -165 -38q-104 0 -189 50t-133.5 135.5t-48.5 188.5t48.5 188.5t133.5 135.5t189 50t188.5 -50t133 -135.5t48.5 -188.5q0 -84 -32 -157t-90 -124l52 -78l-82 -55zM416 88q54 0 105 23l-82 124l82 56l83 -123q34 35 53 83.5t19 106.5q0 78 -34.5 139.5
t-94 96t-131.5 34.5t-131.5 -34.5t-94 -96t-34.5 -139.5t34.5 -139.5t94 -96t131.5 -34.5z" />
    <glyph glyph-name="R" unicode="R" horiz-adv-x="610" 
d="M81 716h251q65 0 117.5 -28t83 -78t30.5 -113q0 -72 -46.5 -127.5t-116.5 -74.5l-1 -5l197 -284v-6h-127l-191 281h-87v-281h-110v716zM329 382q52 0 87.5 33t35.5 83q0 46 -32.5 80.5t-86.5 34.5h-142v-231h138z" />
    <glyph glyph-name="S" unicode="S" horiz-adv-x="575" 
d="M289 -16q-89 0 -160 52t-99 146l104 42q16 -60 57 -98t99 -38q54 0 91.5 28t37.5 77q0 45 -33 74.5t-114 57.5l-45 16q-73 26 -121.5 72.5t-48.5 123.5q0 53 28.5 98t80 71t116.5 26q93 0 149 -45.5t76 -102.5l-99 -42q-10 36 -42 62t-83 26q-49 0 -83 -26t-34 -66
q0 -37 30.5 -61.5t94.5 -46.5l46 -16q92 -32 142 -83t50 -136q0 -70 -35.5 -117.5t-91 -70.5t-113.5 -23z" />
    <glyph glyph-name="T" unicode="T" horiz-adv-x="563" 
d="M227 612h-201v104h511v-104h-200v-612h-110v612z" />
    <glyph glyph-name="U" unicode="U" horiz-adv-x="673" 
d="M336 -16q-80 0 -141.5 36t-95 102t-33.5 153v441h109v-447q0 -81 42 -131t119 -50q78 0 120 50t42 131v447h109v-441q0 -86 -33 -152t-94 -102.5t-144 -36.5z" />
    <glyph glyph-name="V" unicode="V" horiz-adv-x="657" 
d="M14 716h120l162 -476l25 -81h6l27 81l169 476h120l-261 -716h-114z" />
    <glyph glyph-name="W" unicode="W" horiz-adv-x="964" 
d="M17 716h122l114 -465l12 -62h6l15 62l144 465h110l138 -465l15 -61h6l12 61l114 465h121l-189 -716h-116l-137 475l-16 67h-6l-17 -67l-143 -475h-113z" />
    <glyph glyph-name="X" unicode="X" horiz-adv-x="662" 
d="M257 372l-223 344h135l159 -257h6l160 257h134l-223 -344l239 -372h-134l-176 279h-6l-176 -279h-134z" />
    <glyph glyph-name="Y" unicode="Y" horiz-adv-x="618" 
d="M257 332l-242 384h130l163 -269h6l159 269h131l-238 -384v-332h-109v332z" />
    <glyph glyph-name="Z" unicode="Z" horiz-adv-x="591" 
d="M38 112l375 500h-359v104h486v-112l-372 -500h376v-104h-506v112z" />
    <glyph glyph-name="bracketleft" unicode="[" horiz-adv-x="342" 
d="M81 792h224v-89h-122v-738h122v-89h-224v916z" />
    <glyph glyph-name="backslash" unicode="\" horiz-adv-x="323" 
d="M1 716h103l218 -716h-103z" />
    <glyph glyph-name="bracketright" unicode="]" horiz-adv-x="342" 
d="M37 -35h123v738h-123v89h225v-916h-225v89z" />
    <glyph glyph-name="asciicircum" unicode="^" horiz-adv-x="490" 
d="M201 716h88l189 -306h-113l-117 203h-6l-118 -203h-112z" />
    <glyph glyph-name="underscore" unicode="_" horiz-adv-x="487" 
d="M0 -123h487v-93h-487v93z" />
    <glyph glyph-name="grave" unicode="`" horiz-adv-x="420" 
d="M97 720h123l47 -131h-91z" />
    <glyph glyph-name="a" unicode="a" horiz-adv-x="546" 
d="M223 -16q-55 0 -98 21.5t-67 60.5t-24 89q0 53 28 91.5t76 59t107 20.5q45 0 81.5 -8.5t58.5 -19.5v27q0 49 -36 79.5t-93 30.5q-39 0 -74 -17.5t-56 -47.5l-74 57q33 47 87.5 73t119.5 26q110 0 170.5 -54.5t60.5 -152.5v-319h-105v63h-6q-22 -34 -63 -56.5t-93 -22.5z
M242 72q40 0 73 19.5t51.5 52.5t18.5 71q-24 14 -55 22t-65 8q-63 0 -92.5 -25t-29.5 -66q0 -36 27 -59t72 -23z" />
    <glyph glyph-name="b" unicode="b" horiz-adv-x="616" 
d="M335 -16q-55 0 -98.5 24.5t-65.5 59.5h-6v-68h-102v716h108v-204l-6 -71h6q22 36 65.5 60.5t98.5 24.5q69 0 125 -35t88 -96.5t32 -139.5t-32 -140t-88 -96.5t-125 -34.5zM319 83q41 0 76.5 21.5t56.5 60.5t21 90t-21 90t-56.5 60.5t-76.5 21.5q-40 0 -75.5 -21.5
t-57 -60.5t-21.5 -90t21.5 -90t57 -60.5t75.5 -21.5z" />
    <glyph glyph-name="c" unicode="c" horiz-adv-x="559" 
d="M299 -16q-76 0 -136 35t-93.5 96.5t-33.5 139.5t33.5 139.5t93.5 96.5t136 35q84 0 142.5 -37.5t84.5 -103.5l-98 -40q-36 82 -131 82q-42 0 -77.5 -21.5t-56 -60.5t-20.5 -90t20.5 -90t56 -60.5t77.5 -21.5q48 0 82.5 21.5t53.5 62.5l97 -42q-30 -65 -89 -103t-142 -38z
" />
    <glyph glyph-name="d" unicode="d" horiz-adv-x="616" 
d="M281 -16q-69 0 -125 34.5t-88 96.5t-32 140t32 139.5t88 96.5t125 35q56 0 99 -24.5t65 -60.5h6l-6 71v204h107v-716h-101v68h-6q-22 -35 -65 -59.5t-99 -24.5zM297 83q40 0 75.5 21.5t57 60.5t21.5 90t-21.5 90t-57 60.5t-75.5 21.5t-75.5 -21.5t-57 -60.5t-21.5 -90
t21.5 -90t57 -60.5t75.5 -21.5z" />
    <glyph glyph-name="e" unicode="e" horiz-adv-x="575" 
d="M296 -16q-74 0 -133.5 35t-93 96.5t-33.5 138.5q0 73 32.5 135.5t90.5 99.5t131 37q77 0 133 -33.5t85.5 -92.5t29.5 -134q0 -20 -2 -34h-394q7 -73 52 -112.5t105 -39.5q49 0 84 22.5t56 59.5l89 -43q-35 -63 -93 -99t-139 -36zM431 313q-2 28 -18 56t-46.5 46.5
t-75.5 18.5q-54 0 -91.5 -33t-51.5 -88h283z" />
    <glyph glyph-name="f" unicode="f" horiz-adv-x="396" 
d="M121 416h-93v94h93v42q0 80 49.5 126t125.5 46q43 0 79 -12v-105q-18 7 -34 11.5t-36 4.5q-33 0 -55 -21t-22 -59v-33h128v-94h-128v-416h-107v416z" />
    <glyph glyph-name="g" unicode="g" horiz-adv-x="610" 
d="M293 -232q-93 0 -154.5 42.5t-82.5 102.5l100 42q16 -41 52.5 -66t84.5 -25q71 0 111 42t40 119v49h-6q-25 -37 -67 -58t-96 -21q-65 0 -119.5 33t-87 93.5t-32.5 138.5t32.5 138.5t87 94t119.5 33.5q53 0 95.5 -21.5t67.5 -58.5h6v64h103v-483q0 -82 -32 -140.5
t-89.5 -88.5t-132.5 -30zM294 93q41 0 75 20t54.5 57.5t20.5 89.5q0 53 -20.5 91t-54.5 57.5t-75 19.5t-75.5 -19.5t-55 -57.5t-20.5 -91q0 -52 20.5 -90t55 -57.5t75.5 -19.5z" />
    <glyph glyph-name="h" unicode="h" horiz-adv-x="583" 
d="M63 716h108v-196l-6 -80h6q22 38 65.5 62t95.5 24q93 0 142 -55.5t49 -148.5v-322h-107v308q0 59 -31.5 89t-80.5 30q-37 0 -67.5 -21.5t-48 -57.5t-17.5 -76v-272h-108v716z" />
    <glyph glyph-name="i" unicode="i" horiz-adv-x="250" 
d="M125 585q-30 0 -51.5 21.5t-21.5 51.5t21.5 51t51.5 21t51.5 -21t21.5 -51t-21.5 -51.5t-51.5 -21.5zM71 510h108v-510h-108v510z" />
    <glyph glyph-name="j" unicode="j" horiz-adv-x="250" 
d="M125 585q-30 0 -51.5 21.5t-21.5 51.5t21.5 51t51.5 21t51.5 -21t21.5 -51t-21.5 -51.5t-51.5 -21.5zM28 -226q-31 0 -56 7v104q24 -13 47 -13q28 0 40 17t12 51v570h108v-571q0 -84 -41 -124.5t-110 -40.5z" />
    <glyph glyph-name="k" unicode="k" horiz-adv-x="532" 
d="M63 716h108v-420h4l212 214h134v-6l-197 -196l204 -302v-6h-128l-152 234l-77 -77v-157h-108v716z" />
    <glyph glyph-name="l" unicode="l" horiz-adv-x="235" 
d="M63 716h108v-716h-108v716z" />
    <glyph glyph-name="m" unicode="m" horiz-adv-x="893" 
d="M63 510h102v-70h6q23 38 65 62t92 24q55 0 95.5 -26t58.5 -69q27 43 70.5 69t102.5 26q88 0 133 -53.5t45 -145.5v-327h-107v309q0 118 -100 118q-55 0 -89.5 -44t-34.5 -110v-273h-107v309q0 118 -103 118q-53 0 -87 -44.5t-34 -110.5v-272h-108v510z" />
    <glyph glyph-name="n" unicode="n" horiz-adv-x="580" 
d="M63 510h102v-70h6q22 38 66 62t95 24q92 0 140 -54.5t48 -149.5v-322h-107v308q0 60 -30 89.5t-82 29.5q-38 0 -67.5 -21t-46 -56t-16.5 -76v-274h-108v510z" />
    <glyph glyph-name="o" unicode="o" horiz-adv-x="605" 
d="M303 -16q-77 0 -138 35.5t-95 97.5t-34 138t34 138t95 97.5t138 35.5q76 0 137 -36t95 -98t34 -137q0 -76 -34 -138t-94.5 -97.5t-137.5 -35.5zM303 83q43 0 79 21t58 60t22 91t-22 91t-58 60t-79 21t-79.5 -21t-58.5 -60t-22 -91t22 -91t58.5 -60t79.5 -21z" />
    <glyph glyph-name="p" unicode="p" horiz-adv-x="612" 
d="M59 510h102v-69h6q22 36 65.5 60.5t98.5 24.5q69 0 125 -35t88 -96.5t32 -139.5t-32 -140t-88 -96.5t-125 -34.5q-55 0 -98.5 24.5t-65.5 59.5h-6l6 -71v-213h-108v726zM315 83q41 0 76.5 21.5t56.5 60.5t21 90t-21 90t-56.5 60.5t-76.5 21.5q-40 0 -75.5 -21.5
t-57 -60.5t-21.5 -90t21.5 -90t57 -60.5t75.5 -21.5z" />
    <glyph glyph-name="q" unicode="q" horiz-adv-x="612" 
d="M445 -3l6 71h-6q-22 -35 -65 -59.5t-99 -24.5q-69 0 -125 34.5t-88 96.5t-32 140t32 139.5t88 96.5t125 35q56 0 99 -24.5t65 -60.5h6v69h101v-726h-107v213zM297 83q40 0 75.5 21.5t57 60.5t21.5 90t-21.5 90t-57 60.5t-75.5 21.5t-75.5 -21.5t-57 -60.5t-21.5 -90
t21.5 -90t57 -60.5t75.5 -21.5z" />
    <glyph glyph-name="r" unicode="r" horiz-adv-x="401" 
d="M63 510h102v-75h6q17 39 58.5 64.5t89.5 25.5q35 0 62 -10v-112q-41 18 -79 18q-57 0 -94 -44t-37 -107v-270h-108v510z" />
    <glyph glyph-name="s" unicode="s" horiz-adv-x="489" 
d="M249 -16q-87 0 -143.5 38t-79.5 99l97 42q18 -41 51 -62.5t75 -21.5q43 0 72 15.5t29 46.5q0 28 -24.5 44.5t-76.5 28.5l-61 14q-61 15 -101 53t-40 96q0 44 26.5 78t71 52.5t97.5 18.5q72 0 125.5 -28t77.5 -82l-93 -42q-31 61 -109 61q-38 0 -63.5 -16t-25.5 -40
q0 -45 78 -65l74 -18q75 -19 113.5 -57t38.5 -94q0 -48 -27.5 -84.5t-75.5 -56.5t-106 -20z" />
    <glyph glyph-name="t" unicode="t" horiz-adv-x="392" 
d="M272 -8q-34 0 -63.5 10.5t-48.5 29.5q-43 41 -43 116v268h-89v94h89v144h108v-144h125v-94h-125v-245q0 -42 16 -59q17 -19 52 -19q18 0 31 4.5t29 14.5v-105q-34 -15 -81 -15z" />
    <glyph glyph-name="u" unicode="u" horiz-adv-x="580" 
d="M248 -16q-92 0 -140.5 55.5t-48.5 154.5v316h108v-301q0 -62 29 -94t78 -32q40 0 71 21t47.5 56t16.5 76v274h107v-510h-101v69h-6q-22 -37 -66 -61t-95 -24z" />
    <glyph glyph-name="v" unicode="v" horiz-adv-x="546" 
d="M7 510h120l143 -371h5l146 371h118l-213 -510h-108z" />
    <glyph glyph-name="w" unicode="w" horiz-adv-x="805" 
d="M7 510h117l105 -367h4l115 367h111l115 -367h4l105 367h115l-164 -510h-113l-118 369h-4l-117 -369h-112z" />
    <glyph glyph-name="x" unicode="x" horiz-adv-x="511" 
d="M192 259l-176 251h125l114 -168h3l109 168h130l-179 -251l180 -259h-126l-116 173h-3l-113 -173h-127z" />
    <glyph glyph-name="y" unicode="y" horiz-adv-x="547" 
d="M221 28l-213 482h120l146 -348h5l141 348h119l-315 -726h-115z" />
    <glyph glyph-name="z" unicode="z" horiz-adv-x="499" 
d="M37 90l284 326h-275v94h407v-90l-283 -326h291v-94h-424v90z" />
    <glyph glyph-name="braceleft" unicode="{" horiz-adv-x="325" 
d="M265 -124q-80 0 -126 47t-46 126v165q0 36 -20 55.5t-50 19.5v90q30 0 50 19.5t20 55.5v165q0 79 46 126t126 47h28v-89h-18q-35 0 -57.5 -24t-22.5 -64v-161q0 -49 -16.5 -77.5t-52.5 -39.5v-6q36 -11 52.5 -39t16.5 -78v-161q0 -40 22.5 -64t57.5 -24h18v-89h-28z" />
    <glyph glyph-name="bar" unicode="|" horiz-adv-x="260" 
d="M81 792h98v-912h-98v912z" />
    <glyph glyph-name="braceright" unicode="}" horiz-adv-x="325" 
d="M31 -35h20q35 0 57 24t22 64v161q0 50 16.5 78t52.5 39v6q-36 11 -52.5 39.5t-16.5 77.5v161q0 40 -22 64t-57 24h-20v89h29q80 0 126 -47t46 -126v-165q0 -36 19.5 -55.5t49.5 -19.5v-90q-30 0 -49.5 -19.5t-19.5 -55.5v-165q0 -79 -46 -126t-126 -47h-29v89z" />
    <glyph glyph-name="asciitilde" unicode="~" horiz-adv-x="550" 
d="M386 230q-26 0 -55 9t-68 26q-31 14 -52.5 21t-37.5 7q-23 0 -35.5 -14t-14.5 -35h-86q0 64 36 103t90 39q28 0 57 -9.5t70 -26.5q32 -14 52 -20.5t36 -6.5q23 0 35.5 14t14.5 35h85q0 -64 -36 -103t-91 -39z" />
    <glyph glyph-name="uni00A0" unicode="&#xa0;" horiz-adv-x="233" 
 />
    <glyph glyph-name="exclamdown" unicode="&#xa1;" horiz-adv-x="262" 
d="M131 375q-31 0 -53.5 22.5t-22.5 53.5t22 53t54 22t53.5 -21.5t21.5 -53.5t-22 -54t-53 -22zM77 9l10 278h87l11 -278v-225h-108v225z" />
    <glyph glyph-name="cent" unicode="&#xa2;" horiz-adv-x="542" 
d="M512 223q-26 -55 -72.5 -92t-112.5 -46v-85h-79v86q-62 9 -110 44.5t-75 90.5t-27 121q0 67 27 121.5t75 90t110 44.5v86h79v-85q65 -9 111 -45.5t71 -91.5l-93 -38q-29 65 -89 80v-324q66 15 97 82zM138 342q0 -61 31 -104.5t79 -57.5v324q-48 -14 -79 -57.5t-31 -104.5
z" />
    <glyph glyph-name="sterling" unicode="&#xa3;" horiz-adv-x="537" 
d="M517 121q-41 -121 -165 -121h-314v89q48 20 73 58.5t25 81.5q0 11 -1 17h-95v85h62q-5 8 -24 39.5t-29 64.5t-10 67q0 53 26.5 98.5t74 72.5t108.5 27q83 0 133.5 -42.5t69.5 -101.5l-96 -40q-10 37 -36.5 61.5t-70.5 24.5q-48 0 -76.5 -30.5t-28.5 -72.5
q0 -33 11.5 -59.5t34.5 -65.5q12 -19 25 -43h135v-85h-113v-2q0 -42 -15 -78t-42 -63l5 -5h167q33 0 52 15t28 44z" />
    <glyph glyph-name="currency" unicode="&#xa4;" horiz-adv-x="619" 
d="M69 146l59 58q-36 57 -36 121q0 65 36 121l-59 59l56 56l59 -57q56 40 126 40q69 0 125 -40l59 57l56 -56l-58 -58q35 -56 35 -122q0 -65 -35 -121l58 -58l-56 -57l-59 57q-56 -40 -125 -40q-70 0 -126 40l-59 -57zM310 194q52 0 88.5 38t36.5 93t-36.5 93t-88.5 38
t-88.5 -38t-36.5 -93t36.5 -93t88.5 -38z" />
    <glyph glyph-name="yen" unicode="&#xa5;" horiz-adv-x="605" 
d="M250 151h-168v93h168v74h-168v93h109l-176 273h129l126 -211l32 -62h6l30 62l123 211h129l-172 -273h106v-93h-165v-74h165v-93h-165v-151h-109v151z" />
    <glyph glyph-name="brokenbar" unicode="&#xa6;" horiz-adv-x="260" 
d="M81 756h98v-380h-98v380zM81 292h98v-412h-98v412z" />
    <glyph glyph-name="section" unicode="&#xa7;" horiz-adv-x="561" 
d="M448 101q63 -55 63 -139q0 -59 -31.5 -103t-83.5 -67.5t-111 -23.5q-86 0 -151 52.5t-86 140.5l99 39q16 -60 52 -96t88 -36q49 0 82.5 26.5t33.5 67.5q0 44 -35 71t-117 53l-12 4q-169 55 -169 182q0 42 21 77.5t59 60.5q-81 55 -81 142q0 47 26.5 88.5t74.5 66.5
t111 25q57 0 101 -22.5t71.5 -57t37.5 -68.5l-98 -40q-9 35 -38.5 61.5t-73.5 26.5t-74 -24t-30 -55q0 -33 27 -54t92 -43q6 -2 14 -4q99 -32 151 -80t52 -131q0 -44 -17.5 -80t-47.5 -60zM290 179q8 -4 22 -7q27 -8 55 -21q17 15 28 37.5t11 43.5q0 48 -35 77.5t-116 54.5
q-14 5 -16 5q-29 -13 -47 -37.5t-18 -51.5q0 -35 28 -58.5t88 -42.5z" />
    <glyph glyph-name="dieresis" unicode="&#xa8;" horiz-adv-x="422" 
d="M122 596q-25 0 -43.5 19t-18.5 44q0 26 18 44.5t44 18.5q27 0 44.5 -18t17.5 -45q0 -25 -18 -44t-44 -19zM299 596q-25 0 -43.5 19t-18.5 44q0 26 18.5 44.5t43.5 18.5q27 0 45 -18.5t18 -44.5q0 -25 -18.5 -44t-44.5 -19z" />
    <glyph glyph-name="copyright" unicode="&#xa9;" horiz-adv-x="531" 
d="M265 272q-62 0 -115 31t-84 84t-31 115t31 115t84 84t115 31t115 -31t84 -84t31 -115t-31 -115t-84 -84t-115 -31zM265 319q50 0 92.5 25t67 67t24.5 91q0 50 -24.5 92t-67 66.5t-92.5 24.5q-49 0 -91 -24.5t-67 -66.5t-25 -92q0 -49 25 -91t67 -67t91 -25zM269 383
q-50 0 -84 35t-34 84q0 50 34 84.5t84 34.5q28 0 48 -10t39 -29l-31 -28q-12 13 -24 18.5t-32 5.5q-29 0 -51 -22t-22 -54t22 -54t51 -22q37 0 61 31l33 -26q-36 -48 -94 -48z" />
    <glyph glyph-name="ordfeminine" unicode="&#xaa;" horiz-adv-x="484" 
d="M206 272q-45 0 -83 18.5t-60 52t-22 76.5q0 45 25 78.5t67 51t91 17.5q69 0 123 -28v15q0 44 -30 70t-76 26q-72 0 -101 -54l-83 42q21 42 68.5 68.5t113.5 26.5q92 0 148.5 -48.5t56.5 -137.5v-260h-97v56h-6q-21 -32 -56 -51t-79 -19zM224 352q32 0 60 15.5t45.5 41.5
t17.5 57q-24 12 -45.5 19.5t-55.5 7.5q-52 0 -78 -21t-26 -55q0 -30 24 -47.5t58 -17.5z" />
    <glyph glyph-name="guillemotleft" unicode="&#xab;" horiz-adv-x="579" 
d="M38 271l206 223l63 -57l-156 -166l156 -166l-63 -57zM249 271l206 223l63 -57l-156 -166l156 -166l-63 -57z" />
    <glyph glyph-name="logicalnot" unicode="&#xac;" horiz-adv-x="592" 
d="M413 301h-358v92h449v-288h-91v196z" />
    <glyph glyph-name="uni00AD" unicode="&#xad;" horiz-adv-x="453" 
d="M62 356h328v-92h-328v92z" />
    <glyph glyph-name="registered" unicode="&#xae;" horiz-adv-x="531" 
d="M265 272q-62 0 -115 31t-84 84t-31 115t31 115t84 84t115 31t115 -31t84 -84t31 -115t-31 -115t-84 -84t-115 -31zM265 319q50 0 92.5 25t67 67t24.5 91q0 50 -24.5 92t-67 66.5t-92.5 24.5q-49 0 -91 -24.5t-67 -66.5t-25 -92q0 -49 25 -91t67 -67t91 -25zM189 615h95
q29 0 51 -21t22 -51q0 -23 -14.5 -41t-35.5 -24l-2 -2l60 -85v-2h-50l-56 85h-25v-85h-45v226zM280 514q13 0 23 8t10 21q0 11 -9 20t-23 9h-47v-58h46z" />
    <glyph glyph-name="macron" unicode="&#xaf;" horiz-adv-x="407" 
d="M61 700h286v-82h-286v82z" />
    <glyph glyph-name="degree" unicode="&#xb0;" horiz-adv-x="324" 
d="M162 442q-35 0 -65.5 17.5t-48 47t-17.5 64.5t17.5 65t48 47t65.5 17t65 -17t47.5 -47t17.5 -65t-17.5 -64.5t-47.5 -47t-65 -17.5zM162 510q25 0 42 18t17 43q0 26 -17 43.5t-42 17.5t-42 -17.5t-17 -43.5q0 -25 17 -43t42 -18z" />
    <glyph glyph-name="plusminus" unicode="&#xb1;" horiz-adv-x="556" 
d="M232 307h-177v89h177v149h92v-149h177v-89h-177v-149h-92v149zM55 93h446v-93h-446v93z" />
    <glyph glyph-name="uni00B2" unicode="&#xb2;" horiz-adv-x="309" 
d="M25 409q122 123 132 132q21 21 32 37t11 35q0 17 -14 29.5t-35 12.5q-22 0 -37.5 -13.5t-21.5 -41.5l-70 28q10 44 45.5 70t82.5 26q53 0 90 -29.5t37 -77.5q0 -31 -18 -58.5t-44 -53.5q-20 -21 -86 -86h150v-69h-254v59z" />
    <glyph glyph-name="uni00B3" unicode="&#xb3;" horiz-adv-x="328" 
d="M160 342q-50 0 -87.5 25t-50.5 75l72 26q7 -30 25 -44t41 -14t40 14t17 37q0 22 -17 35t-43 13h-40v62h35q24 0 38.5 12t14.5 33q0 18 -13.5 29t-32.5 11q-43 0 -57 -41l-67 27q13 38 45 60t80 22q54 0 88 -29.5t34 -74.5q0 -48 -45 -77q57 -31 57 -84t-39.5 -85
t-94.5 -32z" />
    <glyph glyph-name="acute" unicode="&#xb4;" horiz-adv-x="420" 
d="M201 720h122l-80 -131h-89z" />
    <glyph glyph-name="mu" unicode="&#xb5;" horiz-adv-x="580" 
d="M59 510h108v-301q0 -62 29.5 -94t77.5 -32q40 0 71 21t47.5 56t16.5 76v274h107v-510h-101v64h-6q-22 -36 -62 -58t-89 -22q-26 0 -50.5 9.5t-40.5 25.5h-6l6 -63v-172h-108v726z" />
    <glyph glyph-name="paragraph" unicode="&#xb6;" horiz-adv-x="628" 
d="M283 296h-35q-61 0 -112.5 25.5t-82 73.5t-30.5 111t30.5 111t82 73.5t112.5 25.5h301v-932h-93v838h-80v-838h-93v512z" />
    <glyph glyph-name="periodcentered" unicode="&#xb7;" horiz-adv-x="206" 
d="M103 249q-31 0 -53 22t-22 53q0 32 22 53.5t53 21.5q32 0 53.5 -21.5t21.5 -53.5q0 -31 -21.5 -53t-53.5 -22z" />
    <glyph glyph-name="cedilla" unicode="&#xb8;" horiz-adv-x="407" 
d="M168 -237q-33 0 -59 19t-37 48l56 24q5 -14 15.5 -23t24.5 -9q18 0 28.5 10.5t10.5 26.5t-11 28t-28 12q-19 0 -31 -15l-52 23l35 93h60l-21 -48q12 2 20 2q39 0 66 -26.5t27 -68.5q0 -40 -29.5 -68t-74.5 -28z" />
    <glyph glyph-name="uni00B9" unicode="&#xb9;" horiz-adv-x="255" 
d="M117 619l-50 -43l-44 57l103 83h68v-366h-77v269z" />
    <glyph glyph-name="ordmasculine" unicode="&#xba;" horiz-adv-x="525" 
d="M262 272q-65 0 -116 30t-80 82.5t-29 117.5t29 117.5t80 82.5t116 30t116.5 -30t81 -82.5t29.5 -117.5t-29.5 -117.5t-81 -82.5t-116.5 -30zM262 363q33 0 62.5 17.5t47 49.5t17.5 72t-17.5 72t-47 49.5t-62.5 17.5t-62.5 -17.5t-47 -49.5t-17.5 -72t17.5 -72t47 -49.5
t62.5 -17.5z" />
    <glyph glyph-name="guillemotright" unicode="&#xbb;" horiz-adv-x="579" 
d="M58 105l156 166l-156 166l63 57l206 -223l-206 -223zM269 105l156 166l-156 166l63 57l206 -223l-206 -223z" />
    <glyph glyph-name="onequarter" unicode="&#xbc;" horiz-adv-x="751" 
d="M142 619l-50 -43l-44 57l103 83h68v-366h-77v269zM110 32l465 695l66 -44l-466 -694zM570 70h-172v53l174 243h74v-232h48v-64h-48v-70h-76v70zM570 134v123h-5l-88 -123h93z" />
    <glyph glyph-name="onehalf" unicode="&#xbd;" horiz-adv-x="791" 
d="M142 619l-50 -43l-44 57l103 83h68v-366h-77v269zM102 32l465 695l66 -44l-466 -694zM479 59q122 123 132 132q21 21 32 37t11 35q0 17 -14 29.5t-35 12.5q-22 0 -37.5 -13.5t-21.5 -41.5l-70 28q10 44 45.5 70t82.5 26q53 0 90 -29.5t37 -77.5q0 -31 -18 -58.5
t-44 -53.5q-20 -21 -86 -86h150v-69h-254v59z" />
    <glyph glyph-name="threequarters" unicode="&#xbe;" horiz-adv-x="833" 
d="M186 342q-50 0 -87.5 25t-50.5 75l72 26q7 -30 25 -44t41 -14t40 14t17 37q0 22 -17 35t-43 13h-40v62h35q24 0 38.5 12t14.5 33q0 18 -13.5 29t-32.5 11q-43 0 -57 -41l-67 27q13 38 45 60t80 22q54 0 88 -29.5t34 -74.5q0 -48 -45 -77q57 -31 57 -84t-39.5 -85
t-94.5 -32zM180 32l465 695l66 -44l-466 -694zM652 70h-172v53l174 243h74v-232h48v-64h-48v-70h-76v70zM652 134v123h-5l-88 -123h93z" />
    <glyph glyph-name="questiondown" unicode="&#xbf;" horiz-adv-x="507" 
d="M255 375q-31 0 -53 22t-22 54t22 53.5t53 21.5q32 0 53.5 -21.5t21.5 -53.5t-22 -54t-53 -22zM256 -232q-61 0 -109 25t-74.5 68t-26.5 96t25 91.5t68 77.5q34 31 47.5 56.5t13.5 60.5v44h108v-56q0 -49 -19 -83.5t-70 -78.5q-35 -31 -50.5 -54t-15.5 -55
q0 -39 27.5 -64.5t73.5 -25.5q45 0 73 26t40 64l96 -40q-20 -60 -73 -106t-134 -46z" />
    <glyph glyph-name="Agrave" unicode="&#xc0;" horiz-adv-x="696" 
d="M285 716h125l271 -716h-121l-66 184h-292l-66 -184h-121zM458 286l-80 219l-27 82h-6l-27 -82l-80 -219h220zM223 904h123l47 -131h-91z" />
    <glyph glyph-name="Aacute" unicode="&#xc1;" horiz-adv-x="696" 
d="M285 716h125l271 -716h-121l-66 184h-292l-66 -184h-121zM458 286l-80 219l-27 82h-6l-27 -82l-80 -219h220zM350 904h122l-80 -131h-89z" />
    <glyph glyph-name="Acircumflex" unicode="&#xc2;" horiz-adv-x="696" 
d="M285 716h125l271 -716h-121l-66 184h-292l-66 -184h-121zM458 286l-80 219l-27 82h-6l-27 -82l-80 -219h220zM194 785l107 121h95l108 -121v-6h-104l-47 61h-10l-46 -61h-103v6z" />
    <glyph glyph-name="Atilde" unicode="&#xc3;" horiz-adv-x="696" 
d="M285 716h125l271 -716h-121l-66 184h-292l-66 -184h-121zM458 286l-80 219l-27 82h-6l-27 -82l-80 -219h220zM407 776q-20 0 -38 7.5t-43 21.5q-27 16 -38 16q-28 0 -31 -33h-80q0 58 33.5 89t77.5 31q21 0 39 -7.5t44 -22.5q2 -1 15 -8t21 -7q29 0 32 33h81
q0 -58 -34 -89t-79 -31z" />
    <glyph glyph-name="Adieresis" unicode="&#xc4;" horiz-adv-x="696" 
d="M285 716h125l271 -716h-121l-66 184h-292l-66 -184h-121zM458 286l-80 219l-27 82h-6l-27 -82l-80 -219h220zM259 780q-25 0 -43.5 19t-18.5 44q0 26 18 44.5t44 18.5q27 0 44.5 -18t17.5 -45q0 -25 -18 -44t-44 -19zM436 780q-25 0 -43.5 19t-18.5 44q0 26 18.5 44.5
t43.5 18.5q27 0 45 -18.5t18 -44.5q0 -25 -18.5 -44t-44.5 -19z" />
    <glyph glyph-name="Aring" unicode="&#xc5;" horiz-adv-x="695" 
d="M680 0h-120l-67 184h-291l-66 -184h-121l253 671q-18 16 -27.5 38t-9.5 47q0 49 33.5 82.5t82.5 33.5q48 0 82.5 -34t34.5 -82q0 -50 -37 -85zM347 798q-17 0 -29 -12.5t-12 -29.5t12 -29.5t29 -12.5t29.5 12.5t12.5 29.5t-12.5 29.5t-29.5 12.5zM457 286l-79 219l-28 82
h-6l-27 -82l-79 -219h219z" />
    <glyph glyph-name="AE" unicode="&#xc6;" horiz-adv-x="986" 
d="M432 716h497v-104h-324v-202h292v-104h-292v-202h324v-104h-434v185h-251l-108 -185h-129zM495 289v323h-7l-31 -60l-154 -263h192z" />
    <glyph glyph-name="Ccedilla" unicode="&#xc7;" horiz-adv-x="745" 
d="M703 113q-50 -59 -121 -93.5t-155 -35.5l-15 -32q14 2 21 2q38 0 65 -26.5t27 -68.5q0 -40 -29.5 -68t-74.5 -28q-33 0 -59 19t-37 48l57 24q4 -14 14.5 -23t24.5 -9q18 0 28.5 10.5t10.5 26.5q0 17 -10.5 28.5t-28.5 11.5t-31 -15l-52 23l31 80q-93 11 -166.5 62.5
t-115.5 132t-42 176.5q0 104 49 190t134.5 135t189.5 49q161 0 265 -117l-77 -75q-37 44 -82.5 66t-104.5 22q-73 0 -133 -33.5t-95 -95t-35 -141.5t35 -141.5t95 -95t133 -33.5q122 0 205 101z" />
    <glyph glyph-name="Egrave" unicode="&#xc8;" horiz-adv-x="572" 
d="M81 716h434v-104h-324v-202h292v-104h-292v-202h324v-104h-434v716zM173 904h123l47 -131h-91z" />
    <glyph glyph-name="Eacute" unicode="&#xc9;" horiz-adv-x="572" 
d="M81 716h434v-104h-324v-202h292v-104h-292v-202h324v-104h-434v716zM300 904h122l-80 -131h-89z" />
    <glyph glyph-name="Ecircumflex" unicode="&#xca;" horiz-adv-x="572" 
d="M81 716h434v-104h-324v-202h292v-104h-292v-202h324v-104h-434v716zM144 785l107 121h95l108 -121v-6h-104l-47 61h-10l-46 -61h-103v6z" />
    <glyph glyph-name="Edieresis" unicode="&#xcb;" horiz-adv-x="572" 
d="M81 716h434v-104h-324v-202h292v-104h-292v-202h324v-104h-434v716zM209 780q-25 0 -43.5 19t-18.5 44q0 26 18 44.5t44 18.5q27 0 44.5 -18t17.5 -45q0 -25 -18 -44t-44 -19zM386 780q-25 0 -43.5 19t-18.5 44q0 26 18.5 44.5t43.5 18.5q27 0 45 -18.5t18 -44.5
q0 -25 -18.5 -44t-44.5 -19z" />
    <glyph glyph-name="Igrave" unicode="&#xcc;" horiz-adv-x="271" 
d="M81 716h110v-716h-110v716zM11 904h123l47 -131h-91z" />
    <glyph glyph-name="Iacute" unicode="&#xcd;" horiz-adv-x="271" 
d="M81 716h110v-716h-110v716zM138 904h122l-80 -131h-89z" />
    <glyph glyph-name="Icircumflex" unicode="&#xce;" horiz-adv-x="271" 
d="M81 716h110v-716h-110v716zM-19 785l107 121h95l108 -121v-6h-104l-47 61h-10l-46 -61h-103v6z" />
    <glyph glyph-name="Idieresis" unicode="&#xcf;" horiz-adv-x="271" 
d="M59 782q-25 0 -43 18.5t-18 43.5t18 43t43 18q26 0 43.5 -17.5t17.5 -43.5q0 -25 -17.5 -43.5t-43.5 -18.5zM212 782q-25 0 -43 18.5t-18 43.5t18 43t43 18q26 0 43.5 -17.5t17.5 -43.5q0 -25 -17.5 -43.5t-43.5 -18.5zM81 716h110v-716h-110v716z" />
    <glyph glyph-name="Eth" unicode="&#xd0;" horiz-adv-x="750" 
d="M110 312h-76v90h76v314h229q111 0 193.5 -45t127 -126.5t44.5 -186.5t-44.5 -186.5t-127 -126.5t-193.5 -45h-229v312zM337 104q122 0 189.5 67.5t67.5 186.5t-67.5 186.5t-189.5 67.5h-117v-210h194v-90h-194v-208h117z" />
    <glyph glyph-name="Ntilde" unicode="&#xd1;" horiz-adv-x="725" 
d="M81 716h130l324 -526h6l-6 138v388h109v-716h-114l-340 553h-6l6 -138v-415h-109v716zM422 776q-20 0 -38 7.5t-43 21.5q-27 16 -38 16q-28 0 -31 -33h-80q0 58 33.5 89t77.5 31q21 0 39 -7.5t44 -22.5q2 -1 15 -8t21 -7q29 0 32 33h81q0 -58 -34 -89t-79 -31z" />
    <glyph glyph-name="Ograve" unicode="&#xd2;" horiz-adv-x="832" 
d="M416 -16q-104 0 -189 50t-133.5 135.5t-48.5 188.5t48.5 188.5t133.5 135.5t189 50t188.5 -50t133 -135.5t48.5 -188.5t-48.5 -188.5t-133 -135.5t-188.5 -50zM416 88q72 0 131.5 34.5t94 96t34.5 139.5t-34.5 139.5t-94 96t-131.5 34.5t-131.5 -34.5t-94 -96
t-34.5 -139.5t34.5 -139.5t94 -96t131.5 -34.5zM291 904h123l47 -131h-91z" />
    <glyph glyph-name="Oacute" unicode="&#xd3;" horiz-adv-x="832" 
d="M416 -16q-104 0 -189 50t-133.5 135.5t-48.5 188.5t48.5 188.5t133.5 135.5t189 50t188.5 -50t133 -135.5t48.5 -188.5t-48.5 -188.5t-133 -135.5t-188.5 -50zM416 88q72 0 131.5 34.5t94 96t34.5 139.5t-34.5 139.5t-94 96t-131.5 34.5t-131.5 -34.5t-94 -96
t-34.5 -139.5t34.5 -139.5t94 -96t131.5 -34.5zM418 904h122l-80 -131h-89z" />
    <glyph glyph-name="Ocircumflex" unicode="&#xd4;" horiz-adv-x="832" 
d="M416 -16q-104 0 -189 50t-133.5 135.5t-48.5 188.5t48.5 188.5t133.5 135.5t189 50t188.5 -50t133 -135.5t48.5 -188.5t-48.5 -188.5t-133 -135.5t-188.5 -50zM416 88q72 0 131.5 34.5t94 96t34.5 139.5t-34.5 139.5t-94 96t-131.5 34.5t-131.5 -34.5t-94 -96
t-34.5 -139.5t34.5 -139.5t94 -96t131.5 -34.5zM262 785l107 121h95l108 -121v-6h-104l-47 61h-10l-46 -61h-103v6z" />
    <glyph glyph-name="Otilde" unicode="&#xd5;" horiz-adv-x="832" 
d="M416 -16q-104 0 -189 50t-133.5 135.5t-48.5 188.5t48.5 188.5t133.5 135.5t189 50t188.5 -50t133 -135.5t48.5 -188.5t-48.5 -188.5t-133 -135.5t-188.5 -50zM416 88q72 0 131.5 34.5t94 96t34.5 139.5t-34.5 139.5t-94 96t-131.5 34.5t-131.5 -34.5t-94 -96
t-34.5 -139.5t34.5 -139.5t94 -96t131.5 -34.5zM475 776q-20 0 -38 7.5t-43 21.5q-27 16 -38 16q-28 0 -31 -33h-80q0 58 33.5 89t77.5 31q21 0 39 -7.5t44 -22.5q2 -1 15 -8t21 -7q29 0 32 33h81q0 -58 -34 -89t-79 -31z" />
    <glyph glyph-name="Odieresis" unicode="&#xd6;" horiz-adv-x="832" 
d="M416 -16q-104 0 -189 50t-133.5 135.5t-48.5 188.5t48.5 188.5t133.5 135.5t189 50t188.5 -50t133 -135.5t48.5 -188.5t-48.5 -188.5t-133 -135.5t-188.5 -50zM416 88q72 0 131.5 34.5t94 96t34.5 139.5t-34.5 139.5t-94 96t-131.5 34.5t-131.5 -34.5t-94 -96
t-34.5 -139.5t34.5 -139.5t94 -96t131.5 -34.5zM327 780q-25 0 -43.5 19t-18.5 44q0 26 18 44.5t44 18.5q27 0 44.5 -18t17.5 -45q0 -25 -18 -44t-44 -19zM504 780q-25 0 -43.5 19t-18.5 44q0 26 18.5 44.5t43.5 18.5q27 0 45 -18.5t18 -44.5q0 -25 -18.5 -44t-44.5 -19z
" />
    <glyph glyph-name="multiply" unicode="&#xd7;" horiz-adv-x="585" 
d="M66 116l161 155l-161 155l64 64l163 -157l162 157l64 -64l-162 -155l162 -155l-64 -64l-162 157l-163 -157z" />
    <glyph glyph-name="Oslash" unicode="&#xd8;" horiz-adv-x="832" 
d="M651 650q64 -52 100 -128t36 -164q0 -103 -49 -188.5t-133.5 -135.5t-188.5 -50q-87 0 -160 35l-37 -60l-74 47l37 59q-64 52 -100.5 128.5t-36.5 164.5q0 103 48.5 188.5t133.5 135.5t189 50q84 0 160 -35l38 61l74 -48zM156 358q0 -62 22 -113.5t61 -88.5l281 451
q-48 21 -104 21q-72 0 -131.5 -34.5t-94 -96t-34.5 -139.5zM416 88q72 0 131.5 34.5t94 96t34.5 139.5q0 61 -21.5 112.5t-60.5 88.5l-282 -450q48 -21 104 -21z" />
    <glyph glyph-name="Ugrave" unicode="&#xd9;" horiz-adv-x="673" 
d="M336 -16q-80 0 -141.5 36t-95 102t-33.5 153v441h109v-447q0 -81 42 -131t119 -50q78 0 120 50t42 131v447h109v-441q0 -86 -33 -152t-94 -102.5t-144 -36.5zM212 904h123l47 -131h-91z" />
    <glyph glyph-name="Uacute" unicode="&#xda;" horiz-adv-x="673" 
d="M336 -16q-80 0 -141.5 36t-95 102t-33.5 153v441h109v-447q0 -81 42 -131t119 -50q78 0 120 50t42 131v447h109v-441q0 -86 -33 -152t-94 -102.5t-144 -36.5zM339 904h122l-80 -131h-89z" />
    <glyph glyph-name="Ucircumflex" unicode="&#xdb;" horiz-adv-x="673" 
d="M336 -16q-80 0 -141.5 36t-95 102t-33.5 153v441h109v-447q0 -81 42 -131t119 -50q78 0 120 50t42 131v447h109v-441q0 -86 -33 -152t-94 -102.5t-144 -36.5zM182 785l107 121h95l108 -121v-6h-104l-47 61h-10l-46 -61h-103v6z" />
    <glyph glyph-name="Udieresis" unicode="&#xdc;" horiz-adv-x="673" 
d="M336 -16q-80 0 -141.5 36t-95 102t-33.5 153v441h109v-447q0 -81 42 -131t119 -50q78 0 120 50t42 131v447h109v-441q0 -86 -33 -152t-94 -102.5t-144 -36.5zM247 780q-25 0 -43.5 19t-18.5 44q0 26 18 44.5t44 18.5q27 0 44.5 -18t17.5 -45q0 -25 -18 -44t-44 -19z
M424 780q-25 0 -43.5 19t-18.5 44q0 26 18.5 44.5t43.5 18.5q27 0 45 -18.5t18 -44.5q0 -25 -18.5 -44t-44.5 -19z" />
    <glyph glyph-name="Yacute" unicode="&#xdd;" horiz-adv-x="618" 
d="M257 332l-242 384h130l163 -269h6l159 269h131l-238 -384v-332h-109v332zM311 904h122l-80 -131h-89z" />
    <glyph glyph-name="Thorn" unicode="&#xde;" horiz-adv-x="593" 
d="M81 716h110v-116h136q64 0 117.5 -28t85 -78t31.5 -113t-31.5 -113t-85 -78t-117.5 -28h-136v-162h-110v716zM330 266q55 0 88.5 34.5t33.5 80.5t-33.5 80.5t-88.5 34.5h-139v-230h139z" />
    <glyph glyph-name="germandbls" unicode="&#xdf;" horiz-adv-x="586" 
d="M317 -8q-32 0 -57 5v99q25 -4 53 -4q54 0 89.5 34t35.5 87q0 51 -40 86t-95 35h-34v96h24q53 0 84 29t31 76q0 42 -31.5 69t-76.5 27q-52 0 -82 -33t-30 -87v-511h-109v512q0 63 26.5 113t76.5 78.5t118 28.5q61 0 109.5 -24.5t76 -68.5t27.5 -99q0 -53 -23 -91t-62 -59
v-6q54 -22 86 -66.5t32 -109.5q0 -62 -29.5 -111.5t-81.5 -77t-118 -27.5z" />
    <glyph glyph-name="agrave" unicode="&#xe0;" horiz-adv-x="546" 
d="M223 -16q-55 0 -98 21.5t-67 60.5t-24 89q0 53 28 91.5t76 59t107 20.5q45 0 81.5 -8.5t58.5 -19.5v27q0 49 -36 79.5t-93 30.5q-39 0 -74 -17.5t-56 -47.5l-74 57q33 47 87.5 73t119.5 26q110 0 170.5 -54.5t60.5 -152.5v-319h-105v63h-6q-22 -34 -63 -56.5t-93 -22.5z
M242 72q40 0 73 19.5t51.5 52.5t18.5 71q-24 14 -55 22t-65 8q-63 0 -92.5 -25t-29.5 -66q0 -36 27 -59t72 -23zM139 740h123l47 -131h-91z" />
    <glyph glyph-name="aacute" unicode="&#xe1;" horiz-adv-x="546" 
d="M223 -16q-55 0 -98 21.5t-67 60.5t-24 89q0 53 28 91.5t76 59t107 20.5q45 0 81.5 -8.5t58.5 -19.5v27q0 49 -36 79.5t-93 30.5q-39 0 -74 -17.5t-56 -47.5l-74 57q33 47 87.5 73t119.5 26q110 0 170.5 -54.5t60.5 -152.5v-319h-105v63h-6q-22 -34 -63 -56.5t-93 -22.5z
M242 72q40 0 73 19.5t51.5 52.5t18.5 71q-24 14 -55 22t-65 8q-63 0 -92.5 -25t-29.5 -66q0 -36 27 -59t72 -23zM266 740h122l-80 -131h-89z" />
    <glyph glyph-name="acircumflex" unicode="&#xe2;" horiz-adv-x="546" 
d="M223 -16q-55 0 -98 21.5t-67 60.5t-24 89q0 53 28 91.5t76 59t107 20.5q45 0 81.5 -8.5t58.5 -19.5v27q0 49 -36 79.5t-93 30.5q-39 0 -74 -17.5t-56 -47.5l-74 57q33 47 87.5 73t119.5 26q110 0 170.5 -54.5t60.5 -152.5v-319h-105v63h-6q-22 -34 -63 -56.5t-93 -22.5z
M242 72q40 0 73 19.5t51.5 52.5t18.5 71q-24 14 -55 22t-65 8q-63 0 -92.5 -25t-29.5 -66q0 -36 27 -59t72 -23zM109 615l107 121h95l108 -121v-7h-104l-47 61h-10l-46 -61h-103v7z" />
    <glyph glyph-name="atilde" unicode="&#xe3;" horiz-adv-x="546" 
d="M223 -16q-55 0 -98 21.5t-67 60.5t-24 89q0 53 28 91.5t76 59t107 20.5q45 0 81.5 -8.5t58.5 -19.5v27q0 49 -36 79.5t-93 30.5q-39 0 -74 -17.5t-56 -47.5l-74 57q33 47 87.5 73t119.5 26q110 0 170.5 -54.5t60.5 -152.5v-319h-105v63h-6q-22 -34 -63 -56.5t-93 -22.5z
M242 72q40 0 73 19.5t51.5 52.5t18.5 71q-24 14 -55 22t-65 8q-63 0 -92.5 -25t-29.5 -66q0 -36 27 -59t72 -23zM323 612q-20 0 -38 7.5t-43 21.5q-27 16 -38 16q-28 0 -31 -33h-80q0 58 33.5 88.5t77.5 30.5q21 0 39 -7.5t44 -22.5q2 -1 15 -8t21 -7q29 0 32 33h81
q0 -57 -34 -88t-79 -31z" />
    <glyph glyph-name="adieresis" unicode="&#xe4;" horiz-adv-x="546" 
d="M223 -16q-55 0 -98 21.5t-67 60.5t-24 89q0 53 28 91.5t76 59t107 20.5q45 0 81.5 -8.5t58.5 -19.5v27q0 49 -36 79.5t-93 30.5q-39 0 -74 -17.5t-56 -47.5l-74 57q33 47 87.5 73t119.5 26q110 0 170.5 -54.5t60.5 -152.5v-319h-105v63h-6q-22 -34 -63 -56.5t-93 -22.5z
M242 72q40 0 73 19.5t51.5 52.5t18.5 71q-24 14 -55 22t-65 8q-63 0 -92.5 -25t-29.5 -66q0 -36 27 -59t72 -23zM174 616q-25 0 -43.5 18.5t-18.5 44.5t18 44t44 18q27 0 44.5 -18t17.5 -44t-17.5 -44.5t-44.5 -18.5zM351 616q-25 0 -43.5 19t-18.5 44q0 26 18.5 44t43.5 18
q27 0 45 -18t18 -44t-18 -44.5t-45 -18.5z" />
    <glyph glyph-name="aring" unicode="&#xe5;" horiz-adv-x="546" 
d="M223 -16q-55 0 -98 21.5t-67 60.5t-24 89q0 53 28 91.5t76 59t107 20.5q45 0 81.5 -8.5t58.5 -19.5v27q0 49 -36 79.5t-93 30.5q-39 0 -74 -17.5t-56 -47.5l-74 57q33 47 87.5 73t119.5 26q110 0 170.5 -54.5t60.5 -152.5v-319h-105v63h-6q-22 -34 -63 -56.5t-93 -22.5z
M242 72q40 0 73 19.5t51.5 52.5t18.5 71q-24 14 -55 22t-65 8q-63 0 -92.5 -25t-29.5 -66q0 -36 27 -59t72 -23zM263 586q-44 0 -74.5 31t-30.5 75t30.5 74.5t74.5 30.5t75 -30.5t31 -74.5t-31 -75t-75 -31zM263 650q17 0 29.5 12.5t12.5 29.5t-12.5 29t-29.5 12t-29 -12
t-12 -29t12 -29.5t29 -12.5z" />
    <glyph glyph-name="ae" unicode="&#xe6;" horiz-adv-x="919" 
d="M228 -16q-57 0 -101 21.5t-68.5 60.5t-24.5 89q0 53 28 91.5t76 59t107 20.5q45 0 80.5 -8.5t58.5 -20.5v25q0 52 -33.5 82.5t-90.5 30.5q-39 0 -66.5 -17.5t-42.5 -47.5l-85 40q25 55 78 85.5t117 30.5q67 0 115.5 -23t76.5 -67q31 43 77.5 66t104.5 23q77 0 133 -33.5
t85.5 -92t29.5 -133.5q0 -20 -2 -34h-393q6 -73 51 -112.5t106 -39.5q48 0 83 22.5t56 59.5l89 -43q-35 -63 -92.5 -99t-138.5 -36q-69 0 -123.5 32t-87.5 86q-40 -62 -89.5 -90t-113.5 -28zM775 313q-2 28 -17.5 55.5t-46 46t-75.5 18.5q-54 0 -91.5 -32.5t-51.5 -87.5h282
zM242 72q40 0 72.5 19.5t51 52.5t18.5 71q-52 30 -119 30q-63 0 -92.5 -25t-29.5 -66q0 -36 27 -59t72 -23z" />
    <glyph glyph-name="ccedilla" unicode="&#xe7;" horiz-adv-x="559" 
d="M530 125q-29 -63 -86 -101t-136 -40l-15 -32q14 2 21 2q38 0 65 -26.5t27 -68.5q0 -40 -29.5 -68t-74.5 -28q-33 0 -59 19t-37 48l57 24q4 -14 14.5 -23t24.5 -9q18 0 28.5 10.5t10.5 26.5t-11 28t-28 12q-18 0 -31 -15l-52 23l31 81q-64 11 -112.5 47.5t-75 93.5
t-26.5 126q0 78 33.5 139.5t93.5 96.5t136 35q84 0 142.5 -37.5t84.5 -103.5l-98 -40q-36 82 -131 82q-42 0 -77.5 -21.5t-56 -60.5t-20.5 -90t20.5 -90t56 -60.5t77.5 -21.5q48 0 82.5 21.5t53.5 62.5z" />
    <glyph glyph-name="egrave" unicode="&#xe8;" horiz-adv-x="575" 
d="M296 -16q-74 0 -133.5 35t-93 96.5t-33.5 138.5q0 73 32.5 135.5t90.5 99.5t131 37q77 0 133 -33.5t85.5 -92.5t29.5 -134q0 -20 -2 -34h-394q7 -73 52 -112.5t105 -39.5q49 0 84 22.5t56 59.5l89 -43q-35 -63 -93 -99t-139 -36zM431 313q-2 28 -18 56t-46.5 46.5
t-75.5 18.5q-54 0 -91.5 -33t-51.5 -88h283zM166 740h123l47 -131h-91z" />
    <glyph glyph-name="eacute" unicode="&#xe9;" horiz-adv-x="575" 
d="M296 -16q-74 0 -133.5 35t-93 96.5t-33.5 138.5q0 73 32.5 135.5t90.5 99.5t131 37q77 0 133 -33.5t85.5 -92.5t29.5 -134q0 -20 -2 -34h-394q7 -73 52 -112.5t105 -39.5q49 0 84 22.5t56 59.5l89 -43q-35 -63 -93 -99t-139 -36zM431 313q-2 28 -18 56t-46.5 46.5
t-75.5 18.5q-54 0 -91.5 -33t-51.5 -88h283zM293 740h122l-80 -131h-89z" />
    <glyph glyph-name="ecircumflex" unicode="&#xea;" horiz-adv-x="575" 
d="M296 -16q-74 0 -133.5 35t-93 96.5t-33.5 138.5q0 73 32.5 135.5t90.5 99.5t131 37q77 0 133 -33.5t85.5 -92.5t29.5 -134q0 -20 -2 -34h-394q7 -73 52 -112.5t105 -39.5q49 0 84 22.5t56 59.5l89 -43q-35 -63 -93 -99t-139 -36zM431 313q-2 28 -18 56t-46.5 46.5
t-75.5 18.5q-54 0 -91.5 -33t-51.5 -88h283zM136 615l107 121h95l108 -121v-7h-104l-47 61h-10l-46 -61h-103v7z" />
    <glyph glyph-name="edieresis" unicode="&#xeb;" horiz-adv-x="575" 
d="M296 -16q-74 0 -133.5 35t-93 96.5t-33.5 138.5q0 73 32.5 135.5t90.5 99.5t131 37q77 0 133 -33.5t85.5 -92.5t29.5 -134q0 -20 -2 -34h-394q7 -73 52 -112.5t105 -39.5q49 0 84 22.5t56 59.5l89 -43q-35 -63 -93 -99t-139 -36zM431 313q-2 28 -18 56t-46.5 46.5
t-75.5 18.5q-54 0 -91.5 -33t-51.5 -88h283zM201 616q-25 0 -43.5 18.5t-18.5 44.5t18 44t44 18q27 0 44.5 -18t17.5 -44t-17.5 -44.5t-44.5 -18.5zM378 616q-25 0 -43.5 19t-18.5 44q0 26 18.5 44t43.5 18q27 0 45 -18t18 -44t-18 -44.5t-45 -18.5z" />
    <glyph glyph-name="igrave" unicode="&#xec;" horiz-adv-x="251" 
d="M71 510h108v-510h-108v510zM1 740h123l47 -131h-91z" />
    <glyph glyph-name="iacute" unicode="&#xed;" horiz-adv-x="251" 
d="M71 510h108v-510h-108v510zM128 740h122l-80 -131h-89z" />
    <glyph glyph-name="icircumflex" unicode="&#xee;" horiz-adv-x="251" 
d="M71 510h108v-510h-108v510zM-28 615l107 121h95l108 -121v-7h-104l-47 61h-10l-46 -61h-103v7z" />
    <glyph glyph-name="idieresis" unicode="&#xef;" horiz-adv-x="251" 
d="M50 618q-25 0 -43 18t-18 43t18 43t43 18q26 0 43.5 -17.5t17.5 -43.5q0 -25 -17.5 -43t-43.5 -18zM201 618q-25 0 -43.5 18t-18.5 43t18 43t44 18t43.5 -17.5t17.5 -43.5q0 -25 -18 -43t-43 -18zM71 510h108v-510h-108v510z" />
    <glyph glyph-name="eth" unicode="&#xf0;" horiz-adv-x="593" 
d="M294 -16q-68 0 -125 34.5t-90 93t-33 127.5q0 71 33 128.5t88 90.5t117 33q40 0 72.5 -14t51.5 -33l6 4q-14 36 -36.5 62.5t-54.5 49.5l-123 -54l-30 71l72 32q-50 24 -103 36l34 85q100 -27 174 -75l101 45l30 -70l-64 -28q67 -64 100 -151.5t33 -191.5
q0 -81 -32.5 -143.5t-90 -97t-130.5 -34.5zM295 83q40 0 73 19.5t52 55t19 81.5q0 45 -19 80t-52 55t-72 20q-40 0 -73 -19.5t-52 -55t-19 -80.5t19 -81t52 -55.5t72 -19.5z" />
    <glyph glyph-name="ntilde" unicode="&#xf1;" horiz-adv-x="580" 
d="M63 510h102v-70h6q22 38 66 62t95 24q92 0 140 -54.5t48 -149.5v-322h-107v308q0 60 -30 89.5t-82 29.5q-38 0 -67.5 -21t-46 -56t-16.5 -76v-274h-108v510zM362 612q-20 0 -38 7.5t-43 21.5q-27 16 -38 16q-28 0 -31 -33h-80q0 58 33.5 88.5t77.5 30.5q21 0 39 -7.5
t44 -22.5q2 -1 15 -8t21 -7q29 0 32 33h81q0 -57 -34 -88t-79 -31z" />
    <glyph glyph-name="ograve" unicode="&#xf2;" horiz-adv-x="605" 
d="M303 -16q-77 0 -138 35.5t-95 97.5t-34 138t34 138t95 97.5t138 35.5q76 0 137 -36t95 -98t34 -137q0 -76 -34 -138t-94.5 -97.5t-137.5 -35.5zM303 83q43 0 79 21t58 60t22 91t-22 91t-58 60t-79 21t-79.5 -21t-58.5 -60t-22 -91t22 -91t58.5 -60t79.5 -21zM178 740h123
l47 -131h-91z" />
    <glyph glyph-name="oacute" unicode="&#xf3;" horiz-adv-x="605" 
d="M303 -16q-77 0 -138 35.5t-95 97.5t-34 138t34 138t95 97.5t138 35.5q76 0 137 -36t95 -98t34 -137q0 -76 -34 -138t-94.5 -97.5t-137.5 -35.5zM303 83q43 0 79 21t58 60t22 91t-22 91t-58 60t-79 21t-79.5 -21t-58.5 -60t-22 -91t22 -91t58.5 -60t79.5 -21zM305 740h122
l-80 -131h-89z" />
    <glyph glyph-name="ocircumflex" unicode="&#xf4;" horiz-adv-x="605" 
d="M303 -16q-77 0 -138 35.5t-95 97.5t-34 138t34 138t95 97.5t138 35.5q76 0 137 -36t95 -98t34 -137q0 -76 -34 -138t-94.5 -97.5t-137.5 -35.5zM303 83q43 0 79 21t58 60t22 91t-22 91t-58 60t-79 21t-79.5 -21t-58.5 -60t-22 -91t22 -91t58.5 -60t79.5 -21zM149 615
l107 121h95l108 -121v-7h-104l-47 61h-10l-46 -61h-103v7z" />
    <glyph glyph-name="otilde" unicode="&#xf5;" horiz-adv-x="605" 
d="M303 -16q-77 0 -138 35.5t-95 97.5t-34 138t34 138t95 97.5t138 35.5q76 0 137 -36t95 -98t34 -137q0 -76 -34 -138t-94.5 -97.5t-137.5 -35.5zM303 83q43 0 79 21t58 60t22 91t-22 91t-58 60t-79 21t-79.5 -21t-58.5 -60t-22 -91t22 -91t58.5 -60t79.5 -21zM362 612
q-20 0 -38 7.5t-43 21.5q-27 16 -38 16q-28 0 -31 -33h-80q0 58 33.5 88.5t77.5 30.5q21 0 39 -7.5t44 -22.5q2 -1 15 -8t21 -7q29 0 32 33h81q0 -57 -34 -88t-79 -31z" />
    <glyph glyph-name="odieresis" unicode="&#xf6;" horiz-adv-x="605" 
d="M303 -16q-77 0 -138 35.5t-95 97.5t-34 138t34 138t95 97.5t138 35.5q76 0 137 -36t95 -98t34 -137q0 -76 -34 -138t-94.5 -97.5t-137.5 -35.5zM303 83q43 0 79 21t58 60t22 91t-22 91t-58 60t-79 21t-79.5 -21t-58.5 -60t-22 -91t22 -91t58.5 -60t79.5 -21zM214 616
q-25 0 -43.5 18.5t-18.5 44.5t18 44t44 18q27 0 44.5 -18t17.5 -44t-17.5 -44.5t-44.5 -18.5zM391 616q-25 0 -43.5 19t-18.5 44q0 26 18.5 44t43.5 18q27 0 45 -18t18 -44t-18 -44.5t-45 -18.5z" />
    <glyph glyph-name="divide" unicode="&#xf7;" horiz-adv-x="556" 
d="M278 391q-31 0 -52 21t-21 51t21 51.5t52 21.5t52 -21.5t21 -51.5t-21 -51t-52 -21zM55 315h446v-88h-446v88zM278 6q-31 0 -52 21.5t-21 51.5t21 51t52 21t52 -21t21 -51t-21 -51.5t-52 -21.5z" />
    <glyph glyph-name="oslash" unicode="&#xf8;" horiz-adv-x="605" 
d="M480 461q42 -38 65.5 -91t23.5 -115q0 -76 -34 -138t-94.5 -97.5t-137.5 -35.5q-58 0 -107 20l-26 -41l-72 41l27 44q-42 37 -65.5 91t-23.5 116q0 76 34 138t95 97.5t138 35.5q55 0 108 -21l26 42l72 -40zM138 255q0 -72 41 -121l180 288q-26 10 -56 10q-44 0 -82 -21.5
t-60.5 -61.5t-22.5 -94zM303 78q44 0 81.5 21.5t60 61.5t22.5 94q0 70 -40 120l-179 -288q26 -9 55 -9z" />
    <glyph glyph-name="ugrave" unicode="&#xf9;" horiz-adv-x="580" 
d="M248 -16q-92 0 -140.5 55.5t-48.5 154.5v316h108v-301q0 -62 29 -94t78 -32q40 0 71 21t47.5 56t16.5 76v274h107v-510h-101v69h-6q-22 -37 -66 -61t-95 -24zM163 740h123l47 -131h-91z" />
    <glyph glyph-name="uacute" unicode="&#xfa;" horiz-adv-x="580" 
d="M248 -16q-92 0 -140.5 55.5t-48.5 154.5v316h108v-301q0 -62 29 -94t78 -32q40 0 71 21t47.5 56t16.5 76v274h107v-510h-101v69h-6q-22 -37 -66 -61t-95 -24zM290 740h122l-80 -131h-89z" />
    <glyph glyph-name="ucircumflex" unicode="&#xfb;" horiz-adv-x="580" 
d="M248 -16q-92 0 -140.5 55.5t-48.5 154.5v316h108v-301q0 -62 29 -94t78 -32q40 0 71 21t47.5 56t16.5 76v274h107v-510h-101v69h-6q-22 -37 -66 -61t-95 -24zM134 615l107 121h95l108 -121v-7h-104l-47 61h-10l-46 -61h-103v7z" />
    <glyph glyph-name="udieresis" unicode="&#xfc;" horiz-adv-x="580" 
d="M248 -16q-92 0 -140.5 55.5t-48.5 154.5v316h108v-301q0 -62 29 -94t78 -32q40 0 71 21t47.5 56t16.5 76v274h107v-510h-101v69h-6q-22 -37 -66 -61t-95 -24zM199 616q-25 0 -43.5 18.5t-18.5 44.5t18 44t44 18q27 0 44.5 -18t17.5 -44t-17.5 -44.5t-44.5 -18.5zM376 616
q-25 0 -43.5 19t-18.5 44q0 26 18.5 44t43.5 18q27 0 45 -18t18 -44t-18 -44.5t-45 -18.5z" />
    <glyph glyph-name="yacute" unicode="&#xfd;" horiz-adv-x="547" 
d="M221 28l-213 482h120l146 -348h5l141 348h119l-315 -726h-115zM276 740h122l-80 -131h-89z" />
    <glyph glyph-name="thorn" unicode="&#xfe;" horiz-adv-x="613" 
d="M61 716h107v-207l-6 -68h6q22 36 65.5 60.5t98.5 24.5q69 0 125 -35t88 -96.5t32 -139.5t-32 -140t-88 -96.5t-125 -34.5q-55 0 -98.5 24.5t-65.5 59.5h-6l6 -68v-216h-107v932zM316 83q41 0 76.5 21.5t56.5 60.5t21 90t-21 90t-56.5 60.5t-76.5 21.5q-40 0 -75.5 -21.5
t-57 -60.5t-21.5 -90t21.5 -90t57 -60.5t75.5 -21.5z" />
    <glyph glyph-name="ydieresis" unicode="&#xff;" horiz-adv-x="547" 
d="M221 28l-213 482h120l146 -348h5l141 348h119l-315 -726h-115zM185 616q-25 0 -43.5 18.5t-18.5 44.5t18 44t44 18q27 0 44.5 -18t17.5 -44t-17.5 -44.5t-44.5 -18.5zM362 616q-25 0 -43.5 19t-18.5 44q0 26 18.5 44t43.5 18q27 0 45 -18t18 -44t-18 -44.5t-45 -18.5z
" />
    <glyph glyph-name="Amacron" unicode="&#x100;" horiz-adv-x="696" 
d="M285 716h125l271 -716h-121l-66 184h-292l-66 -184h-121zM458 286l-80 219l-27 82h-6l-27 -82l-80 -219h220zM206 884h286v-82h-286v82z" />
    <glyph glyph-name="amacron" unicode="&#x101;" horiz-adv-x="546" 
d="M223 -16q-55 0 -98 21.5t-67 60.5t-24 89q0 53 28 91.5t76 59t107 20.5q45 0 81.5 -8.5t58.5 -19.5v27q0 49 -36 79.5t-93 30.5q-39 0 -74 -17.5t-56 -47.5l-74 57q33 47 87.5 73t119.5 26q110 0 170.5 -54.5t60.5 -152.5v-319h-105v63h-6q-22 -34 -63 -56.5t-93 -22.5z
M242 72q40 0 73 19.5t51.5 52.5t18.5 71q-24 14 -55 22t-65 8q-63 0 -92.5 -25t-29.5 -66q0 -36 27 -59t72 -23zM121 720h286v-83h-286v83z" />
    <glyph glyph-name="Abreve" unicode="&#x102;" horiz-adv-x="696" 
d="M285 716h125l271 -716h-121l-66 184h-292l-66 -184h-121zM458 286l-80 219l-27 82h-6l-27 -82l-80 -219h220zM349 768q-34 0 -64.5 17t-49 46.5t-18.5 65.5h80q0 -22 14 -37.5t38 -15.5q22 0 36 15.5t14 37.5h80q0 -36 -18 -65.5t-48 -46.5t-64 -17z" />
    <glyph glyph-name="abreve" unicode="&#x103;" horiz-adv-x="546" 
d="M223 -16q-55 0 -98 21.5t-67 60.5t-24 89q0 53 28 91.5t76 59t107 20.5q45 0 81.5 -8.5t58.5 -19.5v27q0 49 -36 79.5t-93 30.5q-39 0 -74 -17.5t-56 -47.5l-74 57q33 47 87.5 73t119.5 26q110 0 170.5 -54.5t60.5 -152.5v-319h-105v63h-6q-22 -34 -63 -56.5t-93 -22.5z
M242 72q40 0 73 19.5t51.5 52.5t18.5 71q-24 14 -55 22t-65 8q-63 0 -92.5 -25t-29.5 -66q0 -36 27 -59t72 -23zM265 603q-34 0 -64.5 17t-49 47t-18.5 66h80q0 -22 14 -37.5t38 -15.5q22 0 36 15.5t14 37.5h80q0 -36 -18 -66t-48 -47t-64 -17z" />
    <glyph glyph-name="Aogonek" unicode="&#x104;" horiz-adv-x="696" 
d="M641 -224q-57 0 -90.5 32.5t-33.5 83.5q0 59 54 106l-1 2h-10l-66 184h-292l-66 -184h-121l270 716h125l271 -716q-35 -26 -53 -47t-18 -47q0 -21 12 -34.5t33 -13.5q19 0 40 11v-84q-19 -9 -54 -9zM458 286l-80 219l-27 82h-6l-27 -82l-80 -219h220z" />
    <glyph glyph-name="aogonek" unicode="&#x105;" horiz-adv-x="546" 
d="M450 -224q-57 0 -90.5 32t-33.5 81q0 36 18.5 63t43.5 45l-3 3v63h-6q-22 -34 -63 -56.5t-93 -22.5q-55 0 -98 21.5t-67 60.5t-24 89q0 53 28 91.5t76 59t107 20.5q45 0 81.5 -8.5t58.5 -19.5v27q0 49 -36 79.5t-93 30.5q-39 0 -74 -17.5t-56 -47.5l-74 57q33 47 87.5 73
t119.5 26q110 0 170.5 -54.5t60.5 -152.5v-319q-35 -26 -53 -47t-18 -47q0 -21 12.5 -34.5t32.5 -13.5q19 0 41 11v-84q-20 -9 -55 -9zM242 72q40 0 73 19.5t51.5 52.5t18.5 71q-24 14 -55 22t-65 8q-63 0 -92.5 -25t-29.5 -66q0 -36 27 -59t72 -23z" />
    <glyph glyph-name="Cacute" unicode="&#x106;" horiz-adv-x="745" 
d="M418 -16q-104 0 -189.5 49t-134.5 135t-49 190t49 190t134.5 135t189.5 49q161 0 265 -117l-77 -75q-37 44 -82.5 66t-104.5 22q-73 0 -133 -33.5t-95 -95t-35 -141.5t35 -141.5t95 -95t133 -33.5q122 0 205 101l79 -76q-52 -61 -125 -95t-160 -34zM413 904h122l-80 -131
h-89z" />
    <glyph glyph-name="cacute" unicode="&#x107;" horiz-adv-x="559" 
d="M299 -16q-76 0 -136 35t-93.5 96.5t-33.5 139.5t33.5 139.5t93.5 96.5t136 35q84 0 142.5 -37.5t84.5 -103.5l-98 -40q-36 82 -131 82q-42 0 -77.5 -21.5t-56 -60.5t-20.5 -90t20.5 -90t56 -60.5t77.5 -21.5q48 0 82.5 21.5t53.5 62.5l97 -42q-30 -65 -89 -103t-142 -38z
M301 740h122l-80 -131h-89z" />
    <glyph glyph-name="Ccircumflex" unicode="&#x108;" horiz-adv-x="745" 
d="M418 -16q-104 0 -189.5 49t-134.5 135t-49 190t49 190t134.5 135t189.5 49q161 0 265 -117l-77 -75q-37 44 -82.5 66t-104.5 22q-73 0 -133 -33.5t-95 -95t-35 -141.5t35 -141.5t95 -95t133 -33.5q122 0 205 101l79 -76q-52 -61 -125 -95t-160 -34zM257 785l107 121h95
l108 -121v-6h-104l-47 61h-10l-46 -61h-103v6z" />
    <glyph glyph-name="ccircumflex" unicode="&#x109;" horiz-adv-x="559" 
d="M299 -16q-76 0 -136 35t-93.5 96.5t-33.5 139.5t33.5 139.5t93.5 96.5t136 35q84 0 142.5 -37.5t84.5 -103.5l-98 -40q-36 82 -131 82q-42 0 -77.5 -21.5t-56 -60.5t-20.5 -90t20.5 -90t56 -60.5t77.5 -21.5q48 0 82.5 21.5t53.5 62.5l97 -42q-30 -65 -89 -103t-142 -38z
M145 615l107 121h95l108 -121v-7h-104l-47 61h-10l-46 -61h-103v7z" />
    <glyph glyph-name="Cdotaccent" unicode="&#x10a;" horiz-adv-x="745" 
d="M418 -16q-104 0 -189.5 49t-134.5 135t-49 190t49 190t134.5 135t189.5 49q161 0 265 -117l-77 -75q-37 44 -82.5 66t-104.5 22q-73 0 -133 -33.5t-95 -95t-35 -141.5t35 -141.5t95 -95t133 -33.5q122 0 205 101l79 -76q-52 -61 -125 -95t-160 -34zM410 796
q-24 0 -41.5 18t-17.5 42q0 25 17.5 42.5t41.5 17.5q25 0 42.5 -17.5t17.5 -42.5q0 -24 -17.5 -42t-42.5 -18z" />
    <glyph glyph-name="cdotaccent" unicode="&#x10b;" horiz-adv-x="559" 
d="M299 -16q-76 0 -136 35t-93.5 96.5t-33.5 139.5t33.5 139.5t93.5 96.5t136 35q84 0 142.5 -37.5t84.5 -103.5l-98 -40q-36 82 -131 82q-42 0 -77.5 -21.5t-56 -60.5t-20.5 -90t20.5 -90t56 -60.5t77.5 -21.5q48 0 82.5 21.5t53.5 62.5l97 -42q-30 -65 -89 -103t-142 -38z
M298 610q-26 0 -45 19.5t-19 45.5q0 27 19 45.5t45 18.5q28 0 46 -18.5t18 -45.5t-18.5 -46t-45.5 -19z" />
    <glyph glyph-name="Ccaron" unicode="&#x10c;" horiz-adv-x="745" 
d="M418 -16q-104 0 -189.5 49t-134.5 135t-49 190t49 190t134.5 135t189.5 49q161 0 265 -117l-77 -75q-37 44 -82.5 66t-104.5 22q-73 0 -133 -33.5t-95 -95t-35 -141.5t35 -141.5t95 -95t133 -33.5q122 0 205 101l79 -76q-52 -61 -125 -95t-160 -34zM257 900v6h103l46 -61
h10l47 61h104v-6l-108 -121h-95z" />
    <glyph glyph-name="ccaron" unicode="&#x10d;" horiz-adv-x="559" 
d="M299 -16q-76 0 -136 35t-93.5 96.5t-33.5 139.5t33.5 139.5t93.5 96.5t136 35q84 0 142.5 -37.5t84.5 -103.5l-98 -40q-36 82 -131 82q-42 0 -77.5 -21.5t-56 -60.5t-20.5 -90t20.5 -90t56 -60.5t77.5 -21.5q48 0 82.5 21.5t53.5 62.5l97 -42q-30 -65 -89 -103t-142 -38z
M145 729v7h103l46 -62h10l47 62h104v-7l-108 -121h-95z" />
    <glyph glyph-name="Dcaron" unicode="&#x10e;" horiz-adv-x="720" 
d="M81 716h229q111 0 193.5 -45t127 -126.5t44.5 -186.5t-44.5 -186.5t-127 -126.5t-193.5 -45h-229v716zM307 104q122 0 189.5 67.5t67.5 186.5t-67.5 186.5t-189.5 67.5h-116v-508h116zM180 900v6h103l46 -61h10l47 61h104v-6l-108 -121h-95z" />
    <glyph glyph-name="dcaron" unicode="&#x10f;" horiz-adv-x="712" 
d="M281 -16q-69 0 -125 34.5t-88 96.5t-32 140t32 139.5t88 96.5t125 35q56 0 99 -24.5t65 -60.5h6l-6 71v204h107v-716h-101v68h-6q-22 -35 -65 -59.5t-99 -24.5zM297 83q40 0 75.5 21.5t57 60.5t21.5 90t-21.5 90t-57 60.5t-75.5 21.5t-75.5 -21.5t-57 -60.5t-21.5 -90
t21.5 -90t57 -60.5t75.5 -21.5zM614 716h114l-35 -195h-79v195z" />
    <glyph glyph-name="Dcroat" unicode="&#x110;" horiz-adv-x="717" 
d="M78 328h-77v88h77v300h228q111 0 194 -45t127.5 -126.5t44.5 -186.5t-44.5 -186.5t-127.5 -126.5t-194 -45h-228v328zM304 104q122 0 189.5 67.5t67.5 186.5t-67.5 186.5t-189.5 67.5h-117v-196h184v-88h-184v-224h117z" />
    <glyph glyph-name="dcroat" unicode="&#x111;" horiz-adv-x="614" 
d="M614 577h-62v-577h-101v68h-6q-22 -35 -65 -59.5t-99 -24.5q-69 0 -125 34.5t-88 96.5t-32 140t32 139.5t88 96.5t125 35q56 0 99 -24.5t65 -60.5h6l-6 68v68h-146v79h146v60h107v-60h62v-79zM297 83q40 0 75.5 21.5t57 60.5t21.5 90t-21.5 90t-57 60.5t-75.5 21.5
t-75.5 -21.5t-57 -60.5t-21.5 -90t21.5 -90t57 -60.5t75.5 -21.5z" />
    <glyph glyph-name="Emacron" unicode="&#x112;" horiz-adv-x="572" 
d="M81 716h434v-104h-324v-202h292v-104h-292v-202h324v-104h-434v716zM156 884h286v-82h-286v82z" />
    <glyph glyph-name="emacron" unicode="&#x113;" horiz-adv-x="575" 
d="M296 -16q-74 0 -133.5 35t-93 96.5t-33.5 138.5q0 73 32.5 135.5t90.5 99.5t131 37q77 0 133 -33.5t85.5 -92.5t29.5 -134q0 -20 -2 -34h-394q7 -73 52 -112.5t105 -39.5q49 0 84 22.5t56 59.5l89 -43q-35 -63 -93 -99t-139 -36zM431 313q-2 28 -18 56t-46.5 46.5
t-75.5 18.5q-54 0 -91.5 -33t-51.5 -88h283zM148 720h286v-83h-286v83z" />
    <glyph glyph-name="Ebreve" unicode="&#x114;" horiz-adv-x="572" 
d="M81 716h434v-104h-324v-202h292v-104h-292v-202h324v-104h-434v716zM299 768q-34 0 -64.5 17t-49 46.5t-18.5 65.5h80q0 -22 14 -37.5t38 -15.5q22 0 36 15.5t14 37.5h80q0 -36 -18 -65.5t-48 -46.5t-64 -17z" />
    <glyph glyph-name="ebreve" unicode="&#x115;" horiz-adv-x="575" 
d="M296 -16q-74 0 -133.5 35t-93 96.5t-33.5 138.5q0 73 32.5 135.5t90.5 99.5t131 37q77 0 133 -33.5t85.5 -92.5t29.5 -134q0 -20 -2 -34h-394q7 -73 52 -112.5t105 -39.5q49 0 84 22.5t56 59.5l89 -43q-35 -63 -93 -99t-139 -36zM431 313q-2 28 -18 56t-46.5 46.5
t-75.5 18.5q-54 0 -91.5 -33t-51.5 -88h283zM292 603q-34 0 -64.5 17t-49 47t-18.5 66h80q0 -22 14 -37.5t38 -15.5q22 0 36 15.5t14 37.5h80q0 -36 -18 -66t-48 -47t-64 -17z" />
    <glyph glyph-name="Edotaccent" unicode="&#x116;" horiz-adv-x="572" 
d="M81 716h434v-104h-324v-202h292v-104h-292v-202h324v-104h-434v716zM297 796q-24 0 -41.5 18t-17.5 42q0 25 17.5 42.5t41.5 17.5q25 0 42.5 -17.5t17.5 -42.5q0 -24 -17.5 -42t-42.5 -18z" />
    <glyph glyph-name="edotaccent" unicode="&#x117;" horiz-adv-x="575" 
d="M296 -16q-74 0 -133.5 35t-93 96.5t-33.5 138.5q0 73 32.5 135.5t90.5 99.5t131 37q77 0 133 -33.5t85.5 -92.5t29.5 -134q0 -20 -2 -34h-394q7 -73 52 -112.5t105 -39.5q49 0 84 22.5t56 59.5l89 -43q-35 -63 -93 -99t-139 -36zM431 313q-2 28 -18 56t-46.5 46.5
t-75.5 18.5q-54 0 -91.5 -33t-51.5 -88h283zM290 610q-26 0 -45 19.5t-19 45.5q0 27 19 45.5t45 18.5q28 0 46 -18.5t18 -45.5t-18.5 -46t-45.5 -19z" />
    <glyph glyph-name="Eogonek" unicode="&#x118;" horiz-adv-x="572" 
d="M475 -224q-57 0 -90.5 32t-33.5 81q0 63 63 111h-333v716h434v-104h-324v-202h292v-104h-292v-202h324v-104q-35 -26 -53 -47t-18 -47q0 -21 12 -34.5t33 -13.5q19 0 40 11v-84q-19 -9 -54 -9z" />
    <glyph glyph-name="eogonek" unicode="&#x119;" horiz-adv-x="575" 
d="M371 -224q-56 0 -89.5 32t-33.5 78q0 58 47 98h-3q-73 0 -131.5 35.5t-91.5 96.5t-33 138q0 73 32.5 135.5t90.5 99.5t131 37q77 0 133 -33.5t85.5 -92.5t29.5 -134q0 -20 -2 -34h-394q7 -73 52 -112.5t105 -39.5q49 0 84 22.5t56 59.5l89 -43q-29 -53 -95 -101
q-55 -39 -74 -61.5t-19 -51.5q0 -20 12.5 -33.5t33.5 -13.5q18 0 40 11v-84q-20 -9 -55 -9zM431 313q-2 28 -18 56t-46.5 46.5t-75.5 18.5q-54 0 -91.5 -33t-51.5 -88h283z" />
    <glyph glyph-name="Ecaron" unicode="&#x11a;" horiz-adv-x="572" 
d="M81 716h434v-104h-324v-202h292v-104h-292v-202h324v-104h-434v716zM144 900v6h103l46 -61h10l47 61h104v-6l-108 -121h-95z" />
    <glyph glyph-name="ecaron" unicode="&#x11b;" horiz-adv-x="575" 
d="M296 -16q-74 0 -133.5 35t-93 96.5t-33.5 138.5q0 73 32.5 135.5t90.5 99.5t131 37q77 0 133 -33.5t85.5 -92.5t29.5 -134q0 -20 -2 -34h-394q7 -73 52 -112.5t105 -39.5q49 0 84 22.5t56 59.5l89 -43q-35 -63 -93 -99t-139 -36zM431 313q-2 28 -18 56t-46.5 46.5
t-75.5 18.5q-54 0 -91.5 -33t-51.5 -88h283zM136 729v7h103l46 -62h10l47 62h104v-7l-108 -121h-95z" />
    <glyph glyph-name="Gcircumflex" unicode="&#x11c;" horiz-adv-x="819" 
d="M420 -16q-102 0 -188 49t-136.5 134.5t-50.5 190.5t50.5 190.5t136.5 134.5t188 49q82 0 151 -29t117 -81l-76 -76q-73 82 -192 82q-70 0 -131 -33.5t-97 -95.5t-36 -141q0 -80 36.5 -141.5t97 -95t131.5 -33.5q113 0 184 71q23 22 38.5 56t21.5 75h-246v97h348
q6 -34 6 -58q0 -68 -21.5 -129.5t-66.5 -108.5q-48 -52 -115 -79.5t-150 -27.5zM266 785l107 121h95l108 -121v-6h-104l-47 61h-10l-46 -61h-103v6z" />
    <glyph glyph-name="gcircumflex" unicode="&#x11d;" horiz-adv-x="610" 
d="M293 -232q-93 0 -154.5 42.5t-82.5 102.5l100 42q16 -41 52.5 -66t84.5 -25q71 0 111 42t40 119v49h-6q-25 -37 -67 -58t-96 -21q-65 0 -119.5 33t-87 93.5t-32.5 138.5t32.5 138.5t87 94t119.5 33.5q53 0 95.5 -21.5t67.5 -58.5h6v64h103v-483q0 -82 -32 -140.5
t-89.5 -88.5t-132.5 -30zM294 93q41 0 75 20t54.5 57.5t20.5 89.5q0 53 -20.5 91t-54.5 57.5t-75 19.5t-75.5 -19.5t-55 -57.5t-20.5 -91q0 -52 20.5 -90t55 -57.5t75.5 -19.5zM146 615l107 121h95l108 -121v-7h-104l-47 61h-10l-46 -61h-103v7z" />
    <glyph glyph-name="Gbreve" unicode="&#x11e;" horiz-adv-x="819" 
d="M420 -16q-102 0 -188 49t-136.5 134.5t-50.5 190.5t50.5 190.5t136.5 134.5t188 49q82 0 151 -29t117 -81l-76 -76q-73 82 -192 82q-70 0 -131 -33.5t-97 -95.5t-36 -141q0 -80 36.5 -141.5t97 -95t131.5 -33.5q113 0 184 71q23 22 38.5 56t21.5 75h-246v97h348
q6 -34 6 -58q0 -68 -21.5 -129.5t-66.5 -108.5q-48 -52 -115 -79.5t-150 -27.5zM421 768q-34 0 -64.5 17t-49 46.5t-18.5 65.5h80q0 -22 14 -37.5t38 -15.5q22 0 36 15.5t14 37.5h80q0 -36 -18 -65.5t-48 -46.5t-64 -17z" />
    <glyph glyph-name="gbreve" unicode="&#x11f;" horiz-adv-x="610" 
d="M293 -232q-93 0 -154.5 42.5t-82.5 102.5l100 42q16 -41 52.5 -66t84.5 -25q71 0 111 42t40 119v49h-6q-25 -37 -67 -58t-96 -21q-65 0 -119.5 33t-87 93.5t-32.5 138.5t32.5 138.5t87 94t119.5 33.5q53 0 95.5 -21.5t67.5 -58.5h6v64h103v-483q0 -82 -32 -140.5
t-89.5 -88.5t-132.5 -30zM294 93q41 0 75 20t54.5 57.5t20.5 89.5q0 53 -20.5 91t-54.5 57.5t-75 19.5t-75.5 -19.5t-55 -57.5t-20.5 -91q0 -52 20.5 -90t55 -57.5t75.5 -19.5zM302 603q-34 0 -64.5 17t-49 47t-18.5 66h80q0 -22 14 -37.5t38 -15.5q22 0 36 15.5t14 37.5h80
q0 -36 -18 -66t-48 -47t-64 -17z" />
    <glyph glyph-name="Gdotaccent" unicode="&#x120;" horiz-adv-x="819" 
d="M420 -16q-102 0 -188 49t-136.5 134.5t-50.5 190.5t50.5 190.5t136.5 134.5t188 49q82 0 151 -29t117 -81l-76 -76q-73 82 -192 82q-70 0 -131 -33.5t-97 -95.5t-36 -141q0 -80 36.5 -141.5t97 -95t131.5 -33.5q113 0 184 71q23 22 38.5 56t21.5 75h-246v97h348
q6 -34 6 -58q0 -68 -21.5 -129.5t-66.5 -108.5q-48 -52 -115 -79.5t-150 -27.5zM419 796q-24 0 -41.5 18t-17.5 42q0 25 17.5 42.5t41.5 17.5q25 0 42.5 -17.5t17.5 -42.5q0 -24 -17.5 -42t-42.5 -18z" />
    <glyph glyph-name="gdotaccent" unicode="&#x121;" horiz-adv-x="610" 
d="M293 -232q-93 0 -154.5 42.5t-82.5 102.5l100 42q16 -41 52.5 -66t84.5 -25q71 0 111 42t40 119v49h-6q-25 -37 -67 -58t-96 -21q-65 0 -119.5 33t-87 93.5t-32.5 138.5t32.5 138.5t87 94t119.5 33.5q53 0 95.5 -21.5t67.5 -58.5h6v64h103v-483q0 -82 -32 -140.5
t-89.5 -88.5t-132.5 -30zM294 93q41 0 75 20t54.5 57.5t20.5 89.5q0 53 -20.5 91t-54.5 57.5t-75 19.5t-75.5 -19.5t-55 -57.5t-20.5 -91q0 -52 20.5 -90t55 -57.5t75.5 -19.5zM300 610q-26 0 -45 19.5t-19 45.5q0 27 19 45.5t45 18.5q28 0 46 -18.5t18 -45.5t-18.5 -46
t-45.5 -19z" />
    <glyph glyph-name="uni0122" unicode="&#x122;" horiz-adv-x="819" 
d="M420 -16q-102 0 -188 49t-136.5 134.5t-50.5 190.5t50.5 190.5t136.5 134.5t188 49q82 0 151 -29t117 -81l-76 -76q-73 82 -192 82q-70 0 -131 -33.5t-97 -95.5t-36 -141q0 -80 36.5 -141.5t97 -95t131.5 -33.5q113 0 184 71q23 22 38.5 56t21.5 75h-246v97h348
q6 -34 6 -58q0 -68 -21.5 -129.5t-66.5 -108.5q-48 -52 -115 -79.5t-150 -27.5zM347 -234l42 63q-19 6 -30.5 22t-11.5 36q0 25 18.5 44t44.5 19q27 0 45.5 -19t18.5 -46q0 -20 -13 -43l-71 -105z" />
    <glyph glyph-name="uni0123" unicode="&#x123;" horiz-adv-x="610" 
d="M293 -232q-93 0 -154.5 42.5t-82.5 102.5l100 42q16 -41 52.5 -66t84.5 -25q71 0 111 42t40 119v49h-6q-25 -37 -67 -58t-96 -21q-65 0 -119.5 33t-87 93.5t-32.5 138.5t32.5 138.5t87 94t119.5 33.5q53 0 95.5 -21.5t67.5 -58.5h6v64h103v-483q0 -82 -32 -140.5
t-89.5 -88.5t-132.5 -30zM294 93q41 0 75 20t54.5 57.5t20.5 89.5q0 53 -20.5 91t-54.5 57.5t-75 19.5t-75.5 -19.5t-55 -57.5t-20.5 -91q0 -52 20.5 -90t55 -57.5t75.5 -19.5zM355 776l-42 -63q19 -6 30.5 -22t11.5 -36q0 -25 -18.5 -44t-45.5 -19t-45 19t-18 46
q0 20 13 43l71 105z" />
    <glyph glyph-name="Hcircumflex" unicode="&#x124;" horiz-adv-x="716" 
d="M81 716h110v-298h335v298h109v-716h-109v314h-335v-314h-110v716zM204 785l107 121h95l108 -121v-6h-104l-47 61h-10l-46 -61h-103v6z" />
    <glyph glyph-name="hcircumflex" unicode="&#x125;" horiz-adv-x="583" 
d="M63 716h108v-196l-6 -80h6q22 38 65.5 62t95.5 24q93 0 142 -55.5t49 -148.5v-322h-107v308q0 59 -31.5 89t-80.5 30q-37 0 -67.5 -21.5t-48 -57.5t-17.5 -76v-272h-108v716zM-37 779l107 121h95l108 -121v-7h-104l-47 61h-10l-46 -61h-103v7z" />
    <glyph glyph-name="Hbar" unicode="&#x126;" horiz-adv-x="716" 
d="M699 501h-64v-501h-109v314h-335v-314h-110v501h-64v82h64v133h110v-133h335v133h109v-133h64v-82zM526 501h-335v-83h335v83z" />
    <glyph glyph-name="hbar" unicode="&#x127;" horiz-adv-x="583" 
d="M332 526q93 0 142 -55.5t49 -148.5v-322h-107v308q0 59 -31.5 89t-80.5 30q-37 0 -67.5 -21.5t-48 -57.5t-17.5 -76v-272h-108v577h-61v79h61v60h108v-60h147v-79h-147v-57l-6 -80h6q22 38 65.5 62t95.5 24z" />
    <glyph glyph-name="Itilde" unicode="&#x128;" horiz-adv-x="271" 
d="M81 716h110v-716h-110v716zM195 776q-20 0 -38 7.5t-43 21.5q-27 16 -38 16q-28 0 -31 -33h-80q0 58 33.5 89t77.5 31q21 0 39 -7.5t44 -22.5q2 -1 15 -8t21 -7q29 0 32 33h81q0 -58 -34 -89t-79 -31z" />
    <glyph glyph-name="itilde" unicode="&#x129;" horiz-adv-x="251" 
d="M71 510h108v-510h-108v510zM185 612q-20 0 -38 7.5t-43 21.5q-27 16 -38 16q-28 0 -31 -33h-80q0 58 33.5 88.5t77.5 30.5q21 0 39 -7.5t44 -22.5q2 -1 15 -8t21 -7q29 0 32 33h81q0 -57 -34 -88t-79 -31z" />
    <glyph glyph-name="Imacron" unicode="&#x12a;" horiz-adv-x="271" 
d="M5 884h261v-82h-261v82zM81 716h110v-716h-110v716z" />
    <glyph glyph-name="imacron" unicode="&#x12b;" horiz-adv-x="251" 
d="M71 510h108v-510h-108v510zM-16 720h286v-83h-286v83z" />
    <glyph glyph-name="Ibreve" unicode="&#x12c;" horiz-adv-x="271" 
d="M81 716h110v-716h-110v716zM137 768q-34 0 -64.5 17t-49 46.5t-18.5 65.5h80q0 -22 14 -37.5t38 -15.5q22 0 36 15.5t14 37.5h80q0 -36 -18 -65.5t-48 -46.5t-64 -17z" />
    <glyph glyph-name="ibreve" unicode="&#x12d;" horiz-adv-x="251" 
d="M71 510h108v-510h-108v510zM127 603q-34 0 -64.5 17t-49 47t-18.5 66h80q0 -22 14 -37.5t38 -15.5q22 0 36 15.5t14 37.5h80q0 -36 -18 -66t-48 -47t-64 -17z" />
    <glyph glyph-name="Iogonek" unicode="&#x12e;" horiz-adv-x="270" 
d="M150 -224q-57 0 -90.5 32t-33.5 81q0 63 60 109l-1 2h-5v716h110v-716q-35 -26 -53 -47t-18 -47q0 -21 12 -34.5t33 -13.5q19 0 40 11v-84q-20 -9 -54 -9z" />
    <glyph glyph-name="iogonek" unicode="&#x12f;" horiz-adv-x="251" 
d="M125 585q-30 0 -51.5 21.5t-21.5 51.5t21.5 51t51.5 21t51.5 -21t21.5 -51t-21.5 -51.5t-51.5 -21.5zM139 -224q-57 0 -90.5 32t-33.5 81q0 61 59 108l-3 3v510h108v-510q-35 -26 -53 -47t-18 -47q0 -21 12.5 -34.5t32.5 -13.5q19 0 40 11v-84q-19 -9 -54 -9z" />
    <glyph glyph-name="Idotaccent" unicode="&#x130;" horiz-adv-x="271" 
d="M81 716h110v-716h-110v716zM135 796q-24 0 -41.5 18t-17.5 42q0 25 17.5 42.5t41.5 17.5q25 0 42.5 -17.5t17.5 -42.5q0 -24 -17.5 -42t-42.5 -18z" />
    <glyph glyph-name="dotlessi" unicode="&#x131;" horiz-adv-x="251" 
d="M71 510h108v-510h-108v510z" />
    <glyph glyph-name="IJ" unicode="&#x132;" horiz-adv-x="837" 
d="M646 711h123v-498q0 -106 -66.5 -164.5t-166.5 -58.5q-101 0 -166.5 52t-65.5 161h124q0 -62 30 -88t78 -26t79 32t31 92v498zM203 711v-711h-123v711h123z" />
    <glyph glyph-name="ij" unicode="&#x133;" horiz-adv-x="506" 
d="M312 666q0 27 17.5 45t49.5 18t49.5 -18t17.5 -45t-17.5 -45t-49.5 -18t-49.5 18t-17.5 45zM322 528h119v-575q0 -167 -159 -166q-33 0 -63 8v93q22 -4 43 -4q60 0 60 69v575zM61 666q0 27 18 45t49.5 18t49.5 -18t18 -45t-18 -45t-49.5 -18t-49.5 18t-18 45zM187 528
v-528h-119v528h119z" />
    <glyph glyph-name="Jcircumflex" unicode="&#x134;" horiz-adv-x="549" 
d="M255 -16q-82 0 -143 44.5t-86 124.5l102 42q16 -55 49 -81t78 -26q53 0 84 36t31 96v496h110v-492q0 -76 -29 -130t-80 -82t-116 -28zM271 785l107 121h95l108 -121v-6h-104l-47 61h-10l-46 -61h-103v6z" />
    <glyph glyph-name="jcircumflex" unicode="&#x135;" horiz-adv-x="251" 
d="M28 -226q-31 0 -56 7v104q24 -13 47 -13q28 0 40 17t12 51v570h108v-571q0 -84 -41 -124.5t-110 -40.5zM-29 615l107 121h95l108 -121v-7h-104l-47 61h-10l-46 -61h-103v7z" />
    <glyph glyph-name="uni0136" unicode="&#x136;" horiz-adv-x="654" 
d="M81 716h110v-342h6l292 342h136v-6l-262 -301l285 -403v-6h-134l-226 323l-97 -113v-210h-110v716zM267 -232l42 63q-19 6 -30.5 22t-11.5 36q0 25 18.5 44t44.5 19q27 0 45.5 -19t18.5 -46q0 -20 -13 -43l-71 -105z" />
    <glyph glyph-name="uni0137" unicode="&#x137;" horiz-adv-x="532" 
d="M63 716h108v-420h4l212 214h134v-6l-197 -196l204 -302v-6h-128l-152 234l-77 -77v-157h-108v716zM212 -232l42 63q-19 6 -30.5 22t-11.5 36q0 25 18.5 44t44.5 19q27 0 45.5 -19t18.5 -46q0 -20 -13 -43l-71 -105z" />
    <glyph glyph-name="kgreenlandic" unicode="&#x138;" horiz-adv-x="514" 
d="M63 510h108v-226h6l191 226h132v-6l-208 -236l218 -262v-6h-130l-203 251h-6v-251h-108v510z" />
    <glyph glyph-name="Lacute" unicode="&#x139;" horiz-adv-x="530" 
d="M81 716h110v-612h308v-104h-418v716zM138 904h122l-80 -131h-89z" />
    <glyph glyph-name="lacute" unicode="&#x13a;" horiz-adv-x="235" 
d="M63 716h108v-716h-108v716zM120 904h122l-80 -131h-89z" />
    <glyph glyph-name="uni013B" unicode="&#x13b;" horiz-adv-x="530" 
d="M81 716h110v-612h308v-104h-418v716zM227 -232l42 63q-19 6 -30.5 22t-11.5 36q0 25 18.5 44t44.5 19q27 0 45.5 -19t18.5 -46q0 -20 -13 -43l-71 -105z" />
    <glyph glyph-name="uni013C" unicode="&#x13c;" horiz-adv-x="235" 
d="M63 716h108v-716h-108v716zM54 -232l42 63q-19 6 -30.5 22t-11.5 36q0 25 18.5 44t44.5 19q27 0 45.5 -19t18.5 -46q0 -20 -13 -43l-71 -105z" />
    <glyph glyph-name="Lcaron" unicode="&#x13d;" horiz-adv-x="530" 
d="M81 716h110v-612h308v-104h-418v716zM338 716h114l-35 -195h-79v195z" />
    <glyph glyph-name="lcaron" unicode="&#x13e;" horiz-adv-x="347" 
d="M63 716h108v-716h-108v716zM233 716h114l-35 -195h-79v195z" />
    <glyph glyph-name="Ldot" unicode="&#x13f;" horiz-adv-x="530" 
d="M81 716h110v-612h308v-104h-418v716zM362 269q-31 0 -53 22t-22 53q0 32 22 53.5t53 21.5q32 0 53.5 -21.5t21.5 -53.5q0 -31 -21.5 -53t-53.5 -22z" />
    <glyph glyph-name="ldot" unicode="&#x140;" horiz-adv-x="363" 
d="M237 379q0 25 17 42.5t47.5 17.5t47 -17.5t16.5 -42.5t-16.5 -42.5t-47 -17.5t-47.5 17.5t-17 42.5zM187 750v-750h-119v750h119z" />
    <glyph glyph-name="Lslash" unicode="&#x141;" horiz-adv-x="607" 
d="M158 264l-60 -36l-48 77l108 68v343h110v-270l121 75l47 -77l-168 -105v-235h308v-104h-418v264z" />
    <glyph glyph-name="lslash" unicode="&#x142;" horiz-adv-x="401" 
d="M143 295l-52 -38l-55 72l107 78v309h108v-235l67 50l55 -73l-122 -89v-369h-108v295z" />
    <glyph glyph-name="Nacute" unicode="&#x143;" horiz-adv-x="725" 
d="M81 716h130l324 -526h6l-6 138v388h109v-716h-114l-340 553h-6l6 -138v-415h-109v716zM365 904h122l-80 -131h-89z" />
    <glyph glyph-name="nacute" unicode="&#x144;" horiz-adv-x="580" 
d="M63 510h102v-70h6q22 38 66 62t95 24q92 0 140 -54.5t48 -149.5v-322h-107v308q0 60 -30 89.5t-82 29.5q-38 0 -67.5 -21t-46 -56t-16.5 -76v-274h-108v510zM305 740h122l-80 -131h-89z" />
    <glyph glyph-name="uni0145" unicode="&#x145;" horiz-adv-x="725" 
d="M81 716h130l324 -526h6l-6 138v388h109v-716h-114l-340 553h-6l6 -138v-415h-109v716zM299 -232l42 63q-19 6 -30.5 22t-11.5 36q0 25 18.5 44t44.5 19q27 0 45.5 -19t18.5 -46q0 -20 -13 -43l-71 -105z" />
    <glyph glyph-name="uni0146" unicode="&#x146;" horiz-adv-x="580" 
d="M63 510h102v-70h6q22 38 66 62t95 24q92 0 140 -54.5t48 -149.5v-322h-107v308q0 60 -30 89.5t-82 29.5q-38 0 -67.5 -21t-46 -56t-16.5 -76v-274h-108v510zM230 -232l42 63q-19 6 -30.5 22t-11.5 36q0 25 18.5 44t44.5 19q27 0 45.5 -19t18.5 -46q0 -20 -13 -43
l-71 -105z" />
    <glyph glyph-name="Ncaron" unicode="&#x147;" horiz-adv-x="725" 
d="M81 716h130l324 -526h6l-6 138v388h109v-716h-114l-340 553h-6l6 -138v-415h-109v716zM209 900v6h103l46 -61h10l47 61h104v-6l-108 -121h-95z" />
    <glyph glyph-name="ncaron" unicode="&#x148;" horiz-adv-x="580" 
d="M63 510h102v-70h6q22 38 66 62t95 24q92 0 140 -54.5t48 -149.5v-322h-107v308q0 60 -30 89.5t-82 29.5q-38 0 -67.5 -21t-46 -56t-16.5 -76v-274h-108v510zM149 729v7h103l46 -62h10l47 62h104v-7l-108 -121h-95z" />
    <glyph glyph-name="napostrophe" unicode="&#x149;" horiz-adv-x="556" 
d="M90 751v-37q0 -42 -19 -88.5t-54 -77.5l-62 38q35 54 37 116v49h98zM285 441q-71 0 -107 -64v-377h-118v528h111l4 -60q58 70 153 70q76 0 122 -44t47 -150v-344h-119v343q0 55 -23.5 76.5t-69.5 21.5z" />
    <glyph glyph-name="Eng" unicode="&#x14a;" horiz-adv-x="725" 
d="M492 -226q-26 0 -55 6v104q24 -12 47 -12q51 0 51 68v62l-345 551h-6l6 -138v-415h-109v716h130l324 -521h6l-6 138v383h109v-777q0 -84 -41.5 -124.5t-110.5 -40.5z" />
    <glyph glyph-name="eng" unicode="&#x14b;" horiz-adv-x="580" 
d="M369 -226q-31 0 -56 7v104q24 -13 48 -13q27 0 39.5 17t12.5 51v368q0 60 -30 89.5t-82 29.5q-38 0 -67.5 -21t-46 -56t-16.5 -76v-274h-108v510h102v-70h6q22 38 66 62t95 24q92 0 140 -54.5t48 -149.5v-383q0 -84 -41 -124.5t-110 -40.5z" />
    <glyph glyph-name="Omacron" unicode="&#x14c;" horiz-adv-x="832" 
d="M416 -16q-104 0 -189 50t-133.5 135.5t-48.5 188.5t48.5 188.5t133.5 135.5t189 50t188.5 -50t133 -135.5t48.5 -188.5t-48.5 -188.5t-133 -135.5t-188.5 -50zM416 88q72 0 131.5 34.5t94 96t34.5 139.5t-34.5 139.5t-94 96t-131.5 34.5t-131.5 -34.5t-94 -96
t-34.5 -139.5t34.5 -139.5t94 -96t131.5 -34.5zM274 884h286v-82h-286v82z" />
    <glyph glyph-name="omacron" unicode="&#x14d;" horiz-adv-x="605" 
d="M303 -16q-77 0 -138 35.5t-95 97.5t-34 138t34 138t95 97.5t138 35.5q76 0 137 -36t95 -98t34 -137q0 -76 -34 -138t-94.5 -97.5t-137.5 -35.5zM303 83q43 0 79 21t58 60t22 91t-22 91t-58 60t-79 21t-79.5 -21t-58.5 -60t-22 -91t22 -91t58.5 -60t79.5 -21zM161 720h286
v-83h-286v83z" />
    <glyph glyph-name="Obreve" unicode="&#x14e;" horiz-adv-x="832" 
d="M416 -16q-104 0 -189 50t-133.5 135.5t-48.5 188.5t48.5 188.5t133.5 135.5t189 50t188.5 -50t133 -135.5t48.5 -188.5t-48.5 -188.5t-133 -135.5t-188.5 -50zM416 88q72 0 131.5 34.5t94 96t34.5 139.5t-34.5 139.5t-94 96t-131.5 34.5t-131.5 -34.5t-94 -96
t-34.5 -139.5t34.5 -139.5t94 -96t131.5 -34.5zM417 768q-34 0 -64.5 17t-49 46.5t-18.5 65.5h80q0 -22 14 -37.5t38 -15.5q22 0 36 15.5t14 37.5h80q0 -36 -18 -65.5t-48 -46.5t-64 -17z" />
    <glyph glyph-name="obreve" unicode="&#x14f;" horiz-adv-x="605" 
d="M303 -16q-77 0 -138 35.5t-95 97.5t-34 138t34 138t95 97.5t138 35.5q76 0 137 -36t95 -98t34 -137q0 -76 -34 -138t-94.5 -97.5t-137.5 -35.5zM303 83q43 0 79 21t58 60t22 91t-22 91t-58 60t-79 21t-79.5 -21t-58.5 -60t-22 -91t22 -91t58.5 -60t79.5 -21zM304 603
q-34 0 -64.5 17t-49 47t-18.5 66h80q0 -22 14 -37.5t38 -15.5q22 0 36 15.5t14 37.5h80q0 -36 -18 -66t-48 -47t-64 -17z" />
    <glyph glyph-name="Ohungarumlaut" unicode="&#x150;" horiz-adv-x="832" 
d="M416 -16q-104 0 -189 50t-133.5 135.5t-48.5 188.5t48.5 188.5t133.5 135.5t189 50t188.5 -50t133 -135.5t48.5 -188.5t-48.5 -188.5t-133 -135.5t-188.5 -50zM416 88q72 0 131.5 34.5t94 96t34.5 139.5t-34.5 139.5t-94 96t-131.5 34.5t-131.5 -34.5t-94 -96
t-34.5 -139.5t34.5 -139.5t94 -96t131.5 -34.5zM339 904h122l-80 -131h-89zM501 904h122l-80 -131h-89z" />
    <glyph glyph-name="ohungarumlaut" unicode="&#x151;" horiz-adv-x="605" 
d="M303 -16q-77 0 -138 35.5t-95 97.5t-34 138t34 138t95 97.5t138 35.5q76 0 137 -36t95 -98t34 -137q0 -76 -34 -138t-94.5 -97.5t-137.5 -35.5zM303 83q43 0 79 21t58 60t22 91t-22 91t-58 60t-79 21t-79.5 -21t-58.5 -60t-22 -91t22 -91t58.5 -60t79.5 -21zM217 740h122
l-80 -131h-89zM396 740h122l-80 -131h-89z" />
    <glyph glyph-name="OE" unicode="&#x152;" horiz-adv-x="1163" 
d="M410 -16q-101 0 -184.5 50t-132 135.5t-48.5 188.5t48.5 188.5t132 135.5t184.5 50q84 0 150 -30.5t108 -84.5h3v99h435v-104h-326v-202h294v-104h-294v-202h326v-104h-435v98h-3q-42 -53 -108 -83.5t-150 -30.5zM416 88q72 0 131.5 34.5t94 96t34.5 139.5t-34.5 139.5
t-94 96t-131.5 34.5t-131.5 -34.5t-94 -96t-34.5 -139.5t34.5 -139.5t94 -96t131.5 -34.5z" />
    <glyph glyph-name="oe" unicode="&#x153;" horiz-adv-x="1001" 
d="M303 -16q-77 0 -138 35.5t-95 97.5t-34 138t34 138t95 97.5t138 35.5q67 0 121 -29.5t91 -84.5q33 53 85.5 83.5t116.5 30.5q77 0 133 -33.5t85.5 -92.5t29.5 -134q0 -13 -3 -34h-393q6 -73 51.5 -112.5t105.5 -39.5q48 0 83 22.5t56 59.5l90 -43q-36 -63 -93.5 -99
t-138.5 -36q-67 0 -121 30.5t-87 84.5q-36 -55 -90 -85t-122 -30zM856 313q-2 28 -17.5 56t-46 46.5t-75.5 18.5q-54 0 -91.5 -33t-51.5 -88h282zM303 83q43 0 79 21t58 60t22 91t-22 91t-58 60t-79 21t-79.5 -21t-58.5 -60t-22 -91t22 -91t58.5 -60t79.5 -21z" />
    <glyph glyph-name="Racute" unicode="&#x154;" horiz-adv-x="610" 
d="M81 716h251q65 0 117.5 -28t83 -78t30.5 -113q0 -72 -46.5 -127.5t-116.5 -74.5l-1 -5l197 -284v-6h-127l-191 281h-87v-281h-110v716zM329 382q52 0 87.5 33t35.5 83q0 46 -32.5 80.5t-86.5 34.5h-142v-231h138zM296 904h122l-80 -131h-89z" />
    <glyph glyph-name="racute" unicode="&#x155;" horiz-adv-x="401" 
d="M63 510h102v-75h6q17 39 58.5 64.5t89.5 25.5q35 0 62 -10v-112q-41 18 -79 18q-57 0 -94 -44t-37 -107v-270h-108v510zM220 740h122l-80 -131h-89z" />
    <glyph glyph-name="uni0156" unicode="&#x156;" horiz-adv-x="610" 
d="M81 716h251q65 0 117.5 -28t83 -78t30.5 -113q0 -72 -46.5 -127.5t-116.5 -74.5l-1 -5l197 -284v-6h-127l-191 281h-87v-281h-110v716zM329 382q52 0 87.5 33t35.5 83q0 46 -32.5 80.5t-86.5 34.5h-142v-231h138zM242 -232l42 63q-19 6 -30.5 22t-11.5 36q0 25 18.5 44
t44.5 19q27 0 45.5 -19t18.5 -46q0 -20 -13 -43l-71 -105z" />
    <glyph glyph-name="uni0157" unicode="&#x157;" horiz-adv-x="401" 
d="M63 510h102v-75h6q17 39 58.5 64.5t89.5 25.5q35 0 62 -10v-112q-41 18 -79 18q-57 0 -94 -44t-37 -107v-270h-108v510zM54 -232l42 63q-19 6 -30.5 22t-11.5 36q0 25 18.5 44t44.5 19q27 0 45.5 -19t18.5 -46q0 -20 -13 -43l-71 -105z" />
    <glyph glyph-name="Rcaron" unicode="&#x158;" horiz-adv-x="610" 
d="M81 716h251q65 0 117.5 -28t83 -78t30.5 -113q0 -72 -46.5 -127.5t-116.5 -74.5l-1 -5l197 -284v-6h-127l-191 281h-87v-281h-110v716zM329 382q52 0 87.5 33t35.5 83q0 46 -32.5 80.5t-86.5 34.5h-142v-231h138zM139 900v6h103l46 -61h10l47 61h104v-6l-108 -121h-95z
" />
    <glyph glyph-name="rcaron" unicode="&#x159;" horiz-adv-x="401" 
d="M63 510h102v-75h6q17 39 58.5 64.5t89.5 25.5q35 0 62 -10v-112q-41 18 -79 18q-57 0 -94 -44t-37 -107v-270h-108v510zM64 729v7h103l46 -62h10l47 62h104v-7l-108 -121h-95z" />
    <glyph glyph-name="Sacute" unicode="&#x15a;" horiz-adv-x="575" 
d="M289 -16q-89 0 -160 52t-99 146l104 42q16 -60 57 -98t99 -38q54 0 91.5 28t37.5 77q0 45 -33 74.5t-114 57.5l-45 16q-73 26 -121.5 72.5t-48.5 123.5q0 53 28.5 98t80 71t116.5 26q93 0 149 -45.5t76 -102.5l-99 -42q-10 36 -42 62t-83 26q-49 0 -83 -26t-34 -66
q0 -37 30.5 -61.5t94.5 -46.5l46 -16q92 -32 142 -83t50 -136q0 -70 -35.5 -117.5t-91 -70.5t-113.5 -23zM285 904h122l-80 -131h-89z" />
    <glyph glyph-name="sacute" unicode="&#x15b;" horiz-adv-x="489" 
d="M249 -16q-87 0 -143.5 38t-79.5 99l97 42q18 -41 51 -62.5t75 -21.5q43 0 72 15.5t29 46.5q0 28 -24.5 44.5t-76.5 28.5l-61 14q-61 15 -101 53t-40 96q0 44 26.5 78t71 52.5t97.5 18.5q72 0 125.5 -28t77.5 -82l-93 -42q-31 61 -109 61q-38 0 -63.5 -16t-25.5 -40
q0 -45 78 -65l74 -18q75 -19 113.5 -57t38.5 -94q0 -48 -27.5 -84.5t-75.5 -56.5t-106 -20zM245 740h122l-80 -131h-89z" />
    <glyph glyph-name="Scircumflex" unicode="&#x15c;" horiz-adv-x="575" 
d="M289 -16q-89 0 -160 52t-99 146l104 42q16 -60 57 -98t99 -38q54 0 91.5 28t37.5 77q0 45 -33 74.5t-114 57.5l-45 16q-73 26 -121.5 72.5t-48.5 123.5q0 53 28.5 98t80 71t116.5 26q93 0 149 -45.5t76 -102.5l-99 -42q-10 36 -42 62t-83 26q-49 0 -83 -26t-34 -66
q0 -37 30.5 -61.5t94.5 -46.5l46 -16q92 -32 142 -83t50 -136q0 -70 -35.5 -117.5t-91 -70.5t-113.5 -23zM129 785l107 121h95l108 -121v-6h-104l-47 61h-10l-46 -61h-103v6z" />
    <glyph glyph-name="scircumflex" unicode="&#x15d;" horiz-adv-x="489" 
d="M249 -16q-87 0 -143.5 38t-79.5 99l97 42q18 -41 51 -62.5t75 -21.5q43 0 72 15.5t29 46.5q0 28 -24.5 44.5t-76.5 28.5l-61 14q-61 15 -101 53t-40 96q0 44 26.5 78t71 52.5t97.5 18.5q72 0 125.5 -28t77.5 -82l-93 -42q-31 61 -109 61q-38 0 -63.5 -16t-25.5 -40
q0 -45 78 -65l74 -18q75 -19 113.5 -57t38.5 -94q0 -48 -27.5 -84.5t-75.5 -56.5t-106 -20zM89 615l107 121h95l108 -121v-7h-104l-47 61h-10l-46 -61h-103v7z" />
    <glyph glyph-name="Scedilla" unicode="&#x15e;" horiz-adv-x="575" 
d="M529 195q0 -65 -31.5 -111t-81 -70.5t-104.5 -28.5l-15 -33q14 2 21 2q38 0 65 -26.5t27 -68.5q0 -40 -29.5 -68t-74.5 -28q-33 0 -59 19t-37 48l57 24q4 -14 14.5 -23t24.5 -9q18 0 28.5 10.5t10.5 26.5t-11 28t-28 12q-18 0 -31 -15l-52 23l30 79q-78 10 -138 61
t-85 135l104 42q16 -60 57 -98t99 -38q54 0 91.5 28t37.5 77q0 45 -33 74.5t-114 57.5l-45 16q-73 26 -121.5 72.5t-48.5 123.5q0 53 28.5 98t80 71t116.5 26q93 0 149 -45.5t76 -102.5l-99 -42q-10 36 -42 62t-83 26q-49 0 -83 -26t-34 -66q0 -37 30.5 -61.5t94.5 -46.5
l46 -16q92 -32 142 -83t50 -136z" />
    <glyph glyph-name="scedilla" unicode="&#x15f;" horiz-adv-x="489" 
d="M458 145q0 -67 -52 -110.5t-133 -49.5l-15 -33q14 2 21 2q38 0 65 -26.5t27 -68.5q0 -40 -29.5 -68t-74.5 -28q-33 0 -59 19t-37 48l57 24q4 -14 14.5 -23t24.5 -9q18 0 28.5 10.5t10.5 26.5t-11 28t-28 12q-18 0 -31 -15l-52 23l30 79q-73 8 -120.5 44.5t-67.5 90.5
l97 42q18 -41 51 -62.5t75 -21.5q43 0 72 15.5t29 46.5q0 28 -24.5 44.5t-76.5 28.5l-61 14q-61 15 -101 53t-40 96q0 44 26.5 78t71 52.5t97.5 18.5q72 0 125.5 -28t77.5 -82l-93 -42q-31 61 -109 61q-38 0 -63.5 -16t-25.5 -40q0 -45 78 -65l74 -18q75 -19 113.5 -57
t38.5 -94z" />
    <glyph glyph-name="Scaron" unicode="&#x160;" horiz-adv-x="575" 
d="M289 -16q-89 0 -160 52t-99 146l104 42q16 -60 57 -98t99 -38q54 0 91.5 28t37.5 77q0 45 -33 74.5t-114 57.5l-45 16q-73 26 -121.5 72.5t-48.5 123.5q0 53 28.5 98t80 71t116.5 26q93 0 149 -45.5t76 -102.5l-99 -42q-10 36 -42 62t-83 26q-49 0 -83 -26t-34 -66
q0 -37 30.5 -61.5t94.5 -46.5l46 -16q92 -32 142 -83t50 -136q0 -70 -35.5 -117.5t-91 -70.5t-113.5 -23zM129 900v6h103l46 -61h10l47 61h104v-6l-108 -121h-95z" />
    <glyph glyph-name="scaron" unicode="&#x161;" horiz-adv-x="489" 
d="M249 -16q-87 0 -143.5 38t-79.5 99l97 42q18 -41 51 -62.5t75 -21.5q43 0 72 15.5t29 46.5q0 28 -24.5 44.5t-76.5 28.5l-61 14q-61 15 -101 53t-40 96q0 44 26.5 78t71 52.5t97.5 18.5q72 0 125.5 -28t77.5 -82l-93 -42q-31 61 -109 61q-38 0 -63.5 -16t-25.5 -40
q0 -45 78 -65l74 -18q75 -19 113.5 -57t38.5 -94q0 -48 -27.5 -84.5t-75.5 -56.5t-106 -20zM89 729v7h103l46 -62h10l47 62h104v-7l-108 -121h-95z" />
    <glyph glyph-name="uni0162" unicode="&#x162;" horiz-adv-x="563" 
d="M296 -237q-34 0 -60 19t-37 48l56 24q6 -14 16.5 -23t24.5 -9q17 0 27.5 11t10.5 26q0 16 -10.5 28t-27.5 12q-19 0 -32 -15l-52 23l35 93h-20v612h-201v104h511v-104h-200v-612h-29l-22 -48q12 2 21 2q38 0 65 -26.5t27 -68.5q0 -40 -29 -68t-74 -28z" />
    <glyph glyph-name="uni0163" unicode="&#x163;" horiz-adv-x="392" 
d="M272 -8q-15 0 -22 1l-20 -41q12 2 20 2q39 0 65.5 -26.5t26.5 -68.5q0 -40 -29 -68t-74 -28q-33 0 -59.5 19t-37.5 48l57 24q5 -14 15.5 -23.5t24.5 -9.5q17 0 27.5 11t10.5 27q0 17 -10.5 28.5t-27.5 11.5q-19 0 -31 -15l-53 23l42 100q-22 11 -37 25q-43 41 -43 116
v268h-89v94h89v144h108v-144h125v-94h-125v-245q0 -42 16 -59q17 -19 52 -19q18 0 31 4.5t29 14.5v-105q-34 -15 -81 -15z" />
    <glyph glyph-name="Tcaron" unicode="&#x164;" horiz-adv-x="563" 
d="M227 612h-201v104h511v-104h-200v-612h-110v612zM127 900v6h103l46 -61h10l47 61h104v-6l-108 -121h-95z" />
    <glyph glyph-name="tcaron" unicode="&#x165;" horiz-adv-x="384" 
d="M281 716h101l-25 -147h-76v147zM272 -8q-34 0 -63.5 10.5t-48.5 29.5q-43 41 -43 116v268h-89v94h89v144h108v-144h125v-94h-125v-245q0 -42 16 -59q17 -19 52 -19q18 0 31 4.5t29 14.5v-105q-34 -15 -81 -15z" />
    <glyph glyph-name="Tbar" unicode="&#x166;" horiz-adv-x="563" 
d="M337 612v-195h128v-86h-128v-331h-110v331h-129v86h129v195h-201v104h511v-104h-200z" />
    <glyph glyph-name="tbar" unicode="&#x167;" horiz-adv-x="392" 
d="M293 93q18 0 31 4.5t29 14.5v-105q-34 -15 -81 -15q-34 0 -63.5 10.5t-48.5 29.5q-43 41 -43 116v80h-89v88h89v100h-89v94h89v144h108v-144h125v-94h-125v-100h118v-88h-118v-57q0 -42 16 -59q17 -19 52 -19z" />
    <glyph glyph-name="Utilde" unicode="&#x168;" horiz-adv-x="673" 
d="M336 -16q-80 0 -141.5 36t-95 102t-33.5 153v441h109v-447q0 -81 42 -131t119 -50q78 0 120 50t42 131v447h109v-441q0 -86 -33 -152t-94 -102.5t-144 -36.5zM396 776q-20 0 -38 7.5t-43 21.5q-27 16 -38 16q-28 0 -31 -33h-80q0 58 33.5 89t77.5 31q21 0 39 -7.5
t44 -22.5q2 -1 15 -8t21 -7q29 0 32 33h81q0 -58 -34 -89t-79 -31z" />
    <glyph glyph-name="utilde" unicode="&#x169;" horiz-adv-x="580" 
d="M248 -16q-92 0 -140.5 55.5t-48.5 154.5v316h108v-301q0 -62 29 -94t78 -32q40 0 71 21t47.5 56t16.5 76v274h107v-510h-101v69h-6q-22 -37 -66 -61t-95 -24zM347 612q-20 0 -38 7.5t-43 21.5q-27 16 -38 16q-28 0 -31 -33h-80q0 58 33.5 88.5t77.5 30.5q21 0 39 -7.5
t44 -22.5q2 -1 15 -8t21 -7q29 0 32 33h81q0 -57 -34 -88t-79 -31z" />
    <glyph glyph-name="Umacron" unicode="&#x16a;" horiz-adv-x="673" 
d="M336 -16q-80 0 -141.5 36t-95 102t-33.5 153v441h109v-447q0 -81 42 -131t119 -50q78 0 120 50t42 131v447h109v-441q0 -86 -33 -152t-94 -102.5t-144 -36.5zM194 884h286v-82h-286v82z" />
    <glyph glyph-name="umacron" unicode="&#x16b;" horiz-adv-x="580" 
d="M248 -16q-92 0 -140.5 55.5t-48.5 154.5v316h108v-301q0 -62 29 -94t78 -32q40 0 71 21t47.5 56t16.5 76v274h107v-510h-101v69h-6q-22 -37 -66 -61t-95 -24zM146 720h286v-83h-286v83z" />
    <glyph glyph-name="Ubreve" unicode="&#x16c;" horiz-adv-x="673" 
d="M336 -16q-80 0 -141.5 36t-95 102t-33.5 153v441h109v-447q0 -81 42 -131t119 -50q78 0 120 50t42 131v447h109v-441q0 -86 -33 -152t-94 -102.5t-144 -36.5zM338 768q-34 0 -64.5 17t-49 46.5t-18.5 65.5h80q0 -22 14 -37.5t38 -15.5q22 0 36 15.5t14 37.5h80
q0 -36 -18 -65.5t-48 -46.5t-64 -17z" />
    <glyph glyph-name="ubreve" unicode="&#x16d;" horiz-adv-x="580" 
d="M248 -16q-92 0 -140.5 55.5t-48.5 154.5v316h108v-301q0 -62 29 -94t78 -32q40 0 71 21t47.5 56t16.5 76v274h107v-510h-101v69h-6q-22 -37 -66 -61t-95 -24zM289 603q-34 0 -64.5 17t-49 47t-18.5 66h80q0 -22 14 -37.5t38 -15.5q22 0 36 15.5t14 37.5h80q0 -36 -18 -66
t-48 -47t-64 -17z" />
    <glyph glyph-name="Uring" unicode="&#x16e;" horiz-adv-x="673" 
d="M336 -16q-80 0 -141.5 36t-95 102t-33.5 153v441h109v-447q0 -81 42 -131t119 -50q78 0 120 50t42 131v447h109v-441q0 -86 -33 -152t-94 -102.5t-144 -36.5zM336 751q-44 0 -74.5 30.5t-30.5 74.5t30.5 74.5t74.5 30.5t75 -30.5t31 -74.5t-31 -74.5t-75 -30.5zM336 814
q17 0 29.5 12.5t12.5 29.5t-12.5 29t-29.5 12t-29 -12t-12 -29t12 -29.5t29 -12.5z" />
    <glyph glyph-name="uring" unicode="&#x16f;" horiz-adv-x="580" 
d="M248 -16q-92 0 -140.5 55.5t-48.5 154.5v316h108v-301q0 -62 29 -94t78 -32q40 0 71 21t47.5 56t16.5 76v274h107v-510h-101v69h-6q-22 -37 -66 -61t-95 -24zM287 586q-44 0 -74.5 31t-30.5 75t30.5 74.5t74.5 30.5t75 -30.5t31 -74.5t-31 -75t-75 -31zM287 650
q17 0 29.5 12.5t12.5 29.5t-12.5 29t-29.5 12t-29 -12t-12 -29t12 -29.5t29 -12.5z" />
    <glyph glyph-name="Uhungarumlaut" unicode="&#x170;" horiz-adv-x="673" 
d="M336 -16q-80 0 -141.5 36t-95 102t-33.5 153v441h109v-447q0 -81 42 -131t119 -50q78 0 120 50t42 131v447h109v-441q0 -86 -33 -152t-94 -102.5t-144 -36.5zM259 904h122l-80 -131h-89zM421 904h122l-80 -131h-89z" />
    <glyph glyph-name="uhungarumlaut" unicode="&#x171;" horiz-adv-x="580" 
d="M248 -16q-92 0 -140.5 55.5t-48.5 154.5v316h108v-301q0 -62 29 -94t78 -32q40 0 71 21t47.5 56t16.5 76v274h107v-510h-101v69h-6q-22 -37 -66 -61t-95 -24zM202 740h122l-80 -131h-89zM381 740h122l-80 -131h-89z" />
    <glyph glyph-name="Uogonek" unicode="&#x172;" horiz-adv-x="677" 
d="M417 -224q-57 0 -91 32t-34 81q0 29 14.5 53.5t35.5 42.5q-4 -1 -15 -1q-77 2 -136 38.5t-91 101.5t-32 151v441h109v-447q0 -81 42 -131t119 -50q78 0 120 50t42 131v447h109v-441q0 -82 -30 -146t-85 -100q-48 -33 -78.5 -62.5t-30.5 -60.5q0 -21 12.5 -34.5
t32.5 -13.5q19 0 41 11v-84q-20 -9 -54 -9z" />
    <glyph glyph-name="uogonek" unicode="&#x173;" horiz-adv-x="580" 
d="M476 -224q-57 0 -90.5 32t-33.5 81q0 37 19.5 64t44.5 44l-1 3v69h-6q-22 -37 -66 -61t-95 -24q-92 0 -140.5 55.5t-48.5 154.5v316h108v-301q0 -62 29 -94t78 -32q40 0 71 21t47.5 56t16.5 76v274h107v-510q-35 -26 -53 -47t-18 -47q0 -21 12.5 -34.5t33.5 -13.5
q18 0 40 11v-84q-20 -9 -55 -9z" />
    <glyph glyph-name="Wcircumflex" unicode="&#x174;" horiz-adv-x="964" 
d="M17 716h122l114 -465l12 -62h6l15 62l144 465h110l138 -465l15 -61h6l12 61l114 465h121l-189 -716h-116l-137 475l-16 67h-6l-17 -67l-143 -475h-113zM331 785l107 121h95l108 -121v-6h-104l-47 61h-10l-46 -61h-103v6z" />
    <glyph glyph-name="wcircumflex" unicode="&#x175;" horiz-adv-x="805" 
d="M7 510h117l105 -367h4l115 367h111l115 -367h4l105 367h115l-164 -510h-113l-118 369h-4l-117 -369h-112zM249 615l107 121h95l108 -121v-7h-104l-47 61h-10l-46 -61h-103v7z" />
    <glyph glyph-name="Ycircumflex" unicode="&#x176;" horiz-adv-x="618" 
d="M257 332l-242 384h130l163 -269h6l159 269h131l-238 -384v-332h-109v332zM155 785l107 121h95l108 -121v-6h-104l-47 61h-10l-46 -61h-103v6z" />
    <glyph glyph-name="ycircumflex" unicode="&#x177;" horiz-adv-x="547" 
d="M221 28l-213 482h120l146 -348h5l141 348h119l-315 -726h-115zM120 615l107 121h95l108 -121v-7h-104l-47 61h-10l-46 -61h-103v7z" />
    <glyph glyph-name="Ydieresis" unicode="&#x178;" horiz-adv-x="618" 
d="M257 332l-242 384h130l163 -269h6l159 269h131l-238 -384v-332h-109v332zM220 780q-25 0 -43.5 19t-18.5 44q0 26 18 44.5t44 18.5q27 0 44.5 -18t17.5 -45q0 -25 -18 -44t-44 -19zM397 780q-25 0 -43.5 19t-18.5 44q0 26 18.5 44.5t43.5 18.5q27 0 45 -18.5t18 -44.5
q0 -25 -18.5 -44t-44.5 -19z" />
    <glyph glyph-name="Zacute" unicode="&#x179;" horiz-adv-x="591" 
d="M38 112l375 500h-359v104h486v-112l-372 -500h376v-104h-506v112zM300 904h122l-80 -131h-89z" />
    <glyph glyph-name="zacute" unicode="&#x17a;" horiz-adv-x="499" 
d="M37 90l284 326h-275v94h407v-90l-283 -326h291v-94h-424v90zM252 740h122l-80 -131h-89z" />
    <glyph glyph-name="Zdotaccent" unicode="&#x17b;" horiz-adv-x="591" 
d="M38 112l375 500h-359v104h486v-112l-372 -500h376v-104h-506v112zM297 796q-24 0 -41.5 18t-17.5 42q0 25 17.5 42.5t41.5 17.5q25 0 42.5 -17.5t17.5 -42.5q0 -24 -17.5 -42t-42.5 -18z" />
    <glyph glyph-name="zdotaccent" unicode="&#x17c;" horiz-adv-x="499" 
d="M37 90l284 326h-275v94h407v-90l-283 -326h291v-94h-424v90zM249 610q-26 0 -45 19.5t-19 45.5q0 27 19 45.5t45 18.5q28 0 46 -18.5t18 -45.5t-18.5 -46t-45.5 -19z" />
    <glyph glyph-name="Zcaron" unicode="&#x17d;" horiz-adv-x="591" 
d="M38 112l375 500h-359v104h486v-112l-372 -500h376v-104h-506v112zM143 900v6h103l46 -61h10l47 61h104v-6l-108 -121h-95z" />
    <glyph glyph-name="zcaron" unicode="&#x17e;" horiz-adv-x="499" 
d="M37 90l284 326h-275v94h407v-90l-283 -326h291v-94h-424v90zM96 729v7h103l46 -62h10l47 62h104v-7l-108 -121h-95z" />
    <glyph glyph-name="longs" unicode="&#x17f;" horiz-adv-x="256" 
d="M187 0h-119v579q0 88 48 134.5t133 46.5q30 0 74 -10l-12 -90q-21 5 -45 5q-80 0 -79 -86v-579z" />
    <glyph glyph-name="uni0180" unicode="&#x180;" horiz-adv-x="606" 
d="M515 66q-53 -76 -153 -76q-92 0 -145 68l-6 -58h-107v594h-92v83h92v73h118v-73h117v-83h-117v-116q52 61 139 60q102 0 154 -75t52 -194v-10q0 -117 -52 -193zM222 373v-217q33 -69 110 -69q66 0 92 50q25 49 25 132q0 70 -25 121t-93 51q-76 0 -109 -68z" />
    <glyph glyph-name="uni0181" unicode="&#x181;" horiz-adv-x="754" 
d="M17 553q0 77 46.5 117.5t133.5 40.5h243q116 0 181.5 -46.5t65.5 -145.5q0 -48 -26.5 -87.5t-76.5 -60.5q61 -16 90.5 -62t29.5 -101q0 -102 -66 -155t-180 -53h-261v612q-44 0 -62 -24.5t-18 -61.5q0 -18 5 -37h-97q-8 28 -8 64zM320 612v-200h121q58 0 90.5 26t32.5 74
q0 98 -118 100h-126zM581 208q0 109 -111 113h-150v-222h138q61 0 92 30t31 79z" />
    <glyph glyph-name="uni0182" unicode="&#x182;" horiz-adv-x="628" 
d="M595 222q0 -98 -67 -160q-68 -62 -189 -62h-268v711h451v-99h-328v-173h147q120 0 187 -59q67 -60 67 -158zM440 136q31 37 31 87q0 49 -31 83q-32 34 -101 34h-145v-241h145q69 0 101 37z" />
    <glyph glyph-name="uni0183" unicode="&#x183;" horiz-adv-x="562" 
d="M61 0v750h358v-83h-240v-189q52 61 139 60q102 0 154 -75t52 -194v-10q0 -117 -52.5 -193t-152.5 -76q-92 0 -145 68l-6 -58h-107zM288 441q-76 0 -109 -68v-217q33 -69 110 -69q66 0 91.5 49.5t25.5 132.5q0 70 -25 121t-93 51z" />
    <glyph glyph-name="uni0184" unicode="&#x184;" horiz-adv-x="683" 
d="M583 380q67 -60 67 -158t-67.5 -160t-188.5 -62h-268v472l-84 93v53l84 93h124v-272h146q120 0 187 -59zM250 99h144q69 0 100.5 37t31.5 87q0 49 -31.5 83t-100.5 34h-144v-241z" />
    <glyph glyph-name="uni0185" unicode="&#x185;" horiz-adv-x="625" 
d="M587 259q0 -117 -53 -193t-153 -76q-92 0 -145 67l-6 -57h-107v511l-84 93v53l84 93h119v-272q52 60 138 60q102 0 154 -74t53 -193v-12zM350 441q-76 0 -108 -67v-218q33 -69 109 -69q65 0 91 49.5t26 132.5q0 70 -25 121t-93 51z" />
    <glyph glyph-name="uni0186" unicode="&#x186;" horiz-adv-x="652" 
d="M38 235h123q8 -68 40.5 -106.5t109.5 -38.5q83 0 125.5 61t42.5 173v61q0 106 -38 171t-125 65q-80 0 -113 -36.5t-42 -105.5h-123q10 104 79 173t199 69t207.5 -89.5t79.5 -239.5v-65q0 -154 -79 -245.5t-213 -91.5q-128 0 -195 69.5t-78 175.5z" />
    <glyph glyph-name="uni0187" unicode="&#x187;" horiz-adv-x="715" 
d="M705 649q-37 0 -63.5 -15.5t-26.5 -64.5v-93h-123q-8 68 -41 106.5t-109 38.5q-84 0 -125.5 -61t-42.5 -172v-61q0 -106 38 -171.5t124 -65.5q80 0 113.5 36.5t42.5 104.5h123q-9 -104 -78.5 -172.5t-200.5 -68.5t-208.5 91.5t-77.5 245.5v57q0 153 79 245t213 92
q118 0 188 -63q36 94 148 94q33 0 64 -8v-98q-16 3 -37 3z" />
    <glyph glyph-name="uni0188" unicode="&#x188;" horiz-adv-x="597" 
d="M572 491q-32 0 -54.5 -15t-22.5 -57v-80h-112q-2 42 -29.5 73t-75.5 31q-72 0 -96.5 -53.5t-24.5 -116.5v-18q0 -64 24 -117t97 -53q43 0 73 25.5t32 64.5h112q-2 -77 -64.5 -131t-151.5 -54q-122 0 -181 78t-59 187v18q0 108 59.5 186.5t180.5 78.5q87 0 145 -47
q28 83 125 84q29 0 54 -8v-79q-14 3 -31 3z" />
    <glyph glyph-name="uni0189" unicode="&#x189;" horiz-adv-x="690" 
d="M551 619q89 -92 89 -246v-36q0 -154 -89 -245q-90 -92 -237 -92h-204v316h-94v83h94v312h209q143 0 232 -92zM465 162q50 62 51 171v41q0 115 -50 177q-51 61 -147 61h-86v-213h110v-83h-110v-217h81q100 0 151 63z" />
    <glyph glyph-name="uni018A" unicode="&#x18a;" horiz-adv-x="777" 
d="M17 553q0 158 180 158h210q143 0 231.5 -92t88.5 -246v-36q0 -154 -89 -245.5t-237 -91.5h-204v612q-45 0 -62.5 -24.5t-17.5 -61.5q0 -18 5 -37h-97q-8 28 -8 64zM320 612v-513h81q100 0 151 62.5t52 171.5v41q0 115 -51 176.5t-146 61.5h-87z" />
    <glyph glyph-name="uni018B" unicode="&#x18b;" horiz-adv-x="628" 
d="M562 0h-270q-120 0 -187 62.5t-67 159.5q0 99 67.5 158t188.5 59h145v173h-328v99h451v-711zM439 99v241h-145q-69 0 -100.5 -34.5t-31.5 -82.5q0 -49 31.5 -86.5t100.5 -37.5h145z" />
    <glyph glyph-name="uni018C" unicode="&#x18c;" horiz-adv-x="564" 
d="M144 667v83h358v-750h-108l-5 55q-53 -64 -142 -65q-95 0 -151.5 76.5t-56.5 191.5v11q0 121 56 195t153 74q84 0 135 -58v187h-239zM157 258q0 -71 28 -121t92 -50q73 0 106 66v225q-33 63 -105 63q-64 0 -92.5 -50.5t-28.5 -121.5v-11z" />
    <glyph glyph-name="uni018D" unicode="&#x18d;" horiz-adv-x="566" 
d="M461 -184h-365v95h209q-24 24 -92 78q-75 63 -123.5 130t-48.5 149v10q0 111 63 185.5t178.5 74.5t179 -72.5t63.5 -180.5v-10q0 -93 -56.5 -158.5t-152.5 -78.5l-16 -1l83 -76q46 -42 78 -78v-67zM407 278q0 67 -28.5 115.5t-95.5 48.5q-66 0 -95 -48t-29 -116v-10
q0 -56 25 -97.5t57 -62.5q14 -4 36 -4q69 0 99.5 49t30.5 115v10z" />
    <glyph glyph-name="uni018E" unicode="&#x18e;" horiz-adv-x="565" 
d="M28 612v99h465v-711h-461v99h338v197h-292v97h292v219h-342z" />
    <glyph glyph-name="uni018F" unicode="&#x18f;" horiz-adv-x="691" 
d="M640 326q0 -99 -40 -175t-108 -118.5t-152 -42.5q-148 0 -224 89.5t-76 240.5v70h477q-1 94 -50 160t-161 66q-64 0 -108.5 -11.5t-72.5 -22.5l-24 96q16 9 71.5 26t136.5 17q161 0 246 -95t85 -243v-57zM340 94q79 0 123.5 57.5t51.5 141.5h-352v-15q0 -77 39 -130.5
t138 -53.5z" />
    <glyph glyph-name="uni0190" unicode="&#x190;" horiz-adv-x="604" 
d="M387 411v-97h-83q-69 0 -103.5 -27t-34.5 -88q0 -57 39.5 -83.5t106.5 -26.5q62 0 97.5 31t35.5 77h123q0 -73 -38 -118.5t-97 -67t-121 -21.5q-117 0 -193.5 49t-76.5 160q0 122 122 165q-51 21 -81 60.5t-30 93.5q0 100 71 151.5t188 51.5q100 0 173 -53t73 -146h-123
q0 45 -35 72.5t-88 27.5q-71 0 -103.5 -30t-32.5 -74q0 -48 29 -77.5t99 -29.5h83z" />
    <glyph glyph-name="uni0191" unicode="&#x191;" horiz-adv-x="590" 
d="M564 612h-328v-212h286v-99h-286v-332q0 -88 -46.5 -135t-127.5 -47q-34 0 -62 8l7 100q24 -6 46 -6q60 0 60 80v742h451v-99z" />
    <glyph glyph-name="florin" unicode="&#x192;" horiz-adv-x="600" 
d="M501 620q-32 0 -54 -17.5t-29 -51.5l-28 -140h121v-94h-140l-77 -389q-13 -66 -56.5 -107t-112.5 -41q-38 0 -69 10v105q31 -15 63 -15q29 0 48.5 18t26.5 53l72 366h-100v94h119l29 148q14 75 63 118t123 43q21 0 33.5 -2t28.5 -7v-105q-28 14 -61 14z" />
    <glyph glyph-name="uni0193" unicode="&#x193;" horiz-adv-x="716" 
d="M618 494h-122q-9 55 -43 91.5t-106 36.5q-86 0 -128 -62t-43 -176v-52q0 -117 49 -180t134 -63q64 0 93 14.5t42 28.5v139h-146v94h269v-272q-22 -30 -82 -66.5t-180 -36.5q-134 0 -218.5 89.5t-84.5 252.5v46q0 163 77.5 253t215.5 90q120 0 190 -60q36 91 145 91
q34 0 64 -8v-97q-18 4 -36 5q-37 0 -63.5 -17t-26.5 -66v-75z" />
    <glyph glyph-name="uni0194" unicode="&#x194;" horiz-adv-x="648" 
d="M474 -87q0 -63 -42 -94.5t-108 -31.5t-108.5 31.5t-42.5 94.5q0 32 28 92.5t64 143.5l-253 562h139l172 -421l175 421h139l-254 -565q35 -82 63 -141.5t28 -91.5zM293 -85q0 -37 31 -37t31 37q0 30 -31 102q-31 -72 -31 -102z" />
    <glyph glyph-name="uni0195" unicode="&#x195;" horiz-adv-x="842" 
d="M325 538q102 0 137 -59t35 -142v-128q0 -70 25 -96t58.5 -26t58.5 26.5t25 98.5v316h119v-320q-1 -116 -52.5 -167t-149.5 -51q-99 0 -150.5 51t-52.5 167v129q0 46 -18 75t-75 29q-72 0 -107 -64v-377h-118v750h118v-280q58 68 147 68z" />
    <glyph glyph-name="uni0196" unicode="&#x196;" horiz-adv-x="338" 
d="M189 750v-579q0 -85 80 -86q20 0 44 6l13 -91q-44 -10 -75 -10q-84 0 -132.5 46.5t-48.5 135.5v578h119z" />
    <glyph glyph-name="uni0197" unicode="&#x197;" horiz-adv-x="346" 
d="M336 316h-102v-316h-123v316h-102v83h102v312h123v-312h102v-83z" />
    <glyph glyph-name="uni0198" unicode="&#x198;" horiz-adv-x="630" 
d="M490 0l-212 306l-82 -92v-214h-123v711h123v-341l69 92l113 147q37 50 69 81t84 31q54 0 105 -34l-44 -86q-21 13 -46 13q-15 0 -27 -8.5t-36 -40.5l-126 -167l280 -398h-147z" />
    <glyph glyph-name="uni0199" unicode="&#x199;" horiz-adv-x="521" 
d="M256 677q-32 0 -54 -15.5t-22 -57.5v-287l37 47l146 164h143l-197 -219l218 -309h-137l-157 228l-53 -55v-173h-119v604q0 77 45.5 116.5t121.5 39.5q37 0 60 -7v-80q-15 4 -32 4z" />
    <glyph glyph-name="uni019A" unicode="&#x19a;" horiz-adv-x="346" 
d="M336 352h-104v-352h-119v352h-104v83h104v315h119v-315h104v-83z" />
    <glyph glyph-name="uni019B" unicode="&#x19b;" horiz-adv-x="551" 
d="M536 -4q-20 -4 -46 -5q-49 0 -78.5 20t-51.5 76l-99 262l-121 -349h-129l188 508l-11 28l-92 -33v89l59 21q-19 40 -57 39l-26 -1l-1 89q27 8 63 8q52 0 81.5 -20.5t44.5 -58.5l6 -17l87 31v-89l-56 -20l172 -439q19 -46 49 -46l17 1z" />
    <glyph glyph-name="uni019C" unicode="&#x19c;" horiz-adv-x="905" 
d="M722 0l-5 57q-53 -66 -149 -67q-113 0 -152 91q-53 -90 -167 -91q-79 0 -126.5 47t-47.5 173v501h118v-499q0 -72 25.5 -98.5t58.5 -26.5q91 0 119 82l-2 33v509h118v-499q0 -72 25 -98.5t59 -26.5q89 0 116 77v547h119v-711h-109z" />
    <glyph glyph-name="uni019D" unicode="&#x19d;" horiz-adv-x="750" 
d="M554 0l-318 504v-535q0 -88 -46.5 -135t-127.5 -47q-34 0 -62 8l7 100q24 -6 46 -6q60 0 60 80v742h123l319 -506v506h122v-711h-123z" />
    <glyph glyph-name="uni019E" unicode="&#x19e;" horiz-adv-x="566" 
d="M503 -203h-119v541q0 58 -24.5 81.5t-71.5 23.5q-74 0 -108 -60v-383h-118v528h108l6 -64q58 74 153 74q79 0 126 -42.5t48 -154.5v-544z" />
    <glyph glyph-name="uni019F" unicode="&#x19f;" horiz-adv-x="685" 
d="M637 337q0 -162 -81 -254.5t-214 -92.5q-130 0 -213 92.5t-83 254.5v36q0 162 82.5 255t212.5 93q131 0 212.5 -91t83.5 -250v-43zM341 619q-76 0 -121 -57t-50 -166h343q-4 109 -49 166t-123 57zM342 92q161 0 171 220h-343q5 -107 51 -163.5t121 -56.5z" />
    <glyph glyph-name="Ohorn" unicode="&#x1a0;" horiz-adv-x="832" 
d="M416 -16q-104 0 -189 50t-133.5 135.5t-48.5 188.5t48.5 188.5t133.5 135.5t189 50q45 0 115 -8q78 -8 133 -8q28 0 39.5 9.5t11.5 29.5v74h82v-83q0 -109 -101 -109q-23 0 -47 6v-4q66 -47 101.5 -120.5t35.5 -160.5q0 -103 -48.5 -188.5t-133 -135.5t-188.5 -50z
M416 88q72 0 131.5 34.5t94 96t34.5 139.5t-34.5 139.5t-94 96t-131.5 34.5t-131.5 -34.5t-94 -96t-34.5 -139.5t34.5 -139.5t94 -96t131.5 -34.5z" />
    <glyph glyph-name="ohorn" unicode="&#x1a1;" horiz-adv-x="605" 
d="M303 -16q-77 0 -138 35.5t-95 97.5t-34 138t34 138t95 97.5t138 35.5q41 0 81 -9q6 -1 25 -4t38 -3q30 0 42 9.5t12 30.5v73h82v-94q0 -40 -18 -63t-50 -23q-11 0 -22 3v-4q76 -72 76 -187q0 -76 -34 -138t-94.5 -97.5t-137.5 -35.5zM303 83q43 0 79 21t58 60t22 91
t-22 91t-58 60t-79 21t-79.5 -21t-58.5 -60t-22 -91t22 -91t58.5 -60t79.5 -21z" />
    <glyph glyph-name="uni01A2" unicode="&#x1a2;" horiz-adv-x="875" 
d="M353 -10q-133 0 -218 88t-85 254v47q0 162 84.5 252t218.5 90q87 0 141 -21t84 -47l133 58h90v-914h-118v784l-71 -29v-459q-22 -30 -80.5 -66.5t-178.5 -36.5zM356 622q-86 0 -134.5 -62t-48.5 -181v-47q0 -112 46.5 -177.5t139.5 -65.5q64 0 93 15.5t42 28.5v445
q-15 15 -44.5 29.5t-93.5 14.5z" />
    <glyph glyph-name="uni01A3" unicode="&#x1a3;" horiz-adv-x="701" 
d="M520 384l-55 -28v-276q-28 -39 -74 -64.5t-112 -25.5q-122 0 -181 78t-59 187v18q0 108 59.5 186.5t180.5 78.5q52 0 93 -18.5t68 -45.5l111 54h87v-731h-118v587zM278 85q41 0 68 22v311q-27 25 -68 25q-72 0 -96.5 -53.5t-24.5 -116.5v-18q0 -78 29.5 -124t91.5 -46z
" />
    <glyph glyph-name="uni01A4" unicode="&#x1a4;" horiz-adv-x="763" 
d="M17 553q0 77 46.5 117.5t133.5 40.5h272q124 0 191.5 -64t67.5 -162q0 -103 -67.5 -162t-191.5 -59h-149v-264h-123v612q-44 0 -62 -24.5t-18 -61.5q0 -18 5 -37h-97q-8 28 -8 64zM320 612v-249h149q72 0 103.5 34t31.5 87q0 50 -31.5 89t-103.5 39h-149z" />
    <glyph glyph-name="uni01A5" unicode="&#x1a5;" horiz-adv-x="562" 
d="M318 -10q-86 0 -139 57v-250h-118v731q1 85 53 119t113 34q36 0 61 -8v-79q-18 3 -32 4q-32 0 -54.5 -16t-22.5 -57v-45q52 58 138 58q101 0 154 -74t53 -195v-10q0 -115 -53.5 -192t-152.5 -77zM284 441q-73 0 -105 -61v-233q33 -62 106 -62q63 0 91.5 51.5t28.5 122.5
v10q0 71 -28.5 121.5t-92.5 50.5z" />
    <glyph glyph-name="uni01A6" unicode="&#x1a6;" horiz-adv-x="689" 
d="M196 0h-123v762h123v-51h133q120 -1 185 -56t65 -158q0 -71 -34.5 -119.5t-95.5 -74.5l251 -470v-7h-132l-234 448h-138v-274zM196 612v-239h127q66 0 99.5 33.5t33.5 84.5q0 55 -31 87.5t-100 33.5h-129z" />
    <glyph glyph-name="uni01A7" unicode="&#x1a7;" horiz-adv-x="604" 
d="M160 184q0 -43 32.5 -69.5t96.5 -26.5q65 0 110 29.5t45 97.5h123q0 -75 -41 -125t-105 -75t-132 -25q-115 0 -184 52.5t-69 142.5q0 84 57.5 137t180.5 89q75 22 111.5 48t36.5 65q0 42 -31.5 70.5t-96.5 28.5q-69 0 -101.5 -33.5t-32.5 -86.5h-123q0 89 68 153.5
t188 64.5q113 0 182.5 -55.5t69.5 -141.5t-64.5 -135.5t-164.5 -80.5t-128 -56.5t-28 -67.5z" />
    <glyph glyph-name="uni01A8" unicode="&#x1a8;" horiz-adv-x="516" 
d="M159 144q0 -28 24.5 -46.5t71.5 -18.5q40 0 73.5 19.5t35.5 68.5h115q0 -65 -57 -121t-166 -56q-97 0 -155.5 45t-58.5 115q0 71 52.5 106.5t143.5 55.5q64 14 86 29.5t22 41.5t-21.5 46t-66.5 20q-46 0 -69.5 -24t-23.5 -55h-119q0 71 56.5 119.5t155.5 48.5
q94 0 149 -47.5t55 -112.5q0 -66 -53 -102.5t-139 -54.5q-69 -15 -90 -33.5t-21 -43.5z" />
    <glyph glyph-name="uni01A9" unicode="&#x1a9;" horiz-adv-x="570" 
d="M35 637v74h485v-99h-323l192 -251v-9l-192 -253h341v-99h-503v74l223 282z" />
    <glyph glyph-name="uni01AA" unicode="&#x1aa;" horiz-adv-x="494" 
d="M477 -196q-29 -8 -63 -8q-154 0 -159 174v446q-30 -11 -62 -11q-75 0 -127.5 52.5t-52.5 126.5q0 75 53 128t127 53t127.5 -53t53.5 -128v-605q0 -85 66 -85q19 0 37 4v-94zM194 509q30 0 51 19t21 57.5t-21 58t-51 19.5q-31 0 -52.5 -19.5t-21.5 -58t21.5 -57.5
t52.5 -19z" />
    <glyph glyph-name="uni01AB" unicode="&#x1ab;" horiz-adv-x="333" 
d="M265 89q21 0 41 5v-130q-3 -150 -135 -150q-29 0 -54 8v79q14 -3 31 -3q32 0 54.5 15.5t22.5 57.5v19q-58 1 -96 34.5t-38 114.5v302h-87v87h87v129h118v-129h94v-87h-94v-295q0 -36 16 -46.5t40 -10.5z" />
    <glyph glyph-name="uni01AC" unicode="&#x1ac;" horiz-adv-x="664" 
d="M15 553q0 154 173 158h455v-99h-222v-612h-122v612h-102q-46 0 -63.5 -24.5t-17.5 -61.5q0 -17 4 -37h-97q-8 31 -8 64z" />
    <glyph glyph-name="uni01AD" unicode="&#x1ad;" horiz-adv-x="348" 
d="M292 682q-32 0 -54.5 -15.5t-22.5 -57.5v-81h93v-87h-93v-286q0 -40 15 -53t40 -13q21 0 41 5v-92q-34 -12 -78 -12q-59 0 -98 36.5t-39 121.5v293h-87v87h87v81q0 87 52.5 121.5t113.5 34.5q36 0 61 -7v-79q-18 3 -31 3z" />
    <glyph glyph-name="uni01AE" unicode="&#x1ae;" horiz-adv-x="607" 
d="M22 612v99h564v-99h-221v-643q0 -83 56 -82q24 0 48 6l7 -98q-28 -8 -62 -8q-80 0 -126 47t-46 135v643h-220z" />
    <glyph glyph-name="Uhorn" unicode="&#x1af;" horiz-adv-x="703" 
d="M336 -16q-80 0 -141.5 36t-95 102t-33.5 153v441h109v-447q0 -81 42 -131t119 -50q78 0 120 50t42 131v447h120q37 0 37 39v74h83v-73q0 -60 -29.5 -89.5t-90.5 -29.5h-11v-362q0 -86 -33 -152t-94 -102.5t-144 -36.5z" />
    <glyph glyph-name="uhorn" unicode="&#x1b0;" horiz-adv-x="628" 
d="M248 -16q-92 0 -140.5 55.5t-48.5 154.5v316h108v-301q0 -62 29 -94t78 -32q40 0 71 21t47.5 56t16.5 76v274h118q37 0 37 39v74h83v-73q0 -60 -29.5 -89.5t-90.5 -29.5h-11v-431h-101v69h-6q-22 -37 -66 -61t-95 -24z" />
    <glyph glyph-name="uni01B1" unicode="&#x1b1;" horiz-adv-x="665" 
d="M478 344q0 122 -32.5 186.5t-87.5 78.5v102h246v-99h-105q50 -48 80.5 -118.5t30.5 -149.5v-48q0 -136 -76.5 -221t-200.5 -85t-201.5 85t-77.5 221v48q0 79 30.5 149.5t81.5 118.5h-105v99h243v-102q-53 -14 -84.5 -77.5t-32.5 -179.5v-57q0 -102 39 -154t107 -52
q67 0 106 52t39 154v49z" />
    <glyph glyph-name="uni01B2" unicode="&#x1b2;" horiz-adv-x="654" 
d="M327 -10q-114 0 -189.5 62t-75.5 184v475h123v-475q0 -76 38.5 -111.5t103.5 -35.5q66 0 104 35.5t38 111.5v302q0 46 -18 64t-56 18q-17 0 -37 -4v96q30 8 64 9q77 0 124 -47t47 -136v-302q0 -122 -78 -184t-188 -62z" />
    <glyph glyph-name="uni01B3" unicode="&#x1b3;" horiz-adv-x="668" 
d="M367 261v-261h-124v262l-239 449h138l163 -337l80 164q55 113 90 148t90 35q62 0 113 -34l-43 -86q-21 13 -46 13q-31 0 -49.5 -30.5t-50.5 -91.5z" />
    <glyph glyph-name="uni01B4" unicode="&#x1b4;" horiz-adv-x="595" 
d="M106 -213q-17 0 -57 8v92l22 -2q42 0 65 15t38 55l18 47l-186 526h128l102 -326l9 -38l101 332q12 39 28.5 78t46.5 65t82 26q57 0 105 -38l-27 -73q-32 16 -53 16q-27 0 -44 -26t-35 -83l-177 -534q-44 -132 -149 -140h-17z" />
    <glyph glyph-name="uni01B5" unicode="&#x1b5;" horiz-adv-x="602" 
d="M42 612v99h515v-78l-159 -231h138v-83h-195l-153 -220h380v-99h-529v80l166 239h-143v83h200l145 210h-365z" />
    <glyph glyph-name="uni01B6" unicode="&#x1b6;" horiz-adv-x="509" 
d="M49 433v95h413v-74l-109 -144h84v-83h-146l-100 -132h281v-95h-429v78l113 149h-87v83h150l93 123h-263z" />
    <glyph glyph-name="uni01B7" unicode="&#x1b7;" horiz-adv-x="649" 
d="M47 612v99h512v-76l-224 -256q122 -7 194 -78.5t72 -213.5q0 -149 -78.5 -221.5t-208.5 -72.5t-199 69t-79 172h124q9 -70 41.5 -106t112.5 -36q87 0 125.5 48t38.5 147q0 109 -42 153.5t-128 44.5h-119v79l219 248h-361z" />
    <glyph glyph-name="uni01B8" unicode="&#x1b8;" horiz-adv-x="649" 
d="M462 364v-79h-119q-87 0 -129 -44.5t-42 -153.5q0 -99 38.5 -147t125.5 -48q80 0 112.5 36t42.5 106h123q-10 -103 -79 -172t-199 -69t-208.5 72.5t-78.5 221.5q0 142 72 214t194 78l-223 256v76h511v-99h-360z" />
    <glyph glyph-name="uni01B9" unicode="&#x1b9;" horiz-adv-x="568" 
d="M206 433l170 -196v-84h-73q-71 -1 -107.5 -32.5t-36.5 -104.5q0 -49 35 -81.5t97 -32.5q54 0 87 33t33 79h118q0 -73 -35 -118.5t-89.5 -67t-113.5 -21.5q-109 0 -179.5 55t-70.5 154q0 95 53 151.5t150 68.5l-183 217l1 75h443v-95h-299z" />
    <glyph glyph-name="uni01BA" unicode="&#x1ba;" horiz-adv-x="530" 
d="M337 180q0 55 -84 56h-103v72l157 125h-248v95h426l1 -70l-159 -142q60 -16 93 -53.5t33 -87.5q0 -72 -56.5 -107t-137.5 -52q-67 -14 -88 -32.5t-21 -43.5q0 -65 96 -65q38 0 72.5 19.5t36.5 68.5h116q0 -65 -57.5 -120.5t-165.5 -55.5q-97 0 -155.5 44.5t-58.5 115.5
q0 67 50.5 104t144.5 56q62 12 85 27.5t23 45.5z" />
    <glyph glyph-name="uni01BB" unicode="&#x1bb;" horiz-adv-x="582" 
d="M532 95v-95h-479v82l215 234h-132v83h203q26 35 36 61.5t10 52.5q0 49 -27.5 80.5t-78.5 31.5q-61 0 -91 -36.5t-30 -93.5h-118q0 93 63 159.5t178 66.5q106 0 164.5 -53.5t58.5 -142.5q0 -60 -38 -126h77v-83h-137l-25 -28l-180 -193h331z" />
    <glyph glyph-name="uni01BC" unicode="&#x1bc;" horiz-adv-x="585" 
d="M31 609v102h493v-102h-283l-20 -170q51 28 112 28q101 0 157.5 -64.5t56.5 -174.5q0 -99 -58 -168.5t-176 -69.5q-89 0 -157 51.5t-74 150.5h114q14 -107 116 -107q58 0 87 41t29 105q0 61 -32 100.5t-94 39.5q-42 0 -63.5 -12t-40.5 -30l-94 24l27 256h-100z" />
    <glyph glyph-name="uni01BD" unicode="&#x1bd;" horiz-adv-x="523" 
d="M22 431v97h440v-97h-248l-14 -104q17 10 45 18.5t59 8.5q89 1 139 -46.5t50 -133.5q0 -78 -51 -130t-167 -52q-51 0 -100.5 17t-82.5 52.5t-33 90.5l116 9q1 -34 28 -54t72 -20q52 0 76 25t24 65q0 41 -25.5 66t-73.5 25q-63 0 -92 -40l-104 6l24 197h-82z" />
    <glyph glyph-name="uni01BE" unicode="&#x1be;" horiz-adv-x="516" 
d="M474 150q0 -70 -58.5 -115t-155.5 -45q-109 0 -166 56t-57 121h115q2 -49 37 -68.5t72 -19.5q46 0 71 18t25 47q0 34 -26.5 52.5t-62 39t-62 54.5t-26.5 97v54h-88v87h88v129h118v-129h94v-87h-94v-50q0 -48 26.5 -71t61 -40t61.5 -45t27 -85z" />
    <glyph glyph-name="uni01BF" unicode="&#x1bf;" horiz-adv-x="562" 
d="M524 259q0 -99 -42.5 -163t-120 -105.5t-182.5 -71.5v-122h-118v731h108l6 -53q53 63 142 63q101 0 154 -74t53 -195v-10zM284 441q-73 0 -105 -61v-367q99 27 162 84t64 159v13q0 71 -28.5 121.5t-92.5 50.5z" />
    <glyph glyph-name="uni01C0" unicode="&#x1c0;" horiz-adv-x="244" 
d="M163 711v-711h-81v711h81z" />
    <glyph glyph-name="uni01C1" unicode="&#x1c1;" horiz-adv-x="376" 
d="M295 711v-711h-81v711h81zM163 711v-711h-81v711h81z" />
    <glyph glyph-name="uni01C2" unicode="&#x1c2;" horiz-adv-x="346" 
d="M336 444h-120v-151h120v-83h-120v-210h-81v210h-126v83h126v151h-126v83h126v184h81v-184h120v-83z" />
    <glyph glyph-name="uni01C3" unicode="&#x1c3;" horiz-adv-x="268" 
d="M199 711l-12 -502h-102l-12 502h126zM88 12q-18 18 -18 45t17.5 45.5t49.5 18.5t50 -18.5t18 -45.5t-18 -45.5t-50 -18.5t-49 19z" />
    <glyph glyph-name="uni01C4" unicode="&#x1c4;" horiz-adv-x="1177" 
d="M806 907l72 -76l71 76h102v-5l-136 -136h-74l-135 136v5h100zM617 612v99h515v-78l-369 -534h380v-99h-529v80l368 532h-365zM73 0v711h209q143 0 232 -92t89 -246v-36q0 -154 -89.5 -245.5t-236.5 -91.5h-204zM196 612v-513h81q100 0 150.5 62.5t51.5 171.5v41
q0 115 -50.5 176.5t-146.5 61.5h-86z" />
    <glyph glyph-name="uni01C5" unicode="&#x1c5;" horiz-adv-x="1104" 
d="M788 743l68 -70l68 70h101v-9l-131 -123h-77l-130 123v9h101zM73 0v711h209q143 0 232 -92t89 -246v-36q0 -154 -89.5 -245.5t-236.5 -91.5h-204zM196 612v-513h81q100 0 150.5 62.5t51.5 171.5v41q0 115 -50.5 176.5t-146.5 61.5h-86zM646 433v95h414v-74l-271 -359h281
v-95h-429v78l268 355h-263z" />
    <glyph glyph-name="uni01C6" unicode="&#x1c6;" horiz-adv-x="1011" 
d="M399 0l-8 57q-53 -67 -144 -67q-95 0 -151.5 76.5t-56.5 191.5v11q0 121 56 195t153 74q84 0 135 -58v282h119v-762h-103zM695 743l68 -70l68 70h102v-9l-132 -123h-76l-131 123v9h101zM553 433v95h414v-74l-271 -359h281v-95h-429v78l268 355h-263zM157 258
q0 -71 28 -121t92 -50q73 0 106 66v225q-33 63 -105 63q-64 0 -92.5 -50.5t-28.5 -121.5v-11z" />
    <glyph glyph-name="uni01C7" unicode="&#x1c7;" horiz-adv-x="1096" 
d="M906 711h123v-498q0 -106 -66.5 -164.5t-166.5 -58.5q-101 0 -166.5 52t-65.5 161h124q0 -62 30 -88t78 -26t79 32t31 92v498zM519 99v-99h-446v711h123v-612h323z" />
    <glyph glyph-name="uni01C8" unicode="&#x1c8;" horiz-adv-x="791" 
d="M598 666q0 27 17.5 45t49.5 18t49.5 -18t17.5 -45t-17.5 -45t-49.5 -18t-49.5 18t-17.5 45zM608 528h119v-575q0 -167 -159 -166q-33 0 -63 8v93q22 -4 43 -4q60 0 60 69v575zM519 99v-99h-446v711h123v-612h323z" />
    <glyph glyph-name="uni01C9" unicode="&#x1c9;" horiz-adv-x="506" 
d="M312 666q0 27 17.5 45t49.5 18t49.5 -18t17.5 -45t-17.5 -45t-49.5 -18t-49.5 18t-17.5 45zM322 528h119v-575q0 -167 -159 -166q-33 0 -63 8v93q22 -4 43 -4q60 0 60 69v575zM187 750v-750h-119v750h119z" />
    <glyph glyph-name="uni01CA" unicode="&#x1ca;" horiz-adv-x="1265" 
d="M1074 711h123v-498q0 -106 -66.5 -164.5t-166.5 -58.5q-101 0 -166.5 52t-65.5 161h124q0 -62 30 -88t78 -26t79 32t31 92v498zM637 711v-711h-124l-317 504v-504h-123v711h123l318 -506v506h123z" />
    <glyph glyph-name="uni01CB" unicode="&#x1cb;" horiz-adv-x="960" 
d="M766 666q0 27 17.5 45t49.5 18t49.5 -18t17.5 -45t-17.5 -45t-49.5 -18t-49.5 18t-17.5 45zM776 528h119v-575q0 -167 -159 -166q-33 0 -63 8v93q22 -4 43 -4q60 0 60 69v575zM637 711v-711h-124l-317 504v-504h-123v711h123l318 -506v506h123z" />
    <glyph glyph-name="uni01CC" unicode="&#x1cc;" horiz-adv-x="806" 
d="M612 666q0 27 17.5 45t49.5 18t49.5 -18t17.5 -45t-17.5 -45t-49.5 -18t-49.5 18t-17.5 45zM622 528h119v-575q0 -167 -159 -166q-33 0 -63 8v93q22 -4 43 -4q60 0 60 69v575zM285 441q-71 0 -107 -64v-377h-118v528h111l4 -60q58 70 153 70q76 0 122 -44t47 -150v-344
h-119v343q0 55 -23.5 76.5t-69.5 21.5z" />
    <glyph glyph-name="uni01CD" unicode="&#x1cd;" horiz-adv-x="696" 
d="M285 716h125l271 -716h-121l-66 184h-292l-66 -184h-121zM458 286l-80 219l-27 82h-6l-27 -82l-80 -219h220zM194 900v6h103l46 -61h10l47 61h104v-6l-108 -121h-95z" />
    <glyph glyph-name="uni01CE" unicode="&#x1ce;" horiz-adv-x="541" 
d="M205 751l72 -76l71 76h102v-5l-136 -136h-74l-135 136v5h100zM377 0q-9 18 -14 50q-56 -60 -139 -60q-79 0 -129.5 45.5t-50.5 112.5q0 84 63 129.5t178 45.5h74v34q0 42 -23 66.5t-69 24.5q-42 0 -67.5 -21t-25.5 -51h-118q0 62 58.5 112t158.5 50q89 0 147 -45.5
t58 -136.5v-234q0 -71 20 -114v-8h-121zM247 85q41 0 70.5 20t41.5 44v100h-72q-125 -3 -124 -89q0 -32 21.5 -53.5t62.5 -21.5z" />
    <glyph glyph-name="uni01CF" unicode="&#x1cf;" horiz-adv-x="282" 
d="M69 906l72 -76l71 76h102v-5l-136 -136h-74l-135 136v5h100zM203 711v-711h-123v711h123z" />
    <glyph glyph-name="uni01D0" unicode="&#x1d0;" horiz-adv-x="263" 
d="M59 748l72 -76l71 76h102v-5l-136 -136h-74l-135 136v5h100zM189 528v-528h-119v528h119z" />
    <glyph glyph-name="uni01D1" unicode="&#x1d1;" horiz-adv-x="690" 
d="M274 902l72 -76l71 76h102v-5l-136 -136h-74l-135 136v5h100zM640 337q0 -162 -80.5 -254.5t-213.5 -92.5q-130 0 -213 92.5t-83 254.5v36q0 162 82.5 255t212.5 93q133 0 214 -93t81 -255v-36zM517 374q0 120 -45.5 182.5t-126.5 62.5q-79 0 -125.5 -62.5t-46.5 -182.5
v-37q0 -120 47 -182.5t126 -62.5q82 0 126.5 63t44.5 182v37z" />
    <glyph glyph-name="uni01D2" unicode="&#x1d2;" horiz-adv-x="569" 
d="M209 751l72 -76l71 76h102v-5l-136 -136h-74l-135 136v5h100zM39 269q0 115 65 192t180 77t179.5 -75t66.5 -188v-16q0 -115 -64.5 -192t-180.5 -77t-181 77t-65 192v10zM157 259q0 -71 30.5 -122.5t97.5 -51.5q65 0 96 51.5t31 122.5v10q0 70 -30.5 122t-97.5 52
q-66 0 -96.5 -52t-30.5 -122v-10z" />
    <glyph glyph-name="uni01D3" unicode="&#x1d3;" horiz-adv-x="652" 
d="M254 902l72 -76l71 76h102v-5l-136 -136h-74l-135 136v5h100zM469 711h124v-475q0 -122 -77.5 -184t-188.5 -62q-114 0 -189.5 62t-75.5 184v475h122v-475q0 -76 39 -111.5t104 -35.5q66 0 104 35.5t38 111.5v475z" />
    <glyph glyph-name="uni01D4" unicode="&#x1d4;" horiz-adv-x="555" 
d="M206 751l72 -76l71 76h102v-5l-136 -136h-74l-135 136v5h100zM384 0l-3 52q-52 -62 -149 -62q-77 0 -125 45.5t-49 149.5v343h119v-342q0 -57 25 -78t59 -21q85 0 116 61v380h119v-528h-112z" />
    <glyph glyph-name="uni01D5" unicode="&#x1d5;" horiz-adv-x="652" 
d="M494 994v-77h-336v77h336zM171 781q-16 16 -16 39t16 39.5t44.5 16.5t45 -16.5t16.5 -39.5t-16.5 -39t-45 -16t-44.5 16zM392 780q-16 16 -16 39t16 39.5t44.5 16.5t45 -16t16.5 -40q0 -23 -16.5 -39t-45 -16t-44.5 16zM469 711h124v-475q0 -122 -77.5 -184t-188.5 -62
q-114 0 -189.5 62t-75.5 184v475h122v-475q0 -76 39 -111.5t104 -35.5q66 0 104 35.5t38 111.5v475z" />
    <glyph glyph-name="uni01D6" unicode="&#x1d6;" horiz-adv-x="555" 
d="M447 856v-77h-335v77h335zM105 667q0 24 16.5 41t45.5 17t45.5 -17t16.5 -41t-16.5 -40.5t-45.5 -16.5t-45.5 16.5t-16.5 40.5zM346 626q-17 17 -17 41t16.5 41t44.5 17t45 -17t17 -41t-17 -41t-45 -17t-44 17zM384 0l-3 52q-52 -62 -149 -62q-77 0 -125 45.5t-49 149.5
v343h119v-342q0 -57 25 -78t59 -21q85 0 116 61v380h119v-528h-112z" />
    <glyph glyph-name="uni01D7" unicode="&#x1d7;" horiz-adv-x="652" 
d="M286 861l62 103h96l-89 -103h-69zM171 781q-16 16 -16 39t16 39.5t44.5 16.5t45 -16.5t16.5 -39.5t-16.5 -39t-45 -16t-44.5 16zM392 780q-16 16 -16 39t16 39.5t44.5 16.5t45 -16t16.5 -40q0 -23 -16.5 -39t-45 -16t-44.5 16zM469 711h124v-475q0 -122 -77.5 -184
t-188.5 -62q-114 0 -189.5 62t-75.5 184v475h122v-475q0 -76 39 -111.5t104 -35.5q66 0 104 35.5t38 111.5v475z" />
    <glyph glyph-name="uni01D8" unicode="&#x1d8;" horiz-adv-x="555" 
d="M218 749l95 148h135l-135 -148h-95zM105 667q0 24 16.5 41t45.5 17t45.5 -17t16.5 -41t-16.5 -40.5t-45.5 -16.5t-45.5 16.5t-16.5 40.5zM346 626q-17 17 -17 41t16.5 41t44.5 17t45 -17t17 -41t-17 -41t-45 -17t-44 17zM384 0l-3 52q-52 -62 -149 -62q-77 0 -125 45.5
t-49 149.5v343h119v-342q0 -57 25 -78t59 -21q85 0 116 61v380h119v-528h-112z" />
    <glyph glyph-name="uni01D9" unicode="&#x1d9;" horiz-adv-x="652" 
d="M257 994l68 -59l69 59h101v-9l-131 -109h-77l-130 108v10h100zM171 781q-16 16 -16 39t16 39.5t44.5 16.5t45 -16.5t16.5 -39.5t-16.5 -39t-45 -16t-44.5 16zM392 780q-16 16 -16 39t16 39.5t44.5 16.5t45 -16t16.5 -40q0 -23 -16.5 -39t-45 -16t-44.5 16zM469 711h124
v-475q0 -122 -77.5 -184t-188.5 -62q-114 0 -189.5 62t-75.5 184v475h122v-475q0 -76 39 -111.5t104 -35.5q66 0 104 35.5t38 111.5v475z" />
    <glyph glyph-name="uni01DA" unicode="&#x1da;" horiz-adv-x="555" 
d="M206 897l72 -75l71 75h102v-4l-137 -137h-73l-136 137v4h101zM105 667q0 24 16.5 41t45.5 17t45.5 -17t16.5 -41t-16.5 -40.5t-45.5 -16.5t-45.5 16.5t-16.5 40.5zM346 626q-17 17 -17 41t16.5 41t44.5 17t45 -17t17 -41t-17 -41t-45 -17t-44 17zM384 0l-3 52
q-52 -62 -149 -62q-77 0 -125 45.5t-49 149.5v343h119v-342q0 -57 25 -78t59 -21q85 0 116 61v380h119v-528h-112z" />
    <glyph glyph-name="uni01DB" unicode="&#x1db;" horiz-adv-x="652" 
d="M304 964l62 -103h-69l-88 103h95zM171 781q-16 16 -16 39t16 39.5t44.5 16.5t45 -16.5t16.5 -39.5t-16.5 -39t-45 -16t-44.5 16zM392 780q-16 16 -16 39t16 39.5t44.5 16.5t45 -16t16.5 -40q0 -23 -16.5 -39t-45 -16t-44.5 16zM469 711h124v-475q0 -122 -77.5 -184
t-188.5 -62q-114 0 -189.5 62t-75.5 184v475h122v-475q0 -76 39 -111.5t104 -35.5q66 0 104 35.5t38 111.5v475z" />
    <glyph glyph-name="uni01DC" unicode="&#x1dc;" horiz-adv-x="555" 
d="M244 897l96 -148h-99l-132 148h135zM105 667q0 24 16.5 41t45.5 17t45.5 -17t16.5 -41t-16.5 -40.5t-45.5 -16.5t-45.5 16.5t-16.5 40.5zM346 626q-17 17 -17 41t16.5 41t44.5 17t45 -17t17 -41t-17 -41t-45 -17t-44 17zM384 0l-3 52q-52 -62 -149 -62q-77 0 -125 45.5
t-49 149.5v343h119v-342q0 -57 25 -78t59 -21q85 0 116 61v380h119v-528h-112z" />
    <glyph glyph-name="uni01DD" unicode="&#x1dd;" horiz-adv-x="529" 
d="M496 257q0 -116 -66.5 -191.5t-164.5 -74.5q-110 0 -165.5 66t-55.5 172v70h332q-5 61 -37.5 103t-95.5 42q-52 0 -86.5 -13.5t-61.5 -32.5l-38 78q26 23 74.5 43t118.5 20q114 0 180 -74.5t66 -188.5v-19zM265 86q44 0 72.5 36t36.5 90h-213v-13q0 -46 24.5 -79.5
t79.5 -33.5z" />
    <glyph glyph-name="uni01DE" unicode="&#x1de;" horiz-adv-x="665" 
d="M503 994v-77h-336v77h336zM180 781q-16 16 -16 39t16 39.5t44.5 16.5t45 -16.5t16.5 -39.5t-16.5 -39t-45 -16t-44.5 16zM401 780q-16 16 -16 39t16 39.5t44.5 16.5t45 -16t16.5 -40q0 -23 -16.5 -39t-45 -16t-44.5 16zM9 0l268 711h111l270 -711h-129l-58 166h-276
l-57 -166h-129zM230 265h207l-104 296z" />
    <glyph glyph-name="uni01DF" unicode="&#x1df;" horiz-adv-x="541" 
d="M446 856v-77h-335v77h335zM104 667q0 24 16.5 41t45.5 17t45.5 -17t16.5 -41t-16.5 -40.5t-45.5 -16.5t-45.5 16.5t-16.5 40.5zM345 626q-17 17 -17 41t16.5 41t44.5 17t45 -17t17 -41t-17 -41t-45 -17t-44 17zM377 0q-9 18 -14 50q-56 -60 -139 -60q-79 0 -129.5 45.5
t-50.5 112.5q0 84 63 129.5t178 45.5h74v34q0 42 -23 66.5t-69 24.5q-42 0 -67.5 -21t-25.5 -51h-118q0 62 58.5 112t158.5 50q89 0 147 -45.5t58 -136.5v-234q0 -71 20 -114v-8h-121zM247 85q41 0 70.5 20t41.5 44v100h-72q-125 -3 -124 -89q0 -32 21.5 -53.5t62.5 -21.5z
" />
    <glyph glyph-name="uni01E0" unicode="&#x1e0;" horiz-adv-x="665" 
d="M503 993v-77h-336v77h336zM290 781q-16 16 -16 39t16 39.5t45 16.5t45 -16t16 -40q0 -23 -16 -39t-45 -16t-45 16zM9 0l268 711h111l270 -711h-129l-58 166h-276l-57 -166h-129zM230 265h207l-104 296z" />
    <glyph glyph-name="uni01E1" unicode="&#x1e1;" horiz-adv-x="541" 
d="M446 865v-77h-335v77h335zM213 673q0 25 17 42.5t47 17.5t47 -17.5t17 -42.5t-17 -42.5t-47 -17.5t-47 17.5t-17 42.5zM377 0q-9 18 -14 50q-56 -60 -139 -60q-79 0 -129.5 45.5t-50.5 112.5q0 84 63 129.5t178 45.5h74v34q0 42 -23 66.5t-69 24.5q-42 0 -67.5 -21
t-25.5 -51h-118q0 62 58.5 112t158.5 50q89 0 147 -45.5t58 -136.5v-234q0 -71 20 -114v-8h-121zM247 85q41 0 70.5 20t41.5 44v100h-72q-125 -3 -124 -89q0 -32 21.5 -53.5t62.5 -21.5z" />
    <glyph glyph-name="uni01E2" unicode="&#x1e2;" horiz-adv-x="939" 
d="M626 867v-77h-335v77h335zM917 96v-96h-438l-6 167h-246l-90 -167h-142l408 711h485v-96h-316l8 -199h268v-96h-264l10 -224h323zM283 271h185l-13 317z" />
    <glyph glyph-name="uni01E3" unicode="&#x1e3;" horiz-adv-x="844" 
d="M589 710v-77h-335v77h335zM804 49q-20 -16 -68.5 -37.5t-122.5 -21.5q-123 0 -192 79q-26 -30 -76 -54.5t-126 -24.5q-89 0 -136.5 44t-47.5 118q0 77 58.5 119.5t172.5 42.5h92v34q0 44 -23 69.5t-65 25.5q-46 0 -74 -22.5t-28 -53.5l-118 9q0 70 60.5 116t159.5 46
q110 0 164 -64q63 65 161 64q105 0 162.5 -64.5t57.5 -174.5v-69h-340q4 -62 38.5 -103.5t106.5 -41.5q55 0 89 15t60 30zM595 443q-52 0 -81.5 -36.5t-36.5 -92.5h220v14q0 48 -23.5 81.5t-78.5 33.5zM242 81q31 0 63 14.5t53 34.5v102h-91q-56 0 -84.5 -24.5t-28.5 -57.5
q0 -30 21.5 -49.5t66.5 -19.5z" />
    <glyph glyph-name="uni01E4" unicode="&#x1e4;" horiz-adv-x="692" 
d="M617 93q-22 -30 -82 -66.5t-180 -36.5q-134 0 -218.5 89.5t-84.5 252.5v46q0 163 77.5 253t215.5 90q130 0 194.5 -64t77.5 -163h-121q-9 55 -43 91.5t-106 36.5q-86 0 -128 -62t-43 -176v-52q0 -117 49 -180t134 -63q64 0 93 14.5t42 28.5v27h-129v77h129v35h-146v94
h269v-129h75v-77h-75v-66z" />
    <glyph glyph-name="uni01E5" unicode="&#x1e5;" horiz-adv-x="566" 
d="M561 -87h-57q-18 -79 -80 -121t-153 -42q-43 0 -100.5 16.5t-97.5 65.5l53 69q54 -58 138 -58q91 0 119 70h-365v62h374v73q-52 -58 -137 -58q-97 0 -154 76.5t-57 191.5v11q0 121 57 195t155 74q91 0 142 -62l5 52h108v-553h50v-62zM163 258q0 -71 29.5 -121t93.5 -50
q73 0 106 62v232q-33 61 -105 60q-64 0 -94 -50.5t-30 -121.5v-11z" />
    <glyph glyph-name="Gcaron" unicode="&#x1e6;" horiz-adv-x="681" 
d="M260 913l72 -76l71 76h102v-5l-136 -136h-74l-135 136v5h100zM617 365v-272q-22 -30 -82 -66.5t-180 -36.5q-134 0 -218.5 89.5t-84.5 252.5v46q0 163 77.5 253t215.5 90q130 0 194.5 -64t77.5 -163h-121q-9 55 -43 91.5t-106 36.5q-86 0 -128 -62t-43 -176v-52
q0 -117 49 -180t134 -63q64 0 93 14.5t42 28.5v139h-146v94h269z" />
    <glyph glyph-name="gcaron" unicode="&#x1e7;" horiz-adv-x="566" 
d="M199 751l72 -76l71 76h102v-5l-136 -136h-74l-135 136v5h100zM267 -208q-43 0 -103 20t-95 67l56 71q56 -65 135 -65q59 0 93.5 32.5t34.5 94.5v36q-52 -58 -137 -58q-97 0 -153.5 75.5t-57.5 188.5v15q0 121 57 195t155 74q91 0 142 -62l5 52h107v-513
q0 -107 -66.5 -165t-172.5 -58zM159 258q0 -71 29 -121t93 -50q73 0 107 63v231q-33 61 -106 60q-64 0 -93.5 -50.5t-29.5 -121.5v-11z" />
    <glyph glyph-name="uni01E8" unicode="&#x1e8;" horiz-adv-x="630" 
d="M221 903l72 -76l71 76h102v-5l-136 -136h-74l-135 136v5h100zM490 0l-213 308l-81 -86v-222h-123v711h123v-334l69 85l208 249h149l-264 -315l279 -396h-147z" />
    <glyph glyph-name="uni01E9" unicode="&#x1e9;" horiz-adv-x="521" 
d="M220 906l72 -76l71 76h102v-5l-136 -136h-74l-135 136v5h100zM390 0l-157 228l-53 -55v-173h-119v750h119v-433l37 47l146 164h143l-197 -219l218 -309h-137z" />
    <glyph glyph-name="uni01EA" unicode="&#x1ea;" horiz-adv-x="690" 
d="M334 -45q-23 -23 -23 -52q0 -33 34 -33q21 0 44 11l11 -69q-36 -21 -81 -22q-43 0 -73 25t-30 73q0 38 27 74q13 19 35 35q-85 18 -145 86q-83 92 -83 254v36q0 162 83 255q82 93 212 93q133 0 214 -93t81 -255v-36q0 -162 -80 -254q-71 -82 -183 -92q-25 -18 -43 -36z
M472 557q-46 62 -127 62q-79 0 -125 -62q-47 -63 -47 -183v-37q0 -120 47 -182q47 -63 126 -63q82 0 127 63q44 63 44 182v37q0 120 -45 183z" />
    <glyph glyph-name="uni01EB" unicode="&#x1eb;" horiz-adv-x="569" 
d="M272 -47q-23 -23 -23 -52q0 -33 34 -33q21 0 44 11l11 -69q-36 -21 -81 -22q-43 0 -73 25t-30 73q0 38 27 74q13 20 38 37q-70 16 -115 70q-65 77 -65 192v10q0 115 65 192t180 77t180 -75q64 -75 66 -188v-16q0 -115 -64 -192q-55 -65 -147 -75q-28 -19 -47 -39z
M188 137q30 -52 97 -52q65 0 96 52q31 51 31 122v10q0 70 -30 122q-31 52 -98 52q-66 0 -96 -52q-31 -52 -31 -122v-10q0 -71 31 -122z" />
    <glyph glyph-name="uni01EC" unicode="&#x1ec;" horiz-adv-x="690" 
d="M334 -45q-23 -23 -23 -52q0 -33 34 -33q21 0 44 11l11 -69q-36 -21 -81 -22q-43 0 -73 25t-30 73q0 38 27 74q13 19 35 35q-85 18 -145 86q-83 92 -83 254v36q0 162 83 255q82 93 212 93q133 0 214 -93t81 -255v-36q0 -162 -80 -254q-71 -82 -183 -92q-25 -18 -43 -36z
M472 557q-46 62 -127 62q-79 0 -125 -62q-47 -63 -47 -183v-37q0 -120 47 -182q47 -63 126 -63q82 0 127 63q44 63 44 182v37q0 120 -45 183zM515 784h-335v77h335v-77z" />
    <glyph glyph-name="uni01ED" unicode="&#x1ed;" horiz-adv-x="569" 
d="M272 -47q-23 -23 -23 -52q0 -33 34 -33q21 0 44 11l11 -69q-36 -21 -81 -22q-43 0 -73 25t-30 73q0 38 27 74q13 20 38 37q-70 16 -115 70q-65 77 -65 192v10q0 115 65 192t180 77t180 -75q64 -75 66 -188v-16q0 -115 -64 -192q-55 -65 -147 -75q-28 -19 -47 -39z
M188 137q30 -52 97 -52q65 0 96 52q31 51 31 122v10q0 70 -30 122q-31 52 -98 52q-66 0 -96 -52q-31 -52 -31 -122v-10q0 -71 31 -122zM451 632h-335v77h335v-77z" />
    <glyph glyph-name="uni01EE" unicode="&#x1ee;" horiz-adv-x="649" 
d="M226 895l72 -76l71 76h102v-5l-136 -136h-74l-135 136v5h100zM47 612v99h512v-76l-224 -256q122 -7 194 -78.5t72 -213.5q0 -149 -78.5 -221.5t-208.5 -72.5t-199 69t-79 172h124q9 -70 41.5 -106t112.5 -36q87 0 125.5 48t38.5 147q0 109 -42 153.5t-128 44.5h-119v79
l219 248h-361z" />
    <glyph glyph-name="uni01EF" unicode="&#x1ef;" horiz-adv-x="581" 
d="M213 743l68 -70l68 70h101v-9l-131 -123h-76l-131 123v9h101zM199 153v84l170 196h-299v95h444v-75l-183 -217q97 -12 150 -68.5t53 -151.5q0 -100 -70.5 -154.5t-179.5 -54.5q-59 0 -113.5 21.5t-89.5 67t-35 118.5h119q0 -46 32 -79t87 -33q62 0 97 32.5t35 81.5
q0 74 -38 105.5t-109 31.5h-70z" />
    <glyph glyph-name="uni01F0" unicode="&#x1f0;" horiz-adv-x="269" 
d="M61 734l72 -76l71 76h102v-5l-136 -136h-74l-135 136v5h100zM79 528h118v-559q0 -88 -45.5 -135t-126.5 -47q-34 0 -62 8l7 93q19 -6 49 -6q60 0 60 86v560z" />
    <glyph glyph-name="uni01F1" unicode="&#x1f1;" horiz-adv-x="1255" 
d="M695 612v99h515v-78l-369 -534h380v-99h-529v80l368 532h-365zM73 0v711h209q143 0 232 -92t89 -246v-36q0 -154 -89.5 -245.5t-236.5 -91.5h-204zM196 612v-513h81q100 0 150.5 62.5t51.5 171.5v41q0 115 -50.5 176.5t-146.5 61.5h-86z" />
    <glyph glyph-name="uni01F2" unicode="&#x1f2;" horiz-adv-x="1156" 
d="M698 433v95h413v-74l-270 -359h281v-95h-429v78l269 355h-264zM73 0v711h209q143 0 232 -92t89 -246v-36q0 -154 -89.5 -245.5t-236.5 -91.5h-204zM196 612v-513h81q100 0 150.5 62.5t51.5 171.5v41q0 115 -50.5 176.5t-146.5 61.5h-86z" />
    <glyph glyph-name="uni01F3" unicode="&#x1f3;" horiz-adv-x="1068" 
d="M610 433v95h413v-74l-270 -359h281v-95h-429v78l269 355h-264zM394 0l-5 55q-53 -64 -142 -65q-95 0 -151.5 76.5t-56.5 191.5v11q0 121 56 195t153 74q84 0 135 -58v270h119v-750h-108zM157 258q0 -71 28 -121t92 -50q73 0 106 66v225q-33 63 -105 63q-64 0 -92.5 -50.5
t-28.5 -121.5v-11z" />
    <glyph glyph-name="uni01F4" unicode="&#x1f4;" horiz-adv-x="681" 
d="M272 765l95 147h136l-136 -147h-95zM617 365v-272q-22 -30 -82 -66.5t-180 -36.5q-134 0 -218.5 89.5t-84.5 252.5v46q0 163 77.5 253t215.5 90q130 0 194.5 -64t77.5 -163h-121q-9 55 -43 91.5t-106 36.5q-86 0 -128 -62t-43 -176v-52q0 -117 49 -180t134 -63
q64 0 93 14.5t42 28.5v139h-146v94h269z" />
    <glyph glyph-name="uni01F5" unicode="&#x1f5;" horiz-adv-x="566" 
d="M211 603l95 147h136l-136 -147h-95zM267 -208q-43 0 -103 20t-95 67l56 71q56 -65 135 -65q59 0 93.5 32.5t34.5 94.5v36q-52 -58 -137 -58q-97 0 -153.5 75.5t-57.5 188.5v15q0 121 57 195t155 74q91 0 142 -62l5 52h107v-513q0 -107 -66.5 -165t-172.5 -58zM159 258
q0 -71 29 -121t93 -50q73 0 107 63v231q-33 61 -106 60q-64 0 -93.5 -50.5t-29.5 -121.5v-11z" />
    <glyph glyph-name="uni01F6" unicode="&#x1f6;" horiz-adv-x="1078" 
d="M514 711h123v-480q2 -143 129 -142q127 0 130 141v298h123v-294q0 -121 -71.5 -182t-179.5 -62h-2q-114 0 -183 62t-69 184v80h-318v-316h-123v711h123v-296h318v296z" />
    <glyph glyph-name="uni01F7" unicode="&#x1f7;" horiz-adv-x="663" 
d="M613 392q0 -163 -114 -290.5t-303 -177.5v-127h-123v914h123v-17q53 27 125 27q133 0 212 -75.5t80 -224.5v-29zM321 622q-82 0 -125 -56v-540q149 47 221 151.5t72 214.5v26q0 100 -38.5 152t-129.5 52z" />
    <glyph glyph-name="uni01F8" unicode="&#x1f8;" horiz-adv-x="710" 
d="M321 901l96 -147h-99l-132 147h135zM637 711v-711h-124l-317 504v-504h-123v711h123l318 -506v506h123z" />
    <glyph glyph-name="uni01F9" unicode="&#x1f9;" horiz-adv-x="556" 
d="M246 750l96 -147h-99l-132 147h135zM285 441q-71 0 -107 -64v-377h-118v528h111l4 -60q58 70 153 70q76 0 122 -44t47 -150v-344h-119v343q0 55 -23.5 76.5t-69.5 21.5z" />
    <glyph glyph-name="Aringacute" unicode="&#x1fa;" horiz-adv-x="695" 
d="M680 0h-120l-67 184h-291l-66 -184h-121l253 671q-18 16 -27.5 38t-9.5 47q0 40 23.5 71t61.5 41l31 74h100l-46 -83q28 -15 45.5 -42.5t17.5 -60.5q0 -50 -37 -85zM347 798q-17 0 -29 -12.5t-12 -29.5t12 -29.5t29 -12.5t29.5 12.5t12.5 29.5t-12.5 29.5t-29.5 12.5z
M457 286l-79 219l-28 82h-6l-27 -82l-79 -219h219z" />
    <glyph glyph-name="aringacute" unicode="&#x1fb;" horiz-adv-x="546" 
d="M253 928h123l-65 -111h-96zM263 586q-44 0 -74.5 31t-30.5 75t30.5 74.5t74.5 30.5t75 -30.5t31 -74.5t-31 -75t-75 -31zM263 650q17 0 29.5 12.5t12.5 29.5t-12.5 29t-29.5 12q-16 0 -28.5 -12t-12.5 -29t12 -29.5t29 -12.5zM223 -16q-55 0 -98 21.5t-67 60.5t-24 89
q0 53 28 91.5t76 59t107 20.5q45 0 81.5 -8.5t58.5 -19.5v27q0 49 -36 79.5t-93 30.5q-39 0 -74 -17.5t-56 -47.5l-74 57q33 47 87.5 73t119.5 26q110 0 170.5 -54.5t60.5 -152.5v-319h-105v63h-6q-22 -34 -63 -56.5t-93 -22.5zM242 72q40 0 73 19.5t51.5 52.5t18.5 71
q-24 14 -55 22t-65 8q-63 0 -92.5 -25t-29.5 -66q0 -36 27 -59t72 -23z" />
    <glyph glyph-name="AEacute" unicode="&#x1fc;" horiz-adv-x="986" 
d="M432 716h497v-104h-324v-202h292v-104h-292v-202h324v-104h-434v185h-251l-108 -185h-129zM495 289v323h-7l-31 -60l-154 -263h192zM682 904h122l-80 -131h-89z" />
    <glyph glyph-name="aeacute" unicode="&#x1fd;" horiz-adv-x="919" 
d="M228 -16q-57 0 -101 21.5t-68.5 60.5t-24.5 89q0 53 28 91.5t76 59t107 20.5q45 0 80.5 -8.5t58.5 -20.5v25q0 52 -33.5 82.5t-90.5 30.5q-39 0 -66.5 -17.5t-42.5 -47.5l-85 40q25 55 78 85.5t117 30.5q67 0 115.5 -23t76.5 -67q31 43 77.5 66t104.5 23q77 0 133 -33.5
t85.5 -92t29.5 -133.5q0 -20 -2 -34h-393q6 -73 51 -112.5t106 -39.5q48 0 83 22.5t56 59.5l89 -43q-35 -63 -92.5 -99t-138.5 -36q-69 0 -123.5 32t-87.5 86q-40 -62 -89.5 -90t-113.5 -28zM775 313q-2 28 -17.5 55.5t-46 46t-75.5 18.5q-54 0 -91.5 -32.5t-51.5 -87.5h282
zM242 72q40 0 72.5 19.5t51 52.5t18.5 71q-52 30 -119 30q-63 0 -92.5 -25t-29.5 -66q0 -36 27 -59t72 -23zM455 740h122l-80 -131h-89z" />
    <glyph glyph-name="Oslashacute" unicode="&#x1fe;" horiz-adv-x="832" 
d="M651 650q64 -52 100 -128t36 -164q0 -103 -49 -188.5t-133.5 -135.5t-188.5 -50q-87 0 -160 35l-37 -60l-74 47l37 59q-64 52 -100.5 128.5t-36.5 164.5q0 103 48.5 188.5t133.5 135.5t189 50q84 0 160 -35l38 61l74 -48zM156 358q0 -62 22 -113.5t61 -88.5l281 451
q-48 21 -104 21q-72 0 -131.5 -34.5t-94 -96t-34.5 -139.5zM416 88q72 0 131.5 34.5t94 96t34.5 139.5q0 61 -21.5 112.5t-60.5 88.5l-282 -450q48 -21 104 -21zM418 904h122l-80 -131h-89z" />
    <glyph glyph-name="oslashacute" unicode="&#x1ff;" horiz-adv-x="605" 
d="M480 461q42 -38 65.5 -91t23.5 -115q0 -76 -34 -138t-94.5 -97.5t-137.5 -35.5q-58 0 -107 20l-26 -41l-72 41l27 44q-42 37 -65.5 91t-23.5 116q0 76 34 138t95 97.5t138 35.5q55 0 108 -21l26 42l72 -40zM138 255q0 -72 41 -121l180 288q-26 10 -56 10q-44 0 -82 -21.5
t-60.5 -61.5t-22.5 -94zM303 78q44 0 81.5 21.5t60 61.5t22.5 94q0 70 -40 120l-179 -288q26 -9 55 -9zM305 740h122l-80 -131h-89z" />
    <glyph glyph-name="uni0200" unicode="&#x200;" horiz-adv-x="665" 
d="M193 891l119 -130h-102l-146 130h129zM366 891l93 -130h-95l-119 130h121zM9 0l268 711h111l270 -711h-129l-58 166h-276l-57 -166h-129zM230 265h207l-104 296z" />
    <glyph glyph-name="uni0201" unicode="&#x201;" horiz-adv-x="541" 
d="M135 740l119 -130h-102l-146 130h129zM308 740l93 -130h-95l-119 130h121zM377 0q-9 18 -14 50q-56 -60 -139 -60q-79 0 -129.5 45.5t-50.5 112.5q0 84 63 129.5t178 45.5h74v34q0 42 -23 66.5t-69 24.5q-42 0 -67.5 -21t-25.5 -51h-118q0 62 58.5 112t158.5 50
q89 0 147 -45.5t58 -136.5v-234q0 -71 20 -114v-8h-121zM247 85q41 0 70.5 20t41.5 44v100h-72q-125 -3 -124 -89q0 -32 21.5 -53.5t62.5 -21.5z" />
    <glyph glyph-name="uni0202" unicode="&#x202;" horiz-adv-x="665" 
d="M493 776h-90q0 27 -15.5 47.5t-52.5 20.5q-38 0 -53.5 -20.5t-15.5 -47.5h-89q0 61 43 99.5t115.5 38.5t115 -38.5t42.5 -99.5zM9 0l268 711h111l270 -711h-129l-58 166h-276l-57 -166h-129zM230 265h207l-104 296z" />
    <glyph glyph-name="uni0203" unicode="&#x203;" horiz-adv-x="541" 
d="M435 625h-90q0 27 -15.5 47.5t-52.5 20.5q-38 0 -53.5 -20.5t-15.5 -47.5h-89q0 61 43 99.5t115.5 38.5t115 -38.5t42.5 -99.5zM377 0q-9 18 -14 50q-56 -60 -139 -60q-79 0 -129.5 45.5t-50.5 112.5q0 84 63 129.5t178 45.5h74v34q0 42 -23 66.5t-69 24.5
q-42 0 -67.5 -21t-25.5 -51h-118q0 62 58.5 112t158.5 50q89 0 147 -45.5t58 -136.5v-234q0 -71 20 -114v-8h-121zM247 85q41 0 70.5 20t41.5 44v100h-72q-125 -3 -124 -89q0 -32 21.5 -53.5t62.5 -21.5z" />
    <glyph glyph-name="uni0204" unicode="&#x204;" horiz-adv-x="565" 
d="M164 895l119 -130h-102l-146 130h129zM337 895l93 -130h-95l-119 130h121zM73 0v711h461v-99h-338v-197h292v-97h-292v-219h342v-99h-465z" />
    <glyph glyph-name="uni0205" unicode="&#x205;" horiz-adv-x="536" 
d="M129 740l119 -130h-102l-146 130h129zM302 740l93 -130h-95l-119 130h121zM497 90q-25 -37 -74.5 -68.5t-129.5 -31.5q-118 0 -185 73.5t-67 182.5v20q0 125 69 198.5t170 73.5q115 0 170.5 -73t55.5 -188v-50h-345q5 -61 41 -101.5t99 -40.5q82 0 132 66zM280 443
q-49 0 -79 -34t-38 -95h225v9q-2 46 -25.5 83t-82.5 37z" />
    <glyph glyph-name="uni0206" unicode="&#x206;" horiz-adv-x="565" 
d="M464 780h-90q0 27 -15.5 47.5t-52.5 20.5q-38 0 -53.5 -20.5t-15.5 -47.5h-89q0 61 43 99.5t115.5 38.5t115 -38.5t42.5 -99.5zM73 0v711h461v-99h-338v-197h292v-97h-292v-219h342v-99h-465z" />
    <glyph glyph-name="uni0207" unicode="&#x207;" horiz-adv-x="536" 
d="M429 625h-90q0 27 -15.5 47.5t-52.5 20.5q-38 0 -53.5 -20.5t-15.5 -47.5h-89q0 61 43 99.5t115.5 38.5t115 -38.5t42.5 -99.5zM497 90q-25 -37 -74.5 -68.5t-129.5 -31.5q-118 0 -185 73.5t-67 182.5v20q0 125 69 198.5t170 73.5q115 0 170.5 -73t55.5 -188v-50h-345
q5 -61 41 -101.5t99 -40.5q82 0 132 66zM280 443q-49 0 -79 -34t-38 -95h225v9q-2 46 -25.5 83t-82.5 37z" />
    <glyph glyph-name="uni0208" unicode="&#x208;" horiz-adv-x="282" 
d="M-1 895l119 -130h-102l-146 130h129zM172 895l93 -130h-95l-119 130h121zM203 711v-711h-123v711h123z" />
    <glyph glyph-name="uni0209" unicode="&#x209;" horiz-adv-x="263" 
d="M-11 736l119 -130h-102l-146 130h129zM162 736l93 -130h-95l-119 130h121zM189 528v-528h-119v528h119z" />
    <glyph glyph-name="uni020A" unicode="&#x20a;" horiz-adv-x="282" 
d="M299 780h-90q0 27 -15.5 47.5t-52.5 20.5q-38 0 -53.5 -20.5t-15.5 -47.5h-89q0 61 43 99.5t115.5 38.5t115 -38.5t42.5 -99.5zM203 711v-711h-123v711h123z" />
    <glyph glyph-name="uni020B" unicode="&#x20b;" horiz-adv-x="263" 
d="M289 621h-90q0 27 -15.5 47.5t-52.5 20.5q-38 0 -53.5 -20.5t-15.5 -47.5h-89q0 61 43 99.5t115.5 38.5t115 -38.5t42.5 -99.5zM189 528v-528h-119v528h119z" />
    <glyph glyph-name="uni020C" unicode="&#x20c;" horiz-adv-x="690" 
d="M204 891l119 -130h-102l-146 130h129zM377 891l93 -130h-95l-119 130h121zM640 337q0 -162 -80.5 -254.5t-213.5 -92.5q-130 0 -213 92.5t-83 254.5v36q0 162 82.5 255t212.5 93q133 0 214 -93t81 -255v-36zM517 374q0 120 -45.5 182.5t-126.5 62.5q-79 0 -125.5 -62.5
t-46.5 -182.5v-37q0 -120 47 -182.5t126 -62.5q82 0 126.5 63t44.5 182v37z" />
    <glyph glyph-name="uni020D" unicode="&#x20d;" horiz-adv-x="569" 
d="M139 740l119 -130h-102l-146 130h129zM312 740l93 -130h-95l-119 130h121zM39 269q0 115 65 192t180 77t179.5 -75t66.5 -188v-16q0 -115 -64.5 -192t-180.5 -77t-181 77t-65 192v10zM157 259q0 -71 30.5 -122.5t97.5 -51.5q65 0 96 51.5t31 122.5v10q0 70 -30.5 122
t-97.5 52q-66 0 -96.5 -52t-30.5 -122v-10z" />
    <glyph glyph-name="uni020E" unicode="&#x20e;" horiz-adv-x="690" 
d="M504 776h-90q0 27 -15.5 47.5t-52.5 20.5q-38 0 -53.5 -20.5t-15.5 -47.5h-89q0 61 43 99.5t115.5 38.5t115 -38.5t42.5 -99.5zM640 337q0 -162 -80.5 -254.5t-213.5 -92.5q-130 0 -213 92.5t-83 254.5v36q0 162 82.5 255t212.5 93q133 0 214 -93t81 -255v-36zM517 374
q0 120 -45.5 182.5t-126.5 62.5q-79 0 -125.5 -62.5t-46.5 -182.5v-37q0 -120 47 -182.5t126 -62.5q82 0 126.5 63t44.5 182v37z" />
    <glyph glyph-name="uni020F" unicode="&#x20f;" horiz-adv-x="569" 
d="M439 625h-90q0 27 -15.5 47.5t-52.5 20.5q-38 0 -53.5 -20.5t-15.5 -47.5h-89q0 61 43 99.5t115.5 38.5t115 -38.5t42.5 -99.5zM39 269q0 115 65 192t180 77t179.5 -75t66.5 -188v-16q0 -115 -64.5 -192t-180.5 -77t-181 77t-65 192v10zM157 259q0 -71 30.5 -122.5
t97.5 -51.5q65 0 96 51.5t31 122.5v10q0 70 -30.5 122t-97.5 52q-66 0 -96.5 -52t-30.5 -122v-10z" />
    <glyph glyph-name="uni0210" unicode="&#x210;" horiz-adv-x="624" 
d="M153 891l119 -130h-102l-146 130h129zM326 891l93 -130h-95l-119 130h121zM477 0l-143 274h-138v-274h-123v711h250q123 0 189.5 -54.5t66.5 -159.5q0 -71 -34.5 -119.5t-95.5 -74.5l159 -297v-6h-131zM196 612v-239h127q66 0 99.5 33.5t33.5 84.5q0 55 -31 87.5
t-100 33.5h-129z" />
    <glyph glyph-name="uni0211" unicode="&#x211;" horiz-adv-x="351" 
d="M58 740l119 -130h-102l-146 130h129zM231 740l93 -130h-95l-119 130h121zM290 424q-83 0 -111 -63v-361h-118v528h113l3 -59q42 69 119 69q24 0 42 -6l-1 -112q-24 4 -47 4z" />
    <glyph glyph-name="uni0212" unicode="&#x212;" horiz-adv-x="624" 
d="M453 776h-90q0 27 -15.5 47.5t-52.5 20.5q-38 0 -53.5 -20.5t-15.5 -47.5h-89q0 61 43 99.5t115.5 38.5t115 -38.5t42.5 -99.5zM477 0l-143 274h-138v-274h-123v711h250q123 0 189.5 -54.5t66.5 -159.5q0 -71 -34.5 -119.5t-95.5 -74.5l159 -297v-6h-131zM196 612v-239
h127q66 0 99.5 33.5t33.5 84.5q0 55 -31 87.5t-100 33.5h-129z" />
    <glyph glyph-name="uni0213" unicode="&#x213;" horiz-adv-x="351" 
d="M358 625h-90q0 27 -15.5 47.5t-52.5 20.5q-38 0 -53.5 -20.5t-15.5 -47.5h-89q0 61 43 99.5t115.5 38.5t115 -38.5t42.5 -99.5zM290 424q-83 0 -111 -63v-361h-118v528h113l3 -59q42 69 119 69q24 0 42 -6l-1 -112q-24 4 -47 4z" />
    <glyph glyph-name="uni0214" unicode="&#x214;" horiz-adv-x="652" 
d="M184 891l119 -130h-102l-146 130h129zM357 891l93 -130h-95l-119 130h121zM469 711h124v-475q0 -122 -77.5 -184t-188.5 -62q-114 0 -189.5 62t-75.5 184v475h122v-475q0 -76 39 -111.5t104 -35.5q66 0 104 35.5t38 111.5v475z" />
    <glyph glyph-name="uni0215" unicode="&#x215;" horiz-adv-x="555" 
d="M136 740l119 -130h-102l-146 130h129zM309 740l93 -130h-95l-119 130h121zM384 0l-3 52q-52 -62 -149 -62q-77 0 -125 45.5t-49 149.5v343h119v-342q0 -57 25 -78t59 -21q85 0 116 61v380h119v-528h-112z" />
    <glyph glyph-name="uni0216" unicode="&#x216;" horiz-adv-x="652" 
d="M484 776h-90q0 27 -15.5 47.5t-52.5 20.5q-38 0 -53.5 -20.5t-15.5 -47.5h-89q0 61 43 99.5t115.5 38.5t115 -38.5t42.5 -99.5zM469 711h124v-475q0 -122 -77.5 -184t-188.5 -62q-114 0 -189.5 62t-75.5 184v475h122v-475q0 -76 39 -111.5t104 -35.5q66 0 104 35.5
t38 111.5v475z" />
    <glyph glyph-name="uni0217" unicode="&#x217;" horiz-adv-x="555" 
d="M436 625h-90q0 27 -15.5 47.5t-52.5 20.5q-38 0 -53.5 -20.5t-15.5 -47.5h-89q0 61 43 99.5t115.5 38.5t115 -38.5t42.5 -99.5zM384 0l-3 52q-52 -62 -149 -62q-77 0 -125 45.5t-49 149.5v343h119v-342q0 -57 25 -78t59 -21q85 0 116 61v380h119v-528h-112z" />
    <glyph glyph-name="uni0218" unicode="&#x218;" horiz-adv-x="575" 
d="M289 -16q-89 0 -160 52t-99 146l104 42q16 -60 57 -98t99 -38q54 0 91.5 28t37.5 77q0 45 -33 74.5t-114 57.5l-45 16q-73 26 -121.5 72.5t-48.5 123.5q0 53 28.5 98t80 71t116.5 26q93 0 149 -45.5t76 -102.5l-99 -42q-10 36 -42 62t-83 26q-49 0 -83 -26t-34 -66
q0 -37 30.5 -61.5t94.5 -46.5l46 -16q92 -32 142 -83t50 -136q0 -70 -35.5 -117.5t-91 -70.5t-113.5 -23zM225 -232l42 63q-19 6 -30.5 22t-11.5 36q0 25 18.5 44t44.5 19q27 0 45.5 -19t18.5 -46q0 -20 -13 -43l-71 -105z" />
    <glyph glyph-name="uni0219" unicode="&#x219;" horiz-adv-x="489" 
d="M249 -16q-87 0 -143.5 38t-79.5 99l97 42q18 -41 51 -62.5t75 -21.5q43 0 72 15.5t29 46.5q0 28 -24.5 44.5t-76.5 28.5l-61 14q-61 15 -101 53t-40 96q0 44 26.5 78t71 52.5t97.5 18.5q72 0 125.5 -28t77.5 -82l-93 -42q-31 61 -109 61q-38 0 -63.5 -16t-25.5 -40
q0 -45 78 -65l74 -18q75 -19 113.5 -57t38.5 -94q0 -48 -27.5 -84.5t-75.5 -56.5t-106 -20zM186 -232l42 63q-19 6 -30.5 22t-11.5 36q0 25 18.5 44t44.5 19q27 0 45.5 -19t18.5 -46q0 -20 -13 -43l-71 -105z" />
    <glyph glyph-name="uni021A" unicode="&#x21a;" horiz-adv-x="563" 
d="M227 612h-201v104h511v-104h-200v-612h-110v612zM218 -232l42 63q-19 6 -30.5 22t-11.5 36q0 25 18.5 44t44.5 19q27 0 45.5 -19t18.5 -46q0 -20 -13 -43l-71 -105z" />
    <glyph glyph-name="uni021B" unicode="&#x21b;" horiz-adv-x="392" 
d="M272 -8q-34 0 -63.5 10.5t-48.5 29.5q-43 41 -43 116v268h-89v94h89v144h108v-144h125v-94h-125v-245q0 -42 16 -59q17 -19 52 -19q18 0 31 4.5t29 14.5v-105q-34 -15 -81 -15zM184 -232l42 63q-19 6 -30.5 22t-11.5 36q0 25 18.5 44t44.5 19q27 0 45.5 -19t18.5 -46
q0 -20 -13 -43l-71 -105z" />
    <glyph glyph-name="uni021C" unicode="&#x21c;" horiz-adv-x="601" 
d="M554 163q0 -113 -60.5 -188t-166.5 -119.5t-241 -68.5v98q165 33 255 98t90 182q0 83 -41 110q-112 -74 -304 -121l-1 91q174 52 255 108.5t81 157.5q0 46 -32 78.5t-104 32.5q-50 0 -87 -27.5t-37 -73.5h-123q0 93 74 146.5t173 53.5q118 0 188 -51.5t70 -151.5
q0 -102 -78 -183q89 -51 89 -172z" />
    <glyph glyph-name="uni021D" unicode="&#x21d;" horiz-adv-x="504" 
d="M460 92q0 -131 -99.5 -204t-276.5 -101v90q122 34 189.5 80.5t67.5 139.5q0 52 -24 84q-88 -57 -233 -90v87q65 19 121.5 44t91.5 62t35 91q0 28 -19 49.5t-67 21.5q-40 0 -66.5 -19t-26.5 -49h-118q0 74 61 117t147 43q96 0 151.5 -39.5t55.5 -114.5q0 -81 -63 -147
q73 -47 73 -145z" />
    <glyph glyph-name="uni021E" unicode="&#x21e;" horiz-adv-x="710" 
d="M278 906l72 -76l71 76h102v-5l-136 -136h-74l-135 136v5h100zM514 0v316h-318v-316h-123v711h123v-296h318v296h123v-711h-123z" />
    <glyph glyph-name="uni021F" unicode="&#x21f;" horiz-adv-x="555" 
d="M179 922l72 -76l71 76h102v-5l-136 -136h-74l-135 136v5h100zM285 441q-72 0 -107 -64v-377h-118v750h118v-280q58 68 147 68q78 0 124.5 -44.5t47.5 -150.5v-343h-119v341q0 55 -24 77.5t-69 22.5z" />
    <glyph glyph-name="uni0220" unicode="&#x220;" horiz-adv-x="652" 
d="M591 -203h-119v693q0 70 -37 102t-102 32q-79 0 -142 -38v-586h-118v711h118v-28q71 38 150 38q101 0 175.5 -58.5t74.5 -172.5v-693z" />
    <glyph glyph-name="uni0221" unicode="&#x221;" horiz-adv-x="727" 
d="M383 750h119v-705q28 7 60 7q68 0 109.5 -35t41.5 -97q0 -59 -42.5 -96t-117.5 -37q-65 0 -102 24.5t-53 62.5l-73 -70l-60 71l118 110v63q-52 -58 -136 -58q-95 0 -151.5 76.5t-56.5 191.5v11q0 121 56 195t153 74q84 0 135 -58v270zM157 258q0 -71 28 -121t92 -50
q73 0 106 66v225q-33 63 -105 63q-64 0 -92.5 -50.5t-28.5 -121.5v-11zM502 -74q0 -23 12.5 -38.5t39.5 -15.5q47 0 47.5 46t-52.5 46q-23 0 -47 -11v-27z" />
    <glyph glyph-name="uni0222" unicode="&#x222;" horiz-adv-x="651" 
d="M601 218q0 -114 -77.5 -171t-192.5 -57h-11q-115 0 -192.5 57t-77.5 170q0 118 92 177q-91 47 -92 149q0 90 57.5 133t142.5 45v-95q-38 -9 -57 -26.5t-19 -56.5q0 -54 40.5 -73.5t102.5 -19.5h17q62 0 103 19.5t41 73.5q0 39 -19.5 56.5t-57.5 26.5v95q85 -2 143 -45
t58 -133q0 -103 -92 -149q91 -59 91 -176zM320 348q-67 0 -106.5 -33t-39.5 -98q0 -126 157 -126q68 0 107.5 31t39.5 96q0 64 -40 97t-107 33h-11z" />
    <glyph glyph-name="uni0223" unicode="&#x223;" horiz-adv-x="629" 
d="M588 217q0 -114 -76.5 -170.5t-191.5 -56.5h-10q-115 0 -191.5 56.5t-76.5 169.5q0 119 93 177q-93 50 -93 166q0 96 56 147.5t142 53.5v-90q-38 -15 -59 -40t-21 -72q0 -65 41.5 -90t104.5 -25h17q63 0 104.5 24.5t41.5 90.5q0 48 -20.5 72.5t-58.5 39.5v90
q85 -2 141.5 -54t56.5 -147q0 -116 -93 -166q93 -58 93 -176zM310 348q-68 0 -109 -33.5t-41 -98.5q0 -64 40.5 -97.5t109.5 -33.5h10q68 0 108.5 33.5t40.5 98.5q0 64 -40.5 97.5t-108.5 33.5h-10z" />
    <glyph glyph-name="uni0224" unicode="&#x224;" horiz-adv-x="626" 
d="M42 612v99h515v-78l-369 -534h244q87 -1 133 -43t46 -119q0 -33 -8 -63h-98q4 18 4 36q0 37 -15.5 63.5t-64.5 26.5h-390v80l368 532h-365z" />
    <glyph glyph-name="uni0225" unicode="&#x225;" horiz-adv-x="537" 
d="M458 454l-270 -359h157q173 -4 173 -148q0 -34 -8 -64h-93q4 16 3 36q0 35 -17.5 58t-67.5 23h-295v78l269 355h-264v95h413v-74z" />
    <glyph glyph-name="uni0226" unicode="&#x226;" horiz-adv-x="665" 
d="M270 824q0 25 17 42.5t47.5 17.5t47 -17.5t16.5 -42.5t-16.5 -42.5t-47 -17.5t-47.5 17.5t-17 42.5zM9 0l268 711h111l270 -711h-129l-58 166h-276l-57 -166h-129zM230 265h207l-104 296z" />
    <glyph glyph-name="uni0227" unicode="&#x227;" horiz-adv-x="541" 
d="M212 673q0 25 17 42.5t47.5 17.5t47 -17.5t16.5 -42.5t-16.5 -42.5t-47 -17.5t-47.5 17.5t-17 42.5zM377 0q-9 18 -14 50q-56 -60 -139 -60q-79 0 -129.5 45.5t-50.5 112.5q0 84 63 129.5t178 45.5h74v34q0 42 -23 66.5t-69 24.5q-42 0 -67.5 -21t-25.5 -51h-118
q0 62 58.5 112t158.5 50q89 0 147 -45.5t58 -136.5v-234q0 -71 20 -114v-8h-121zM247 85q41 0 70.5 20t41.5 44v100h-72q-125 -3 -124 -89q0 -32 21.5 -53.5t62.5 -21.5z" />
    <glyph glyph-name="uni0228" unicode="&#x228;" horiz-adv-x="565" 
d="M397 -44q23 -18 23 -60q0 -49 -40 -80q-40 -30 -119 -30l-3 68q66 0 66 43q0 22 -17 30q-17 9 -56 12l13 61h-191v711h461v-99h-338v-197h292v-97h-292v-219h342v-99h-187l-4 -20q27 -5 50 -24z" />
    <glyph glyph-name="uni0229" unicode="&#x229;" horiz-adv-x="536" 
d="M368 -49q23 -18 23 -60q0 -49 -40 -80q-40 -30 -119 -30l-3 68q66 0 66 43q0 22 -17 30q-17 9 -56 12l13 61q-77 14 -127 69q-67 73 -67 182v20q0 125 69 199q69 73 170 73q115 0 171 -73q55 -73 55 -188v-50h-345q5 -61 41 -101q36 -41 99 -41q82 0 132 66l64 -61
q-25 -37 -74 -68q-41 -26 -101 -31l-4 -16q27 -5 50 -24zM201 409q-30 -34 -38 -95h225v9q-2 46 -25 83q-24 37 -83 37q-49 0 -79 -34z" />
    <glyph glyph-name="uni022A" unicode="&#x22a;" horiz-adv-x="690" 
d="M514 994v-77h-336v77h336zM191 781q-16 16 -16 39t16 39.5t44.5 16.5t45 -16.5t16.5 -39.5t-16.5 -39t-45 -16t-44.5 16zM412 780q-16 16 -16 39t16 39.5t44.5 16.5t45 -16t16.5 -40q0 -23 -16.5 -39t-45 -16t-44.5 16zM640 337q0 -162 -80.5 -254.5t-213.5 -92.5
q-130 0 -213 92.5t-83 254.5v36q0 162 82.5 255t212.5 93q133 0 214 -93t81 -255v-36zM517 374q0 120 -45.5 182.5t-126.5 62.5q-79 0 -125.5 -62.5t-46.5 -182.5v-37q0 -120 47 -182.5t126 -62.5q82 0 126.5 63t44.5 182v37z" />
    <glyph glyph-name="uni022B" unicode="&#x22b;" horiz-adv-x="569" 
d="M450 856v-77h-335v77h335zM108 667q0 24 16.5 41t45.5 17t45.5 -17t16.5 -41t-16.5 -40.5t-45.5 -16.5t-45.5 16.5t-16.5 40.5zM349 626q-17 17 -17 41t16.5 41t44.5 17t45 -17t17 -41t-17 -41t-45 -17t-44 17zM39 269q0 115 65 192t180 77t179.5 -75t66.5 -188v-16
q0 -115 -64.5 -192t-180.5 -77t-181 77t-65 192v10zM157 259q0 -71 30.5 -122.5t97.5 -51.5q65 0 96 51.5t31 122.5v10q0 70 -30.5 122t-97.5 52q-66 0 -96.5 -52t-30.5 -122v-10z" />
    <glyph glyph-name="uni022C" unicode="&#x22c;" horiz-adv-x="690" 
d="M514 995v-77h-336v77h336zM435 870l50 -15q0 -36 -22.5 -62.5t-58.5 -26.5q-39 0 -59 17.5t-51 17.5q-15 0 -25.5 -12.5t-10.5 -30.5l-51 14q0 35 22.5 62.5t58.5 27.5q32 0 56 -17.5t55 -17.5q15 0 25.5 12.5t10.5 30.5zM640 337q0 -162 -80.5 -254.5t-213.5 -92.5
q-130 0 -213 92.5t-83 254.5v36q0 162 82.5 255t212.5 93q133 0 214 -93t81 -255v-36zM517 374q0 120 -45.5 182.5t-126.5 62.5q-79 0 -125.5 -62.5t-46.5 -182.5v-37q0 -120 47 -182.5t126 -62.5q82 0 126.5 63t44.5 182v37z" />
    <glyph glyph-name="uni022D" unicode="&#x22d;" horiz-adv-x="569" 
d="M450 876v-77h-335v77h335zM387 745l73 -6q0 -54 -31 -89.5t-78 -35.5q-31 0 -51 11t-37 21.5t-44 10.5q-19 0 -31.5 -14t-12.5 -36l-73 4q0 54 31 90.5t78 36.5q40 0 67 -22t64 -22q19 0 32 14.5t13 36.5zM39 269q0 115 65 192t180 77t179.5 -75t66.5 -188v-16
q0 -115 -64.5 -192t-180.5 -77t-181 77t-65 192v10zM157 259q0 -71 30.5 -122.5t97.5 -51.5q65 0 96 51.5t31 122.5v10q0 70 -30.5 122t-97.5 52q-66 0 -96.5 -52t-30.5 -122v-10z" />
    <glyph glyph-name="uni022E" unicode="&#x22e;" horiz-adv-x="690" 
d="M281 824q0 25 17 42.5t47.5 17.5t47 -17.5t16.5 -42.5t-16.5 -42.5t-47 -17.5t-47.5 17.5t-17 42.5zM640 337q0 -162 -80.5 -254.5t-213.5 -92.5q-130 0 -213 92.5t-83 254.5v36q0 162 82.5 255t212.5 93q133 0 214 -93t81 -255v-36zM517 374q0 120 -45.5 182.5
t-126.5 62.5q-79 0 -125.5 -62.5t-46.5 -182.5v-37q0 -120 47 -182.5t126 -62.5q82 0 126.5 63t44.5 182v37z" />
    <glyph glyph-name="uni022F" unicode="&#x22f;" horiz-adv-x="569" 
d="M217 673q0 25 17 42.5t47.5 17.5t47 -17.5t16.5 -42.5t-16.5 -42.5t-47 -17.5t-47.5 17.5t-17 42.5zM39 269q0 115 65 192t180 77t179.5 -75t66.5 -188v-16q0 -115 -64.5 -192t-180.5 -77t-181 77t-65 192v10zM157 259q0 -71 30.5 -122.5t97.5 -51.5q65 0 96 51.5
t31 122.5v10q0 70 -30.5 122t-97.5 52q-66 0 -96.5 -52t-30.5 -122v-10z" />
    <glyph glyph-name="uni0230" unicode="&#x230;" horiz-adv-x="690" 
d="M514 993v-77h-336v77h336zM301 781q-16 16 -16 39t16 39.5t45 16.5t45 -16t16 -40q0 -23 -16 -39t-45 -16t-45 16zM640 337q0 -162 -80.5 -254.5t-213.5 -92.5q-130 0 -213 92.5t-83 254.5v36q0 162 82.5 255t212.5 93q133 0 214 -93t81 -255v-36zM517 374
q0 120 -45.5 182.5t-126.5 62.5q-79 0 -125.5 -62.5t-46.5 -182.5v-37q0 -120 47 -182.5t126 -62.5q82 0 126.5 63t44.5 182v37z" />
    <glyph glyph-name="uni0231" unicode="&#x231;" horiz-adv-x="569" 
d="M450 865v-77h-335v77h335zM217 673q0 25 17 42.5t47 17.5t47 -17.5t17 -42.5t-17 -42.5t-47 -17.5t-47 17.5t-17 42.5zM39 269q0 115 65 192t180 77t179.5 -75t66.5 -188v-16q0 -115 -64.5 -192t-180.5 -77t-181 77t-65 192v10zM157 259q0 -71 30.5 -122.5t97.5 -51.5
q65 0 96 51.5t31 122.5v10q0 70 -30.5 122t-97.5 52q-66 0 -96.5 -52t-30.5 -122v-10z" />
    <glyph glyph-name="uni0232" unicode="&#x232;" horiz-adv-x="609" 
d="M475 861v-77h-335v77h335zM141 711l163 -336l164 336h136l-238 -449v-262h-124v262l-238 449h137z" />
    <glyph glyph-name="uni0233" unicode="&#x233;" horiz-adv-x="486" 
d="M420 709v-77h-335v77h335zM270 -80q-11 -29 -29.5 -59.5t-51 -52t-83.5 -21.5q-24 0 -57 8v92l22 -2q44 0 67 16t36 56l17 45l-185 526h128l112 -359l108 359h126z" />
    <glyph glyph-name="uni0234" unicode="&#x234;" horiz-adv-x="472" 
d="M128 750h119v-705q29 7 61 7q67 0 108.5 -35t41.5 -97q0 -59 -42 -96t-118 -37q-65 0 -102 24t-53 63l-73 -70l-60 71l118 109v766zM247 -74q0 -23 12.5 -38.5t40.5 -15.5q20 0 33.5 12t13.5 34q0 46 -52 46q-23 0 -48 -11v-27z" />
    <glyph glyph-name="uni0235" unicode="&#x235;" horiz-adv-x="722" 
d="M328 538q76 0 122 -44t47 -150v-299q29 7 61 7q67 0 108.5 -35t41.5 -97q0 -59 -42.5 -96t-117.5 -37q-65 0 -102 24.5t-53 62.5l-73 -70l-61 71l119 109v359q0 55 -23.5 76.5t-69.5 21.5q-71 0 -107 -64v-377h-118v528h111l4 -60q58 70 153 70zM497 -74
q0 -23 12.5 -38.5t39.5 -15.5q20 0 34 12t14 34q0 46 -53 46q-23 0 -47 -11v-27z" />
    <glyph glyph-name="uni0236" unicode="&#x236;" horiz-adv-x="472" 
d="M458 123q0 -59 -42 -96t-118 -37q-65 0 -102 24.5t-53 62.5l-73 -70l-60 72l118 109v253h-86v87h86v129h119v-129h93v-87h-93v-193q31 7 61 7q67 0 108.5 -35t41.5 -97zM247 130q0 -54 53 -54q20 0 33.5 12.5t13.5 33.5q0 46 -52 45q-23 0 -48 -11v-26z" />
    <glyph glyph-name="uni0237" unicode="&#x237;" horiz-adv-x="251" 
d="M28 -226q-31 0 -56 7v104q24 -13 47 -13q28 0 40 17t12 51v570h108v-571q0 -84 -41 -124.5t-110 -40.5z" />
    <glyph glyph-name="uni0238" unicode="&#x238;" horiz-adv-x="901" 
d="M854 259q0 -117 -52 -193t-153 -76q-88 0 -140 61v-51h-107l-6 55q-53 -64 -142 -65q-96 0 -151.5 76.5t-55.5 191.5v11q0 121 56 195t152 74q83 0 136 -58v270h118v-272q52 61 139 60q102 0 154 -75t52 -194v-10zM618 441q-76 0 -109 -68v-217q33 -69 110 -69
q66 0 91.5 49.5t25.5 132.5q0 70 -25 121t-93 51zM165 258q0 -71 28 -121t92 -50q72 0 106 65v227q-33 62 -105 62q-64 0 -92.5 -50.5t-28.5 -121.5v-11z" />
    <glyph glyph-name="uni0239" unicode="&#x239;" horiz-adv-x="885" 
d="M641 -10q-86 0 -140 58v-251h-118v248q-52 -55 -135 -55q-99 0 -154 77t-55 192v10q0 121 54.5 195t155.5 74q88 0 140 -61l7 51h96l5 -53q53 63 143 63q101 0 153.5 -74t52.5 -195v-10q0 -115 -53 -192t-152 -77zM157 259q0 -71 28.5 -122.5t92.5 -51.5q71 0 105 61v239
q-34 58 -104 58q-64 0 -93 -51.5t-29 -122.5v-10zM606 441q-73 0 -105 -61v-233q33 -62 106 -62q63 0 92 51.5t29 122.5v10q0 71 -29 121.5t-93 50.5z" />
    <glyph glyph-name="uni023A" unicode="&#x23a;" horiz-adv-x="665" 
d="M-89 -78l127 156l239 633h111l53 -141l146 178h90l-207 -253l188 -495h-129l-58 166h-270l-10 -11l-53 -155h-73l-64 -78h-90zM333 561l-75 -214l105 128zM282 265h155l-47 132z" />
    <glyph glyph-name="uni023B" unicode="&#x23b;" horiz-adv-x="652" 
d="M336 -10q-47 0 -87 12l-23 -63h-76l34 93q-63 41 -98.5 116.5t-35.5 178.5v57q0 153 79 245t213 92q48 0 89 -11l20 55h75l-30 -82q53 -32 82.5 -85.5t36.5 -121.5h-123q-8 66 -35 100l-174 -478q24 -8 53 -8q80 0 113.5 36.5t42.5 104.5h123q-9 -104 -78.5 -172.5
t-200.5 -68.5zM174 327q0 -128 49 -187l173 475q-23 6 -54 6q-84 0 -125.5 -61t-42.5 -172v-61z" />
    <glyph glyph-name="uni023C" unicode="&#x23c;" horiz-adv-x="523" 
d="M279 -10q-42 0 -78 11l-77 -204h-75l89 235q-99 71 -99 232v9q0 108 59.5 186.5t180.5 78.5q25 0 48 -4l67 177h75l-75 -200q98 -53 101 -172h-112q-2 42 -28 71l-120 -318q19 -7 43 -7q43 0 73 25.5t32 64.5h112q-2 -77 -65 -131t-151 -54zM157 255q0 -71 22 -113
l113 300l-14 1q-72 0 -96.5 -53.5t-24.5 -116.5v-18z" />
    <glyph glyph-name="uni023D" unicode="&#x23d;" horiz-adv-x="578" 
d="M339 316h-106v-217h323v-99h-446v316h-98v83h98v312h123v-312h106v-83z" />
    <glyph glyph-name="uni023E" unicode="&#x23e;" horiz-adv-x="607" 
d="M22 612v99h453l28 54h78l-28 -54h33v-99h-84l-137 -267v-345h-123v105l-86 -166h-78l164 318v355h-220zM365 612v-115l59 115h-59z" />
    <glyph glyph-name="uni023F" unicode="&#x23f;" horiz-adv-x="514" 
d="M332 98q24 18 24 46t-22.5 45.5t-88.5 31.5q-82 18 -136.5 53t-54.5 104q0 65 55 112.5t149 47.5q99 0 155 -48.5t56 -119.5h-118q0 31 -23.5 55t-70.5 24q-45 0 -66.5 -20t-21.5 -46t18.5 -40.5t105 -34t133.5 -56t47 -102.5q0 -70 -58.5 -115t-155.5 -45q-26 0 -49 4
q29 -55 49 -86t50 -31q37 0 73 33l39 -68q-20 -19 -49.5 -37t-65.5 -18q-55 0 -91 35t-66 89l-113 204l93 46q41 -82 132 -82q47 0 71 19z" />
    <glyph glyph-name="uni0240" unicode="&#x240;" horiz-adv-x="545" 
d="M45 433v95h413v-74l-270 -359h33q62 0 99.5 -33t62 -76.5t46 -76t50.5 -32.5q33 0 71 33l40 -68q-20 -19 -51 -37t-69 -18q-46 0 -75 21.5t-50 52.5l-41 64q-21 32 -48 53.5t-71 21.5h-145v78l269 355h-264z" />
    <glyph glyph-name="uni0241" unicode="&#x241;" horiz-adv-x="534" 
d="M192 0v233h57q73 0 96.5 50.5t23.5 112.5v60q0 61 -24 112t-96 51q-48 0 -75.5 -29t-29.5 -75h-117q2 91 63 148.5t158 57.5q122 0 183.5 -78.5t61.5 -186.5v-60q0 -92 -44.5 -163.5t-133.5 -93.5v-139h-123z" />
    <glyph glyph-name="uni0242" unicode="&#x242;" horiz-adv-x="493" 
d="M190 0v227h50q56 0 76.5 32t20.5 76q0 43 -20.5 75.5t-75.5 32.5q-39 0 -62.5 -29t-23.5 -75h-118q0 88 57 143.5t147 55.5q107 0 160.5 -55t53.5 -148q0 -68 -36 -115t-110 -59v-161h-119z" />
    <glyph glyph-name="uni0243" unicode="&#x243;" horiz-adv-x="669" 
d="M552 53q-66 -53 -181 -53h-260v169h-99v83h99v459h243q116 0 182 -46q65 -47 65 -146q0 -48 -26 -87q-27 -40 -78 -61q61 -16 91 -61q30 -46 30 -102q0 -102 -66 -155zM384 321h-150v-69h105v-83h-105v-70h137q61 0 93 30q31 30 31 79q0 109 -111 113zM445 438
q32 26 32 74q0 98 -117 100h-126v-200h121q58 0 90 26z" />
    <glyph glyph-name="uni0244" unicode="&#x244;" horiz-adv-x="782" 
d="M392 -10q-114 0 -189.5 62t-75.5 184v88h-110v84h110v303h123v-303h285v303h123v-303h108v-84h-108v-88q0 -122 -77.5 -184t-188.5 -62zM250 236q0 -76 38.5 -111.5t103.5 -35.5q66 0 104.5 35.5t38.5 111.5v88h-285v-88z" />
    <glyph glyph-name="uni0245" unicode="&#x245;" horiz-adv-x="647" 
d="M9 0l255 711h119l256 -711h-136l-180 556l-179 -556h-135z" />
    <glyph glyph-name="uni0246" unicode="&#x246;" horiz-adv-x="565" 
d="M73 0v711h328l15 54h75l-15 -54h58v-99h-85l-55 -197h94v-97h-121l-61 -219h232v-99h-259l-17 -61h-76l17 61h-130zM196 415h122l56 197h-178v-197zM196 99h34l62 219h-96v-219z" />
    <glyph glyph-name="uni0247" unicode="&#x247;" horiz-adv-x="536" 
d="M293 -10q-46 0 -85 13l-78 -206h-76l90 237q-101 69 -103 208v24q0 125 69 198.5t170 73.5q28 0 53 -5l66 178h76l-76 -202q107 -62 107 -238v-44h-214l-49 -132q26 -10 56 -10q83 0 134 66l64 -61q-25 -37 -75 -68.5t-129 -31.5zM276 443q-50 0 -81.5 -34t-38.5 -95h94
l48 127zM392 323q0 55 -31 87l-36 -96h67v9zM154 227q2 -51 30 -87l33 87h-63z" />
    <glyph glyph-name="uni0248" unicode="&#x248;" horiz-adv-x="599" 
d="M421 49q-67 -59 -167 -59q-101 0 -166 52q-66 52 -66 161h124q0 -62 30 -88t78 -26t79 32t31 92v103h-105v83h105v312h123v-312h99v-83h-99v-103q0 -106 -66 -164z" />
    <glyph glyph-name="uni0249" unicode="&#x249;" horiz-adv-x="358" 
d="M87 -213q-33 0 -63 8v93q22 -4 43 -4q60 0 60 69v295h-108v83h108v197h119v-197h100v-83h-100v-295q0 -167 -159 -166zM135 711q17 18 49 18t50 -18q17 -18 17 -45t-17 -45q-18 -18 -50 -18t-49 18q-18 18 -18 45t18 45z" />
    <glyph glyph-name="uni024A" unicode="&#x24a;" horiz-adv-x="732" 
d="M525 711h92v-742q0 -47 21 -64t53 -17q21 0 37 4v-97q-30 -8 -64 -8q-77 0 -123.5 47t-46.5 135v41q-62 -20 -139 -20q-149 0 -227 98.5t-78 243.5v47q0 149 80 245.5t225 96.5q94 0 165 -30zM358 619q-104 0 -144.5 -71t-40.5 -169v-47q0 -104 43 -172t142 -68
q66 0 94.5 15.5t41.5 28.5v439q-13 14 -41.5 29t-94.5 15z" />
    <glyph glyph-name="uni024B" unicode="&#x24b;" horiz-adv-x="605" 
d="M396 528h105v-585q0 -42 23 -57.5t54 -15.5q17 0 31 3v-80q-27 -6 -60 -6q-62 0 -114 34t-52 122v102q-52 -55 -135 -55q-99 0 -154 77t-55 192v10q0 121 54.5 195t155.5 74q88 0 140 -61zM157 259q0 -71 28.5 -122.5t92.5 -51.5q71 0 105 61v239q-34 58 -104 58
q-64 0 -93 -51.5t-29 -122.5v-10z" />
    <glyph glyph-name="uni024C" unicode="&#x24c;" horiz-adv-x="657" 
d="M510 0l-143 274h-138v-274h-123v274h-90v99h90v338h250q123 0 189.5 -54.5t66.5 -159.5q0 -71 -34.5 -119.5t-95.5 -74.5l160 -297v-6h-132zM229 612v-239h127q66 0 99.5 33.5t33.5 84.5q0 55 -31 87.5t-100 33.5h-129z" />
    <glyph glyph-name="uni024D" unicode="&#x24d;" horiz-adv-x="396" 
d="M224 361v-52h115v-83h-115v-226h-118v226h-94v83h94v219h113l3 -59q42 69 119 69q24 0 42 -6l-1 -112q-24 4 -47 4q-83 0 -111 -63z" />
    <glyph glyph-name="uni024E" unicode="&#x24e;" horiz-adv-x="697" 
d="M411 262v-262h-124v262l-132 248h-138v68h102l-71 133h138l64 -133h197l65 133h137l-71 -133h103v-68h-139zM349 375l66 135h-132z" />
    <glyph glyph-name="uni024F" unicode="&#x24f;" horiz-adv-x="540" 
d="M300 -80q-11 -29 -29.5 -59.5t-51 -52t-83.5 -21.5q-22 0 -57 8v92l23 -2q44 0 66.5 16t36.5 56l17 45l-107 303h-98v65h75l-55 158h128l49 -158h122l48 158h126l-54 -158h67v-65h-90zM234 305l42 -135l41 135h-83z" />
    <glyph glyph-name="uni0250" unicode="&#x250;" horiz-adv-x="541" 
d="M486 152q0 -62 -59 -112t-159 -50q-89 0 -147 45.5t-58 136.5v234q0 71 -20 114v8h122q9 -18 13 -49q56 59 139 59q79 0 129.5 -45t50.5 -113q0 -84 -63 -129t-177 -45h-75v-35q0 -42 23 -66.5t70 -24.5q42 0 67 21t25 51h119zM357 422q-21 21 -62 21t-71 -20t-42 -44
v-99h71q125 2 125 88q0 32 -21 54z" />
    <glyph glyph-name="uni0251" unicode="&#x251;" horiz-adv-x="589" 
d="M560 5q-25 -15 -62 -15q-80 0 -106 78q-51 -79 -144 -78q-99 0 -152.5 72t-53.5 185v10q0 123 53 202t154 79q89 0 139 -74l9 64h102v-378q1 -60 36 -60q8 0 12 2zM161 247q0 -68 26.5 -115t90.5 -47q69 0 102 66v224q-33 68 -101 68q-64 0 -91 -55t-27 -141z" />
    <glyph glyph-name="uni0252" unicode="&#x252;" horiz-adv-x="589" 
d="M547 271q0 -124 -53.5 -202.5t-153.5 -78.5q-89 0 -138 73l-10 -63h-101v377q-1 61 -36 61q-6 0 -13 -3l-12 88q25 15 62 15q80 0 105 -79q51 79 144 79q99 0 152.5 -72.5t53.5 -185.5v-9zM209 154q33 -69 102 -69q64 0 91 54.5t27 141.5q0 68 -27 114.5t-90 46.5
q-69 0 -103 -66v-222z" />
    <glyph glyph-name="uni0253" unicode="&#x253;" horiz-adv-x="563" 
d="M256 682q-32 0 -54.5 -15.5t-22.5 -57.5v-131q52 61 139 60q102 0 154 -75t52 -194v-10q0 -117 -52.5 -193t-152.5 -76q-92 0 -145 68l-6 -58h-107v609q0 87 52.5 121.5t113.5 34.5q36 0 61 -7v-79q-19 3 -32 3zM288 441q-76 0 -109 -68v-217q33 -69 110 -69
q66 0 91.5 49.5t25.5 132.5q0 70 -25 121t-93 51z" />
    <glyph glyph-name="uni0254" unicode="&#x254;" horiz-adv-x="523" 
d="M29 175h112q2 -39 31.5 -64.5t73.5 -25.5q73 0 96.5 53t23.5 117v18q0 63 -24 116.5t-96 53.5q-48 0 -75.5 -30.5t-29.5 -73.5h-112q2 87 60.5 143t155.5 56q121 0 180 -77t60 -185v-21q0 -109 -59.5 -187t-181.5 -78q-88 0 -150.5 54t-64.5 131z" />
    <glyph glyph-name="uni0255" unicode="&#x255;" horiz-adv-x="534" 
d="M99 -65l-77 59l72 94q-45 68 -45 167v18q0 108 59 186.5t181 78.5q96 0 154.5 -55.5t60.5 -143.5h-111q-2 42 -29.5 73t-75.5 31q-72 0 -96.5 -53.5t-24.5 -116.5v-18q0 -42 7 -72q48 51 92 74t96 23q75 0 108.5 -36t33.5 -86q0 -72 -60 -120t-155 -48q-73 0 -126 31z
M351 187q-48 0 -123 -85q27 -16 66 -17q38 0 68.5 17t30.5 46q0 22 -13 30.5t-29 8.5z" />
    <glyph glyph-name="uni0256" unicode="&#x256;" horiz-adv-x="606" 
d="M383 750h119v-807q0 -42 22.5 -57.5t54.5 -15.5q17 0 30 3v-80q-26 -6 -60 -6q-62 0 -114 34t-52 122v105q-52 -58 -136 -58q-95 0 -151.5 76.5t-56.5 191.5v11q0 121 56 195t153 74q84 0 135 -58v270zM157 258q0 -71 28 -121t92 -50q73 0 106 66v225q-33 63 -105 63
q-64 0 -92.5 -50.5t-28.5 -121.5v-11z" />
    <glyph glyph-name="uni0257" unicode="&#x257;" horiz-adv-x="606" 
d="M579 682q-32 0 -54.5 -15.5t-22.5 -57.5v-609h-103l-8 57q-53 -67 -144 -67q-95 0 -151.5 76.5t-56.5 191.5v11q0 121 56 195t153 74q84 0 135 -58v129q0 87 52.5 121.5t113.5 34.5q35 0 60 -7v-79q-16 3 -30 3zM157 258q0 -71 28 -121t92 -50q73 0 106 66v225
q-33 63 -105 63q-64 0 -92.5 -50.5t-28.5 -121.5v-11z" />
    <glyph glyph-name="uni0258" unicode="&#x258;" horiz-adv-x="536" 
d="M496 246q0 -109 -67.5 -182.5t-185.5 -73.5q-79 0 -128.5 31.5t-74.5 68.5l64 61q51 -65 132 -66q62 0 99 40.5t41 101.5h-345v50q0 114 55.5 187.5t170.5 73.5q101 0 170 -73.5t69 -198.5v-20zM148 314h226q-8 61 -38 95t-79 34q-59 0 -82.5 -37t-26.5 -83v-9z" />
    <glyph glyph-name="uni0259" unicode="&#x259;" horiz-adv-x="575" 
d="M278 526q75 0 134.5 -35t93 -96.5t33.5 -138.5q0 -73 -32.5 -135.5t-90.5 -99.5t-132 -37q-77 0 -133 33.5t-85.5 93t-29.5 133.5q0 13 3 34h394q-7 73 -52 112.5t-105 39.5q-49 0 -84 -22.5t-56 -59.5l-89 43q35 63 92.5 99t138.5 36zM144 197q2 -28 18 -56t46.5 -46.5
t75.5 -18.5q54 0 91.5 33t51.5 88h-283z" />
    <glyph glyph-name="uni025A" unicode="&#x25a;" horiz-adv-x="719" 
d="M257 -10q-115 0 -170.5 73.5t-55.5 187.5v30l335 71q-15 41 -48 66t-82 25q-82 0 -132 -66l-64 61q25 38 75 69t128 31q91 0 152.5 -45t85.5 -118l108 22q10 -68 23 -108t54 -40l28 1l15 -72q-32 -18 -68 -18q-65 0 -89.5 39.5t-36.5 94.5l-19 -4v-29q0 -124 -69 -197.5
t-170 -73.5zM148 206q0 -46 25 -83.5t84 -37.5q58 0 89 48t31 132l-229 -46v-13z" />
    <glyph glyph-name="uni025B" unicode="&#x25b;" horiz-adv-x="547" 
d="M371 312v-84h-103q-102 -2 -102 -73q0 -29 28.5 -51t81.5 -22q52 0 82 22.5t30 52.5h118q0 -58 -33.5 -95t-85 -54.5t-107.5 -17.5q-101 0 -167 42t-66 117q0 90 99 123q-90 38 -89 112q0 75 61.5 114.5t161.5 39.5q89 0 153.5 -43t64.5 -117h-119q0 30 -29.5 49
t-72.5 19q-53 0 -77.5 -21t-24.5 -47q0 -29 24 -47.5t74 -18.5h98z" />
    <glyph glyph-name="uni025C" unicode="&#x25c;" horiz-adv-x="547" 
d="M177 228v84h97q51 0 74.5 18.5t23.5 47.5q0 25 -24 46.5t-77 21.5q-43 0 -73.5 -19t-30.5 -49h-118q0 74 64.5 117t153.5 43q100 0 162 -39.5t62 -114.5q0 -74 -90 -112q99 -32 99 -123q0 -75 -66.5 -117t-166.5 -42q-55 0 -107 17.5t-85.5 54.5t-33.5 95h118
q0 -30 30 -52.5t82 -22.5q54 0 82 22t28 51q0 71 -102 73h-102z" />
    <glyph glyph-name="uni025D" unicode="&#x25d;" horiz-adv-x="729" 
d="M177 228v84h97q51 0 74.5 18.5t23.5 47.5q0 25 -24 46.5t-77 21.5q-43 0 -73.5 -19t-30.5 -49h-118q0 74 64.5 117t153.5 43q80 0 136 -25.5t77 -73.5l119 24q11 -67 23.5 -107.5t52.5 -40.5l30 2l15 -73q-33 -18 -70 -18q-64 0 -88.5 40t-36.5 94l-40 -8
q-19 -52 -84 -80q99 -32 99 -123q0 -75 -66.5 -117t-166.5 -42q-55 0 -107 17.5t-85.5 54.5t-33.5 95h118q0 -30 30 -52.5t82 -22.5q54 0 82 22t28 51q0 71 -102 73h-102z" />
    <glyph glyph-name="uni025E" unicode="&#x25e;" horiz-adv-x="532" 
d="M485 149q0 -75 -60.5 -117t-155.5 -42q-53 0 -106 23.5t-87.5 84t-34.5 171.5v1q0 103 33 161t85.5 82.5t109.5 24.5q96 0 151.5 -39.5t55.5 -114.5t-81 -112q90 -32 90 -123zM234 227v86h48q75 2 75 65q0 25 -19 46.5t-66 21.5q-44 0 -78.5 -36.5t-34.5 -140.5
q0 -103 30.5 -145.5t82.5 -42.5q49 0 72 22.5t23 51.5q0 71 -90 72h-43z" />
    <glyph glyph-name="uni025F" unicode="&#x25f;" horiz-adv-x="340" 
d="M91 -213q-34 0 -63 8v93q22 -4 42 -4q60 0 60 68v48h-100v83h100v445h119v-445h88v-83h-88v-55q-4 -158 -158 -158z" />
    <glyph glyph-name="uni0260" unicode="&#x260;" horiz-adv-x="611" 
d="M583 598q-31 0 -54 -16t-23 -57v-510q0 -107 -66.5 -165t-172.5 -58q-43 0 -103 20t-95 67l56 71q56 -65 135 -65q59 0 93.5 32.5t34.5 94.5v36q-52 -58 -137 -58q-97 0 -153.5 75.5t-57.5 188.5v15q0 121 57 195t155 74q85 0 136 -55v43q0 86 52 120.5t114 34.5
q36 0 60 -8v-79q-18 4 -31 4zM159 258q0 -71 29 -121t93 -50q73 0 107 63v231q-33 61 -106 60q-64 0 -93.5 -50.5t-29.5 -121.5v-11z" />
    <glyph glyph-name="uni0261" unicode="&#x261;" horiz-adv-x="566" 
d="M267 -208q-43 0 -103 20t-95 67l56 71q56 -65 135 -65q59 0 93.5 32.5t34.5 94.5v36q-52 -58 -137 -58q-97 0 -153.5 75.5t-57.5 188.5v15q0 121 57 195t155 74q91 0 142 -62l5 52h107v-513q0 -107 -66.5 -165t-172.5 -58zM159 258q0 -71 29 -121t93 -50q73 0 107 63v231
q-33 61 -106 60q-64 0 -93.5 -50.5t-29.5 -121.5v-11z" />
    <glyph glyph-name="uni0262" unicode="&#x262;" horiz-adv-x="606" 
d="M550 276v-198q-21 -27 -80 -57t-161 -30q-114 0 -186 65.5t-72 168.5v80q0 104 71.5 168.5t182.5 64.5t169 -49.5t67 -133.5h-119q-14 89 -117 89q-61 0 -98.5 -39.5t-37.5 -98.5v-81q0 -59 37.5 -99.5t102.5 -40.5q53 0 80.5 9.5t39.5 17.5v77h-117v87h238z" />
    <glyph glyph-name="uni0263" unicode="&#x263;" horiz-adv-x="557" 
d="M428 -91q0 -61 -41.5 -91.5t-107.5 -30.5t-108.5 31t-42.5 91q0 38 25 87l66 131l-209 401h126l143 -282l143 282h126l-208 -403l64 -126q24 -49 24 -90zM248 -85q0 -37 31 -37t31 37q0 32 -30 92q-32 -65 -32 -92z" />
    <glyph glyph-name="uni0264" unicode="&#x264;" horiz-adv-x="638" 
d="M290 113q0 -31 29 -31t30 31q0 21 -30 71q-29 -51 -29 -71zM460 109q0 -57 -38 -88t-103 -31t-103 31t-38 88q0 39 21.5 82t55.5 102q-46 80 -69.5 107.5t-51.5 27.5q-25 0 -56 -36l-65 72q24 29 56.5 51.5t81.5 22.5q52 0 92 -38t76 -96q37 58 77 96t91 38
q50 0 82 -22.5t56 -51.5l-65 -72q-31 36 -56 36q-27 0 -50.5 -27t-70.5 -108q34 -60 55.5 -102.5t21.5 -81.5z" />
    <glyph glyph-name="uni0265" unicode="&#x265;" horiz-adv-x="555" 
d="M496 528v-731h-119v261q-58 -67 -147 -68q-77 0 -124 44.5t-47 151.5v342h118v-341q0 -55 24 -77.5t70 -22.5q71 0 106 63v378h119z" />
    <glyph glyph-name="uni0266" unicode="&#x266;" horiz-adv-x="555" 
d="M255 682q-32 0 -54.5 -15.5t-22.5 -57.5v-139q58 68 147 68q78 0 124.5 -44.5t47.5 -150.5v-343h-119v341q0 55 -24 77.5t-69 22.5q-72 0 -107 -64v-377h-118v609q0 87 52 121.5t114 34.5q35 0 60 -7v-79q-17 3 -31 3z" />
    <glyph glyph-name="uni0267" unicode="&#x267;" horiz-adv-x="555" 
d="M325 538q78 0 124.5 -44.5t47.5 -150.5v-376q0 -87 -52.5 -121.5t-113.5 -34.5q-33 0 -61 7v80q14 -3 31 -3q32 0 54.5 15.5t22.5 56.5v374q0 55 -24 77.5t-69 22.5q-72 0 -107 -64v-377h-118v609q0 87 52 121.5t114 34.5q35 0 60 -7v-79q-17 3 -31 3q-32 0 -54.5 -15.5
t-22.5 -57.5v-139q58 68 147 68z" />
    <glyph glyph-name="uni0268" unicode="&#x268;" horiz-adv-x="346" 
d="M336 248h-104v-248h-119v248h-104v83h104v197h119v-197h104v-83zM124 711q18 18 50 18q31 0 49 -18t18 -45t-18 -45t-49 -18q-32 0 -50 18t-18 45t18 45z" />
    <glyph glyph-name="uni0269" unicode="&#x269;" horiz-adv-x="308" 
d="M58 528h119v-382q0 -42 22.5 -57.5t53.5 -15.5q15 0 32 3v-79q-26 -6 -61 -7q-61 0 -113.5 34.5t-52.5 121.5v382z" />
    <glyph glyph-name="uni026A" unicode="&#x26a;" horiz-adv-x="354" 
d="M45 433v95h265v-95h-74v-337h74v-96h-265v96h72v337h-72z" />
    <glyph glyph-name="uni026B" unicode="&#x26b;" horiz-adv-x="377" 
d="M337 365q-32 -36 -78 -36h-13v-329h-119v372q-19 0 -31 -14q-13 -14 -13 -36l-73 4q0 54 31 91q31 36 77 36h9v297h119v-341h4q19 0 32 15q13 14 13 36l73 -6q0 -54 -31 -89z" />
    <glyph glyph-name="uni026C" unicode="&#x26c;" horiz-adv-x="478" 
d="M346 0h-119v273h-60q-68 0 -109 34.5t-41 97.5q0 59 42 96t117 37q27 0 51 -5v217h119v-389h119v-88h-119v-273zM227 361v37q0 23 -12.5 39t-39.5 16q-47 0 -48 -46q0 -45 53 -46h47z" />
    <glyph glyph-name="uni026D" unicode="&#x26d;" horiz-adv-x="331" 
d="M89 750h119v-807q0 -42 22.5 -57.5t54.5 -15.5q17 0 31 3v-80q-26 -6 -61 -6q-61 0 -113.5 34t-52.5 122v807z" />
    <glyph glyph-name="uni026E" unicode="&#x26e;" horiz-adv-x="604" 
d="M236 133v84l163 216h-212v-433h-119v750h119v-222h349l1 -75l-181 -238q96 -12 148.5 -68t52.5 -151q0 -100 -70.5 -154.5t-179.5 -54.5q-87 0 -154.5 38t-84.5 133h119q19 -77 120 -76q62 0 96.5 33.5t34.5 87.5q0 127 -140 130h-62z" />
    <glyph glyph-name="uni026F" unicode="&#x26f;" horiz-adv-x="870" 
d="M698 0l-4 55q-56 -65 -152 -65q-105 0 -145 81q-26 -37 -66.5 -59t-95.5 -22q-81 0 -127 45t-47 149v344h119v-342q0 -59 25.5 -79t68.5 -20q40 0 66 21.5t36 56.5v363h119v-341q0 -56 25.5 -78t69.5 -22q72 0 101 59v382h119v-528h-112z" />
    <glyph glyph-name="uni0270" unicode="&#x270;" horiz-adv-x="870" 
d="M810 528v-731h-119v254q-56 -61 -149 -61q-105 0 -145 81q-26 -37 -66.5 -59t-95.5 -22q-81 0 -127 45t-47 149v344h119v-342q0 -59 25.5 -79t68.5 -20q40 0 66 21.5t36 56.5v363h119v-341q0 -56 25.5 -78t69.5 -22q72 0 101 59v382h119z" />
    <glyph glyph-name="uni0271" unicode="&#x271;" horiz-adv-x="870" 
d="M636 538q81 0 127 -45t47 -148v-402q0 -87 -52.5 -121.5t-113.5 -34.5q-33 0 -61 7v80q14 -3 31 -4q31 0 54 15.5t23 57.5v400q0 59 -25.5 78.5t-69.5 19.5q-41 0 -66.5 -22t-35.5 -57v-362h-119v342q0 56 -25 77.5t-69 21.5q-72 0 -102 -58v-383h-118v528h111l4 -55
q56 65 153 65q105 0 144 -80q59 80 163 80z" />
    <glyph glyph-name="uni0272" unicode="&#x272;" horiz-adv-x="601" 
d="M330 441q-71 0 -107 -65v-433q0 -87 -52 -121.5t-114 -34.5q-32 0 -60 7v80q14 -3 31 -4q32 0 54.5 15.5t22.5 57.5v585h111l4 -61q58 71 154 71q76 0 122 -44t46 -150v-344h-119v343q0 55 -24 76.5t-69 21.5z" />
    <glyph glyph-name="uni0273" unicode="&#x273;" horiz-adv-x="601" 
d="M328 538q76 0 122 -44t47 -150v-401q0 -42 22.5 -57.5t53.5 -15.5q17 0 31 3v-80q-27 -6 -60 -6q-62 0 -114 34t-52 122v400q0 55 -23.5 76.5t-69.5 21.5q-71 0 -107 -64v-377h-118v528h111l4 -60q58 70 153 70z" />
    <glyph glyph-name="uni0274" unicode="&#x274;" horiz-adv-x="565" 
d="M61 0v528h118l207 -355v355h118v-528h-118l-207 356v-356h-118z" />
    <glyph glyph-name="uni0275" unicode="&#x275;" horiz-adv-x="566" 
d="M39 269q0 115 64.5 192t180.5 77q117 0 181.5 -77t64.5 -192v-10q0 -115 -65 -192t-180 -77q-116 0 -181 77t-65 192v10zM284 443q-57 0 -87 -39.5t-37 -96.5h249q-7 57 -37 96.5t-88 39.5zM197 125q30 -40 88 -40t88 40t37 98h-251q7 -59 38 -98z" />
    <glyph glyph-name="uni0276" unicode="&#x276;" horiz-adv-x="832" 
d="M787 94v-94h-310q-61 0 -99.5 -5t-82.5 -5q-116 0 -180.5 77t-64.5 192v10q0 115 65 192t179 77q44 0 83 -5t100 -5h310v-94h-270v-120h228v-95h-228v-125h270zM168 259q0 -71 30.5 -122.5t96.5 -51.5q20 0 103 6v346q-83 6 -104 6q-66 0 -96 -52t-30 -122v-10z" />
    <glyph glyph-name="uni0277" unicode="&#x277;" horiz-adv-x="821" 
d="M772 241q0 -60 -19.5 -118t-63.5 -95.5t-121 -37.5q-112 0 -157 109q-45 -109 -158 -109q-76 0 -120.5 37.5t-63.5 95.5t-19 117q0 79 38.5 147t118.5 109.5t204 41.5t203.5 -41.5t118.5 -109.5t39 -146zM350 328h122v-97q0 -80 26 -113t64 -33h1q50 0 70 48t20 108
q0 81 -53 141.5t-189 60.5t-189.5 -60.5t-53.5 -141.5q0 -60 20 -108t70 -48q39 0 65.5 33.5t26.5 116.5v93z" />
    <glyph glyph-name="uni0278" unicode="&#x278;" horiz-adv-x="603" 
d="M564 259q0 -111 -56 -179t-148 -85v-198h-118v199q-92 17 -147.5 84.5t-55.5 178.5v10q0 111 56 179t147 85v217h118v-217q92 -17 148 -85t56 -179v-10zM157 259q0 -125 85 -162v334q-83 -37 -85 -157v-15zM446 269q0 124 -86 162v-334q83 36 86 156v16z" />
    <glyph glyph-name="uni0279" unicode="&#x279;" horiz-adv-x="351" 
d="M178 0l-4 59q-42 -69 -119 -69q-24 0 -42 7l1 111q24 -4 48 -4q82 0 110 63v361h119v-528h-113z" />
    <glyph glyph-name="uni027A" unicode="&#x27a;" horiz-adv-x="351" 
d="M178 0l-4 59q-42 -69 -119 -69q-24 0 -42 7l1 111q24 -4 48 -4q82 0 110 63v583h119v-750h-113z" />
    <glyph glyph-name="uni027B" unicode="&#x27b;" horiz-adv-x="395" 
d="M172 528h119v-585q0 -42 22.5 -57.5t53.5 -15.5q18 0 31 3v-80q-26 -6 -60 -6q-61 0 -113.5 34t-52.5 122v112q-42 -65 -117 -65q-24 0 -42 7l1 111q24 -4 48 -4q82 0 110 63v361z" />
    <glyph glyph-name="uni027C" unicode="&#x27c;" horiz-adv-x="351" 
d="M290 424q-83 0 -111 -63v-564h-118v731h113l3 -59q42 69 119 69q24 0 42 -6l-1 -112q-24 4 -47 4z" />
    <glyph glyph-name="uni027D" unicode="&#x27d;" horiz-adv-x="351" 
d="M290 424q-83 0 -111 -63v-418q0 -42 23 -57.5t54 -15.5q18 0 31 3v-80q-26 -6 -60 -6q-61 0 -113.5 34t-52.5 122v585h113l3 -59q42 69 119 69q24 0 42 -6l-1 -112q-24 4 -47 4z" />
    <glyph glyph-name="uni027E" unicode="&#x27e;" horiz-adv-x="300" 
d="M180 0h-119v382q0 87 52.5 121.5t113.5 34.5q33 0 61 -7v-80q-14 3 -31 4q-32 0 -54.5 -15.5t-22.5 -57.5v-382z" />
    <glyph glyph-name="uni027F" unicode="&#x27f;" horiz-adv-x="300" 
d="M240 -203h-119v585q0 42 -22.5 58t-54.5 16q-14 0 -31 -4v80q27 6 61 6q62 0 114 -34.5t52 -121.5v-585z" />
    <glyph glyph-name="uni0280" unicode="&#x280;" horiz-adv-x="556" 
d="M397 0l-113 194h-111v-194h-118v528h228q101 0 157.5 -48t56.5 -121q0 -104 -101 -145l125 -214h-124zM173 434v-152h117q46 0 67 23.5t21 51.5q0 29 -22.5 53t-72.5 24h-110z" />
    <glyph glyph-name="uni0281" unicode="&#x281;" horiz-adv-x="556" 
d="M497 169q0 -73 -56.5 -121t-157.5 -48h-228v528h118v-194h111l113 194h124l-125 -214q101 -41 101 -145zM173 94h110q49 0 72 25t23 52t-21 51t-67 24h-117v-152z" />
    <glyph glyph-name="uni0282" unicode="&#x282;" horiz-adv-x="516" 
d="M246 -203q-25 -7 -54 -7q-66 0 -110.5 40.5t-44.5 115.5v221h115q2 -49 36 -68.5t73 -19.5q47 0 71.5 18t24.5 47q0 25 -20.5 44t-89.5 33q-86 18 -139 54t-53 103q0 65 54.5 112.5t148.5 47.5q99 0 155.5 -48.5t56.5 -119.5h-118q0 31 -23.5 55t-70.5 24
q-45 0 -66.5 -20t-21.5 -46q0 -25 21.5 -41t87.5 -30q92 -20 143.5 -55.5t51.5 -106.5q0 -70 -58.5 -115t-155.5 -45q-69 0 -122 27v-71q0 -42 23 -57t54 -15q17 0 31 3v-80z" />
    <glyph glyph-name="uni0283" unicode="&#x283;" horiz-adv-x="412" 
d="M350 663q-84 0 -84 -84v-611q0 -88 -50 -134.5t-136 -46.5q-33 0 -67 8l4 93q20 -4 45 -4q84 0 84 84v611q0 88 50 134.5t136 46.5q33 0 67 -9l-3 -92q-20 4 -46 4z" />
    <glyph glyph-name="uni0284" unicode="&#x284;" horiz-adv-x="412" 
d="M266 579v-496h103v-83h-103v-32q0 -88 -50 -135q-50 -46 -136 -46q-33 0 -67 8l4 93q20 -4 45 -4q84 0 84 84v32h-104v83h104v496q0 88 50 135q50 46 136 46q33 0 67 -9l-3 -92q-20 4 -46 4q-84 0 -84 -84z" />
    <glyph glyph-name="uni0285" unicode="&#x285;" horiz-adv-x="412" 
d="M80 538q86 0 136 -46.5t50 -135.5v-389q0 -83 84 -83q25 0 46 4l3 -93q-34 -9 -67 -8q-86 0 -135.5 46.5t-49.5 134.5v389q0 83 -85 83q-25 0 -45 -3l-4 92q35 9 67 9z" />
    <glyph glyph-name="uni0286" unicode="&#x286;" horiz-adv-x="493" 
d="M429 663q-84 0 -85 -83v-597l119 -108l-61 -71l-72 69q-16 -38 -53.5 -62t-102.5 -24q-75 0 -117 37t-42 96q0 62 41 97t109 35q32 0 61 -7v534q0 88 49.5 134.5t135.5 46.5q32 0 67 -9l-3 -92q-21 4 -46 4zM125 -82q0 -21 14 -33.5t34 -12.5q53 0 53 58v23
q-24 11 -48 11q-53 0 -53 -46z" />
    <glyph glyph-name="uni0287" unicode="&#x287;" horiz-adv-x="333" 
d="M329 128h-87v-128h-118v128h-94v88h94v295q0 36 -15.5 46.5t-40.5 10.5q-21 0 -41 -5v92q34 12 78 12q59 0 98 -33.5t39 -115.5v-302h87v-88z" />
    <glyph glyph-name="uni0288" unicode="&#x288;" horiz-adv-x="344" 
d="M317 -207q-26 -6 -60 -6q-61 0 -113.5 34t-52.5 122v498h-87v87h87v129h118v-129h94v-87h-94v-498q0 -42 23 -57.5t54 -15.5q17 0 31 3v-80z" />
    <glyph glyph-name="uni0289" unicode="&#x289;" horiz-adv-x="655" 
d="M435 0l-3 52q-52 -62 -149 -62q-78 0 -126 45.5t-48 149.5v50h-97v83h97v210h119v-210h200v210h118v-210h98v-83h-98v-235h-111zM228 186q0 -57 25 -78t58 -21q85 0 117 62v86h-200v-49z" />
    <glyph glyph-name="uni028A" unicode="&#x28a;" horiz-adv-x="617" 
d="M308 85q60 0 90.5 21t41.5 51.5t11 56.5q0 42 -14.5 77t-29.5 67.5t-15 64.5q0 23 12 50t49.5 46t113.5 19v-92q-17 0 -36 -8t-19 -36q0 -27 14.5 -54.5t28.5 -65.5t14 -95q0 -45 -21.5 -90.5t-78 -76t-161.5 -30.5q-104 0 -160 30t-78 76t-22 91q0 57 14.5 95t28.5 65.5
t14 54.5q0 28 -19 36t-36 8v92q77 0 114 -19t49 -46t12 -50q0 -32 -15 -64.5t-29.5 -67.5t-14.5 -77q0 -27 11 -57t41.5 -51t89.5 -21z" />
    <glyph glyph-name="uni028B" unicode="&#x28b;" horiz-adv-x="546" 
d="M204 114q26 -27 69 -27t70 26.5t27 98.5v160q0 64 -48 64q-18 0 -47 -7l-13 88q63 21 112 21q72 0 93.5 -47.5t21.5 -109.5v-168q0 -119 -60 -171t-155.5 -52t-155.5 52t-60 171v315h119v-317q0 -71 27 -97z" />
    <glyph glyph-name="uni028C" unicode="&#x28c;" horiz-adv-x="495" 
d="M12 0l183 528h103l185 -528h-123l-114 377l-111 -377h-123z" />
    <glyph glyph-name="uni028D" unicode="&#x28d;" horiz-adv-x="742" 
d="M520 347l-104 -347h-90l-104 346l-5 28l-4 -31l-81 -343h-115l144 528h98l100 -326l11 -53l12 53l101 326h98l144 -528h-116l-76 346l-6 39z" />
    <glyph glyph-name="uni028E" unicode="&#x28e;" horiz-adv-x="487" 
d="M352 0l-112 359l-107 -359h-127l211 608q11 29 29.5 60t51 52.5t82.5 21.5q22 0 58 -9v-91l-23 1q-44 0 -67 -16t-36 -55l-18 -46l186 -526h-128z" />
    <glyph glyph-name="uni028F" unicode="&#x28f;" horiz-adv-x="527" 
d="M524 528l-202 -354v-174h-119v178l-199 350h130l130 -251l130 251h130z" />
    <glyph glyph-name="uni0290" unicode="&#x290;" horiz-adv-x="571" 
d="M458 454l-270 -359h279v-152q0 -42 22.5 -57.5t53.5 -15.5q17 0 32 4v-80q-25 -7 -54 -7q-132 0 -135 150v63h-346v78l269 355h-264v95h413v-74z" />
    <glyph glyph-name="uni0291" unicode="&#x291;" horiz-adv-x="625" 
d="M611 167q0 -75 -58.5 -121t-142.5 -46h-111l-76 -112l-76 55l40 57h-147v78l269 355h-264v95h413v-74l-270 -359h66q69 98 118 146.5t113 48.5q62 0 94 -33.5t32 -89.5zM474 202q-24 0 -49.5 -26.5t-62.5 -80.5h52q42 0 69.5 18.5t27.5 48.5q1 40 -37 40z" />
    <glyph glyph-name="uni0292" unicode="&#x292;" horiz-adv-x="568" 
d="M278 -213q-87 0 -155.5 41.5t-82.5 150.5h118q7 -42 36 -69.5t84 -27.5q62 0 97 33.5t35 85.5q0 69 -38 100.5t-110 31.5h-69v84l177 216h-305v95h442l1 -75l-192 -238l11 -1q96 -9 148.5 -66t52.5 -150q0 -101 -70.5 -156t-179.5 -55z" />
    <glyph glyph-name="uni0293" unicode="&#x293;" horiz-adv-x="579" 
d="M266 -213q-95 0 -160.5 41t-65.5 116q0 59 46 96.5t118 37.5q59 0 107.5 -22t95.5 -58l1 17q-4 63 -41.5 90.5t-104.5 27.5h-69v84l177 216h-305v95h442l1 -75l-192 -238l12 -1q96 -9 148 -66.5t52 -151.5q0 -46 -17 -83l59 -54l-66 -72l-54 50q-69 -50 -184 -50z
M271 -118q59 0 96 27q-41 34 -81 57t-78 23q-53 0 -53 -45q0 -34 33.5 -48t82.5 -14z" />
    <glyph glyph-name="uni0294" unicode="&#x294;" horiz-adv-x="523" 
d="M185 0v271h61q73 0 96.5 53.5t23.5 116.5v54q0 64 -24 117t-96 53q-43 0 -73 -25.5t-32 -63.5h-112q2 77 64.5 130.5t150.5 53.5q122 0 181.5 -78t59.5 -187v-54q0 -94 -44.5 -166.5t-133.5 -92.5v-182h-122z" />
    <glyph glyph-name="uni0295" unicode="&#x295;" horiz-adv-x="523" 
d="M334 271v-271h-119v182q-89 21 -132.5 93t-43.5 165v55q0 108 59.5 186.5t180.5 78.5q96 0 154.5 -55.5t61.5 -142.5h-112q-2 42 -29.5 72.5t-75.5 30.5q-72 0 -96.5 -53.5t-24.5 -116.5v-55q0 -60 21 -111t83 -58h73z" />
    <glyph glyph-name="uni0296" unicode="&#x296;" horiz-adv-x="523" 
d="M485 256q0 -109 -59.5 -187.5t-180.5 -78.5q-96 0 -155 56t-61 143h112q2 -42 29 -73t76 -31q73 0 96.5 53.5t23.5 117.5v55q0 60 -20.5 110.5t-82.5 57.5h-73v271h119v-182q89 -21 132.5 -93t43.5 -164v-55z" />
    <glyph glyph-name="uni0297" unicode="&#x297;" horiz-adv-x="523" 
d="M278 -118q43 0 73 25.5t32 63.5h112q-2 -77 -64.5 -130.5t-151.5 -53.5q-122 0 -181 78t-59 187v221q0 108 59.5 186.5t180.5 78.5q96 0 154.5 -55.5t61.5 -143.5h-112q-2 42 -29.5 73t-75.5 31q-72 0 -96.5 -53.5t-24.5 -116.5v-221q0 -64 24 -117t97 -53z" />
    <glyph glyph-name="uni0298" unicode="&#x298;" horiz-adv-x="690" 
d="M640 337q0 -162 -80.5 -254.5t-213.5 -92.5q-130 0 -213 92.5t-83 254.5v36q0 162 82.5 255t212.5 93q133 0 214 -93t81 -255v-36zM517 374q0 120 -45.5 182.5t-126.5 62.5q-79 0 -125.5 -62.5t-46.5 -182.5v-37q0 -120 47 -182.5t126 -62.5q82 0 126.5 63t44.5 182v37z
M276 357q0 28 18 47t51 19t51 -18.5t18 -47.5q0 -27 -18 -46t-51 -19t-51 19t-18 46z" />
    <glyph glyph-name="uni0299" unicode="&#x299;" horiz-adv-x="570" 
d="M529 151q0 -75 -55.5 -113t-155.5 -38h-248v528h215q102 0 161.5 -35.5t59.5 -110.5q0 -78 -89 -110q56 -12 84 -45.5t28 -75.5zM188 434v-124h99q101 0 101 60q0 62 -99 64h-101zM410 159q0 64 -88 66h-134v-131h130q92 0 92 65z" />
    <glyph glyph-name="uni029A" unicode="&#x29a;" horiz-adv-x="532" 
d="M492 269q0 -111 -35 -171.5t-87.5 -84t-105.5 -23.5q-96 0 -156.5 42t-60.5 117q0 91 91 123q-81 37 -81 112t55.5 114.5t151.5 39.5q57 0 109.5 -24.5t85.5 -83t33 -160.5v-1zM298 313v-86h-43q-89 -1 -89 -72q0 -29 23 -51.5t72 -22.5q52 0 82.5 43t30.5 146
t-34.5 139.5t-78.5 36.5q-48 0 -67 -21t-19 -47q0 -63 75 -65h48z" />
    <glyph glyph-name="uni029B" unicode="&#x29b;" horiz-adv-x="633" 
d="M605 491q-32 0 -54.5 -15t-22.5 -57v-64h-118q-13 89 -117 89q-61 0 -98.5 -39.5t-37.5 -98.5v-81q0 -59 37 -99.5t103 -40.5q53 0 80.5 9.5t39.5 17.5v77h-117v87h238v-198q-21 -27 -80 -57t-161 -30q-114 0 -186 65.5t-72 168.5v80q0 104 72 168.5t182 64.5
q104 0 165 -46q28 83 125 83q29 0 53 -8v-79q-14 3 -31 3z" />
    <glyph glyph-name="uni029C" unicode="&#x29c;" horiz-adv-x="574" 
d="M390 0v213h-206v-213h-119v528h119v-220h206v220h118v-528h-118z" />
    <glyph glyph-name="uni029D" unicode="&#x29d;" horiz-adv-x="459" 
d="M218 666q0 27 17.5 45t49.5 18t50 -18t18 -45t-18 -45t-50 -18t-49.5 18t-17.5 45zM226 528h118v-476h106v-88h-106v-9q0 -66 -36.5 -117t-133.5 -51q-75 0 -117 37t-42 96q0 62 41 97t109 35h61v476zM173 -128q53 0 53 58v34h-48q-52 0 -53 -46q0 -21 14 -33.5t34 -12.5
z" />
    <glyph glyph-name="uni029E" unicode="&#x29e;" horiz-adv-x="521" 
d="M461 528v-731h-119v414l-37 -47l-146 -164h-143l197 220l-218 308h137l157 -227l53 54v173h119z" />
    <glyph glyph-name="uni029F" unicode="&#x29f;" horiz-adv-x="442" 
d="M424 94v-94h-364v528h118v-434h246z" />
    <glyph glyph-name="uni02A0" unicode="&#x2a0;" horiz-adv-x="606" 
d="M578 598q-31 0 -54 -16t-23 -57v-728h-118v248q-52 -55 -135 -55q-99 0 -154 77t-55 192v10q0 121 54.5 195t155.5 74q83 0 134 -54v41q0 87 52.5 121.5t113.5 34.5q36 0 60 -8v-79q-18 4 -31 4zM157 259q0 -71 28.5 -122.5t92.5 -51.5q71 0 105 61v239q-34 58 -104 58
q-64 0 -93 -51.5t-29 -122.5v-10z" />
    <glyph glyph-name="uni02A1" unicode="&#x2a1;" horiz-adv-x="523" 
d="M81 152h104v119h61q73 0 96.5 53.5t23.5 116.5v54q0 64 -24 117t-96 53q-43 0 -73 -25.5t-32 -63.5h-112q2 77 64.5 130.5t150.5 53.5q122 0 181.5 -78t59.5 -187v-54q0 -94 -44.5 -166.5t-133.5 -92.5v-30h101v-84h-101v-68h-122v68h-104v84z" />
    <glyph glyph-name="uni02A2" unicode="&#x2a2;" horiz-adv-x="523" 
d="M83 275q-44 72 -44 165v55q0 108 60 187q59 78 180 78q96 0 154.5 -55.5t61.5 -142.5h-112q-2 42 -29.5 72.5t-75.5 30.5q-72 0 -96 -53q-25 -54 -25 -117v-55q0 -60 21 -111t83 -58h73v-120h104v-83h-104v-68h-119v68h-104v83h104v31q-89 21 -132 93z" />
    <glyph glyph-name="uni02A3" unicode="&#x2a3;" horiz-adv-x="964" 
d="M502 78l268 355h-268v-355zM157 258q0 -71 28 -121t92 -50q73 0 106 66v225q-33 63 -105 63q-64 0 -92.5 -50.5t-28.5 -121.5v-11zM502 750v-222h418v-74l-270 -359h281v-95h-537l-5 55q-53 -64 -142 -65q-95 0 -151.5 76.5t-56.5 191.5v11q0 121 56 195t153 74
q84 0 135 -58v270h119z" />
    <glyph glyph-name="uni02A4" unicode="&#x2a4;" horiz-adv-x="923" 
d="M548 133v84l177 216h-223v-433h-108l-5 55q-53 -64 -142 -65q-95 0 -151.5 76.5t-56.5 191.5v11q0 121 56 195t153 74q84 0 135 -58v270h119v-222h360l1 -75l-191 -236q101 -10 156 -66.5t55 -151.5q0 -102 -70.5 -157t-179.5 -55q-87 0 -159 37t-91 136h119
q22 -79 129 -78q64 0 99 33.5t35 85.5q0 69 -38 100.5t-110 31.5h-69zM157 258q0 -71 28 -121t92 -50q73 0 106 66v225q-33 63 -105 63q-64 0 -92.5 -50.5t-28.5 -121.5v-11z" />
    <glyph glyph-name="uni02A5" unicode="&#x2a5;" horiz-adv-x="1086" 
d="M1072 167q0 -75 -58.5 -121t-142.5 -46h-111l-75 -112l-77 55l41 57h-255l-5 55q-53 -64 -142 -65q-95 0 -151.5 76.5t-56.5 191.5v11q0 121 56 195t153 74q84 0 135 -58v270h119v-222h418v-74l-271 -359h68q69 98 117 146.5t112 48.5q62 0 94 -33.5t32 -89.5zM157 258
q0 -71 28 -121t92 -50q73 0 106 66v225q-33 63 -105 63q-64 0 -92.5 -50.5t-28.5 -121.5v-11zM502 433v-355l268 355h-268zM935 202q-24 0 -49 -26.5t-62 -80.5h51q42 0 70 19t28 51q0 37 -38 37z" />
    <glyph glyph-name="uni02A6" unicode="&#x2a6;" horiz-adv-x="732" 
d="M690 150q0 -70 -58 -110t-155 -40h-249q-59 0 -98 38t-39 127v276h-87v87h87v129h118v-129h191q35 10 75 10q99 0 155.5 -48.5t56.5 -119.5h-119q0 31 -23.5 55t-69.5 24q-45 0 -66.5 -20t-21.5 -46q0 -30 26 -44.5t79 -25.5q100 -21 149 -58.5t49 -104.5zM306 99l172 -1
q96 0 96 50q0 24 -20.5 41.5t-90.5 31.5q-89 18 -140.5 55.5t-51.5 101.5q0 33 15 63h-77v-276q0 -39 15.5 -52.5t40.5 -13.5h41z" />
    <glyph glyph-name="uni02A7" unicode="&#x2a7;" horiz-adv-x="572" 
d="M511 663q-84 0 -85 -84v-611q0 -88 -49.5 -134.5t-135.5 -46.5q-33 0 -67 8l3 93q20 -4 46 -4q83 0 84 82v32q-40 -7 -76 -8q-81 0 -110.5 44.5t-29.5 120.5v286h-87v87h87v129h118v-129h98v51q0 88 50 134.5t136 46.5q32 0 67 -9l-3 -92q-21 4 -46 4zM209 155
q0 -38 12.5 -52t43.5 -14q18 0 42 3v349h-98v-286z" />
    <glyph glyph-name="uni02A8" unicode="&#x2a8;" horiz-adv-x="779" 
d="M209 155q0 -39 14.5 -52.5t35.5 -13.5q27 0 66 25q-30 62 -30 141v18q0 108 59.5 186.5t180.5 78.5q96 0 155 -55.5t61 -143.5h-111q-2 42 -29.5 73t-76.5 31q-72 0 -96 -53.5t-24 -116.5v-18q0 -39 6 -68q45 35 95.5 64t104.5 29q66 0 98.5 -36t32.5 -86
q0 -72 -60.5 -120t-155 -48t-155.5 52q-80 -52 -152 -52q-59 0 -98 38t-39 127v286h-87v87h87v129h118v-129h87v-87h-87v-286zM597 187q-29 0 -62 -24t-70 -55q29 -22 76 -23q39 0 68.5 17t29.5 46q0 22 -13 30.5t-29 8.5z" />
    <glyph glyph-name="uni02A9" unicode="&#x2a9;" horiz-adv-x="853" 
d="M622 538q78 0 124.5 -50.5t46.5 -165.5v-355q0 -87 -52 -121.5t-114 -34.5q-33 0 -60 7v80q14 -3 31 -3q32 0 54.5 15.5t22.5 56.5v356q0 63 -24 90.5t-69 27.5q-72 0 -107 -64v-377h-119v441h-134v-441h-119v441h-81v87h81v51q0 88 49.5 134.5t135.5 46.5q33 0 67 -9
l-3 -92q-21 4 -46 4q-83 0 -84 -82v-53h253v-58q58 68 147 68z" />
    <glyph glyph-name="uni02AA" unicode="&#x2aa;" horiz-adv-x="682" 
d="M640 150q0 -70 -59 -115t-161 -45q-129 0 -233 54v-44h-119v750h119v-595q67 -45 130.5 -60t102.5 -15q103 0 103 64q0 29 -23 46t-89 31q-85 19 -137.5 55t-52.5 102q0 65 54.5 112.5t148.5 47.5q99 0 155.5 -48.5t56.5 -119.5h-118q0 31 -23.5 55t-70.5 24
q-45 0 -66.5 -20t-21.5 -46q0 -29 27 -44.5t85 -27.5q94 -19 143 -56.5t49 -104.5z" />
    </font>
</defs>
</svg>
